<ttFont>
          <CharString index="0">
            318 -107 callgsubr
            return
          </CharString>
          <CharString index="1">
            -103 callsubr
            59 return
          </CharString>
          <CharString index="2">
            -97 callgsubr
            347 -106 callgsubr
            return
          </CharString>
          <CharString index="3">
            -105 callsubr
            46 return
          </CharString>
          <CharString index="4">
            -101 callgsubr
            117 -41 rlineto
            -27 callgsubr
            return
          </CharString>
          <CharString index="5">
            -44 -17 -38 -27 -44 hhcurveto
            -49 -37 29 47 55 51 28 45 14 22 -1 -10 21 hvcurveto
            -39 121 rlineto
            11 -24 -26 4 -25 hhcurveto
            return
          </CharString>
          <CharString index="6">
            -70 57 -89 77 97 vvcurveto
            65 41 40 50 22 17 -5 -7 13 vhcurveto
            -5 -17 -2 -19 -18 vvcurveto
            -36 9 -38 22 -38 vhcurveto
            return
          </CharString>
          <CharString index="7">
            hhcurveto
            -30 callsubr
            hvcurveto
            -91 callsubr
          </CharString>
          <CharString index="8">
            21 callgsubr
            49 31 -33 -43 -50 -42 -30 -43 -26 -18 4 12 -27 hvcurveto
            32 -126 rlineto
            -10 26 33 -5 25 hhcurveto
            93 53 70 82 113 -131 141 -89 -84 callsubr
            return
          </CharString>
          <CharString index="9">
            -185 hlineto
            -51 callgsubr
            -65 -58 72 -108 87 -119 106 -128 rlinecurve
            86 47 -77 79 -60 78 -35 48 rlinecurve
            -51 callsubr
            return
          </CharString>
          <CharString index="10">
            rmoveto
            -110 vlineto
            -18 -15 -16 -6 -20 hhcurveto
            -23 -18 19 30 36 23 27 41 13 hvcurveto
            250 -121 rmoveto
            -3 -16 -9 -3 -12 hhcurveto
            -15 -16 11 38 hvcurveto
            177 vlineto
            106 -53 63 -113 -85 -66 -26 -54 -60 vhcurveto
            32 -47 rlineto
            13 39 34 7 42 hhcurveto
            49 27 -18 -47 hvcurveto
            -30 vlineto
            -117 -23 rlineto
            -91 -18 -49 -40 -74 vvcurveto
            -74 54 -56 88 56 34 20 38 30 vhcurveto
            -38 17 50 -20 49 hhcurveto
            55 30 29 35 30 hvcurveto
            endchar
          </CharString>
          <CharString index="11">
            rmoveto
            62 211 7 35 73 -246 rlineto
            51 370 rmoveto
            -48 -1 -72 -5 -41 -8 -171 -526 rcurveline
            -13 -35 -17 -19 -41 -12 -3 -19 -1 -18 1 -20 rrcurveto
            224 hlineto
            3 20 1 16 21 vvcurveto
            -35 -25 1 12 -21 hvcurveto
            45 154 rlineto
            184 hlineto
            42 -142 -23 -11 -28 -8 -26 -6 rlinecurve
            -3 -21 0 -16 -20 vvcurveto
            309 hlineto
            2 20 2 16 21 vvcurveto
            -46 1 -14 15 -15 47 rrcurveto
            endchar
          </CharString>
          <CharString index="12">
            hlineto
            -4 -3 callgsubr
            19 34 -3 -8 18 hvcurveto
            -466 -48 callsubr
            return
          </CharString>
          <CharString index="13">
            4 -213 rlineto
            -70 -41 -69 -65 -64 hhcurveto
            -44 -23 25 42 56 46 59 52 39 21 -18 -21 21 hvcurveto
            return
          </CharString>
          <CharString index="14">
            158 callsubr
            endchar
          </CharString>
          <CharString index="15">
            rmoveto
            -3 -16 -2 -24 1 63 callsubr
            -106 -47 -34 -69 -69 -46 34 106 vhcurveto
            332 vlineto
            44 28 10 35 217 callsubr
            -294 hlineto
            -3 -16 -3 -24 2 63 callsubr
            -155 112 -60 163 163 114 60 155 vhcurveto
            332 vlineto
            44 27 10 36 217 callsubr
            endchar
          </CharString>
          <CharString index="16">
            -5 -98 -93 callsubr
          </CharString>
          <CharString index="17">
            44 28 10 35 217 callsubr
            -294 -82 callgsubr
            return
          </CharString>
          <CharString index="18">
            -69 callsubr
            -103 114 -115 112 return
          </CharString>
          <CharString index="19">
            5 13 13 3 13 hhcurveto
            36 22 -17 -23 23 hvcurveto
            44 57 rlineto
            40 -33 -56 44 -74 hhcurveto
            return
          </CharString>
          <CharString index="20">
            hhcurveto
            -38 -33 12 28 18 18 10 14 10 203 callgsubr
            46 88 vvcurveto
            73 -98 134 -108 -60 -68 -41 -72 -45 30 -46 39 -39 vhcurveto
            59 38 rlineto
            -11 11 -13 19 20 vvcurveto
            34 29 25 35 25 34 -21 -36 return
          </CharString>
          <CharString index="21">
            hlineto
            -110 -55 -53 -96 -96 74 -133 77 -92 hvcurveto
            -67 callgsubr
            return
          </CharString>
          <CharString index="22">
            -48 -28 -15 -44 -57 87 -114 52 24 12 18 22 hvcurveto
            76 return
          </CharString>
          <CharString index="23">
            -34 -27 -8 -12 -21 hvcurveto
            1 36 2 22 1 28 rrcurveto
            return
          </CharString>
          <CharString index="24">
            hhcurveto
            -43 -30 26 34 48 53 11 35 29 28 -5 -12 41 hvcurveto
            -39 128 rlineto
            4 -28 -37 5 -29 hhcurveto
            -8 -12 0 -1 -5 hvcurveto
            -16 13 -6 13 257 callgsubr
            37 27 9 vhcurveto
            return
          </CharString>
          <CharString index="25">
            hlineto
            76 -104 rlineto
            109 -167 hlineto
            -47 -21 -13 -29 -57 98 -95 55 27 13 15 63 hvcurveto
            283 return
          </CharString>
          <CharString index="26">
            295 182 callsubr
            -36 -30 28 28 -27 vhcurveto
            -66 -59 62 -87 131 -149 96 -111 rlinecurve
            81 50 -59 59 -71 73 -41 46 rlinecurve
            -46 callsubr
            return
          </CharString>
          <CharString index="27">
            rmoveto
            78 26 40 48 50 vvcurveto
            50 -36 34 -47 -38 -32 -23 -30 vhcurveto
            -38 52 -5 -29 vvcurveto
            -24 -22 -17 -35 -18 vhcurveto
            return
          </CharString>
          <CharString index="28">
            222 callgsubr
            -5 -17 -1 -22 1 -18 rrcurveto
            return
          </CharString>
          <CharString index="29">
            hvcurveto
            71 64 20 39 30 vvcurveto
            88 -86 87 -90 -82 -59 -55 -69 -64 47 -69 33 -27 vhcurveto
            -81 -62 -47 -33 -68 vvcurveto
            -98 122 -124 109 27 27 3 15 26 vhcurveto
            93 -141 79 61 -106 123 rlineto
            8 9 10 17 26 vvcurveto
            32 -44 73 -40 -33 -34 -24 -32 -15 3 -14 13 -20 vhcurveto
            -11 -15 -22 -5 -23 hhcurveto
            -55 -40 33 56 60 80 46 26 19 hvcurveto
            return
          </CharString>
          <CharString index="30">
            rmoveto
            139 callgsubr
            34 -3 -8 18 hvcurveto
            -312 vlineto
            -54 79 -237 300 rlineto
            -216 hlineto
            -5 -18 -1 -17 -1 -20 rrcurveto
            24 28 0 -6 22 hvcurveto
            -472 vlineto
            -44 -27 -10 -36 -6 vhcurveto
            -5 -17 -1 -22 1 -18 rrcurveto
            221 -43 callsubr
            415 vlineto
            67 -96 305 -386 rlineto
            68 534 hlineto
            44 27 10 36 217 callsubr
            endchar
          </CharString>
          <CharString index="31">
            116 callgsubr
            71 -138 hlineto
            -95 149 -134 77 19 20 6 8 17 vhcurveto
            237 callsubr
            return
          </CharString>
          <CharString index="32">
            rmoveto
            94 -91 91 91 -94 93 rlineto
            return
          </CharString>
          <CharString index="33">
            -65 callgsubr
            275 hlineto
            3 17 return
          </CharString>
          <CharString index="34">
            55 47 31 26 28 hvcurveto
            118 callgsubr
          </CharString>
          <CharString index="35">
            86 47 rcurveline
            -77 79 -60 78 -35 48 -64 callgsubr
          </CharString>
          <CharString index="36">
            rmoveto
            172 callgsubr
            -34 -18 24 39 hvcurveto
            190 146 vlineto
            return
          </CharString>
          <CharString index="37">
            -24 callgsubr
            42 29 -32 -38 -30 -15 -29 -12 -12 vhcurveto
            return
          </CharString>
          <CharString index="38">
            -88 callsubr
            -75 -93 -60 -108 return
          </CharString>
          <CharString index="39">
            7 -26 -32 243 callsubr
            -14 -2 -2 -14 hvcurveto
            -13 10 -6 11 13 vvcurveto
            28 31 14 48 23 28 -4 -6 30 vhcurveto
            -40 114 rlineto
            7 -33 -31 4 -24 hhcurveto
            return
          </CharString>
          <CharString index="40">
            -101 callsubr
            117 -41 rlineto
            -27 callgsubr
            61 24 54 67 return
          </CharString>
          <CharString index="41">
            88 callgsubr
            -275 hlineto
            125 -74 -91 callgsubr
          </CharString>
          <CharString index="42">
            rmoveto
            -28 -24 21 84 -3 hvcurveto
            82 -3 22 22 28 hhcurveto
            28 25 -22 -82 2 hvcurveto
            -83 1 -21 -22 -27 hhcurveto
            108 -231 rmoveto
            32 13 -16 -22 -37 -51 -39 -103 -88 -44 24 42 13 5 21 12 16 hvcurveto
            -1 11 11 -1 12 hhcurveto
            119 vmoveto
            -23 -16 13 19 15 10 14 17 9 hvcurveto
            -8 27 31 -4 32 hhcurveto
            121 93 59 100 32 -9 27 -17 22 hvcurveto
            97 12 3 23 3 42 -3 14 rlinecurve
            -45 -61 -11 -37 -43 hvcurveto
            22 -37 -48 11 -54 hhcurveto
            -121 -95 -57 -100 -56 30 -43 48 -27 hvcurveto
            -44 -19 -30 -38 -47 vvcurveto
            -34 13 -33 34 -20 vhcurveto
            -48 -27 -29 -36 -52 vvcurveto
            -88 84 -49 112 176 122 124 121 67 -36 40 -96 vhcurveto
            endchar
          </CharString>
          <CharString index="43">
            65 callgsubr
            16 11 -7 -25 18 hvcurveto
            70 -105 85 -115 102 -123 30 callsubr
            return
          </CharString>
          <CharString index="44">
            -14 callgsubr
            -47 116 rlineto
            -68 callsubr
            return
          </CharString>
          <CharString index="45">
            -182 -63 callgsubr
            return
          </CharString>
          <CharString index="46">
            -14 vvcurveto
            -55 78 -33 61 29 17 12 15 5 0 4 -5 9 vhcurveto
            -5 11 -5 8 -24 33 return
          </CharString>
          <CharString index="47">
            -59 -124 hlineto
            -81 -47 -31 -72 -86 112 -116 73 hvcurveto
            -66 callgsubr
            return
          </CharString>
          <CharString index="48">
            vvcurveto
            110 -106 147 -115 -76 -55 -63 -72 -83 90 -60 54 -16 vhcurveto
            return
          </CharString>
          <CharString index="49">
            109 -60 -72 49 -66 hhcurveto
            -41 -47 -27 -50 -46 hvcurveto
            98 -106 rlineto
            33 24 34 28 34 hhcurveto
            38 26 -30 -43 -67 -38 -41 -69 -81 -61 75 105 -75 hvcurveto
            -60 -54 rlineto
            61 callgsubr
            return
          </CharString>
          <CharString index="50">
            -494 hlineto
            -10 callgsubr
            return
          </CharString>
          <CharString index="51">
            rmoveto
            -339 -97 callgsubr
            47 -240 hlineto
            -61 -56 -64 -45 26 callgsubr
            return
          </CharString>
          <CharString index="52">
            -63 callsubr
            -98 -50 -45 -71 -38 29 -39 33 -31 hvcurveto
            return
          </CharString>
          <CharString index="53">
            27 8 15 22 hvcurveto
            -53 callsubr
            return
          </CharString>
          <CharString index="54">
            52 168 -192 vlineto
            130 -77 71 callsubr
            return
          </CharString>
          <CharString index="55">
            -328 -97 callgsubr
            36 -282 hlineto
            -179 93 rlineto
            46 39 29 50 32 vvcurveto
            98 -86 89 -88 -74 -64 -57 -69 -61 29 -47 50 -49 vhcurveto
            -63 -50 -126 -52 0 vvcurveto
            98 -73 rlineto
            0 99 47 84 58 vhcurveto
            return
          </CharString>
          <CharString index="56">
            34 10 27 19 11 26 rrcurveto
            return
          </CharString>
          <CharString index="57">
            81 50 rcurveline
            -59 59 -71 73 -41 46 rrcurveto
            -1 callgsubr
            507 284 rmoveto
            -351 37 callsubr
            148 vlineto
            endchar
          </CharString>
          <CharString index="58">
            rmoveto
            -43 -79 callsubr
            305 hlineto
            3 17 2 23 -1 17 -26 2 -37 7 -23 9 rrcurveto
            152 vlineto
            84 13 71 20 85 hhcurveto
            12 51 3 63 -9 29 rrcurveto
            -81 -63 -63 -82 -31 hvcurveto
            -1 47 -4 43 -9 49 92 callgsubr
            endchar
          </CharString>
          <CharString index="59">
            vlineto
            -49 callgsubr
            return
          </CharString>
          <CharString index="60">
            vvcurveto
            71 77 44 56 29 16 -9 -18 -26 -26 -43 -64 -25 vhcurveto
            94 -100 rlineto
            74 34 26 51 48 vvcurveto
            91 -84 108 -119 -26 -27 -6 -11 -27 vhcurveto
            -11 12 -8 13 12 148 callgsubr
            return
          </CharString>
          <CharString index="61">
            24 2 22 4 21 7 rrcurveto
            86 28 55 69 90 -59 callsubr
            return
          </CharString>
          <CharString index="62">
            hhcurveto
            -31 -28 11 21 -23 hvcurveto
            return
          </CharString>
          <CharString index="63">
            -5 -60 -13 callsubr
            return
          </CharString>
          <CharString index="64">
            -12 callsubr
            -34 2 8 -18 hvcurveto
            return
          </CharString>
          <CharString index="65">
            -32 27 -141 -110 -140 110 -33 -27 121 -152 rlineto
            return
          </CharString>
          <CharString index="66">
            -49 2 -56 25 52 vvcurveto
            33 26 29 35 return
          </CharString>
          <CharString index="67">
            -70 callsubr
            264 181 28 callsubr
            -45 -40 29 27 -22 vhcurveto
            -15 21 -21 21 -27 20 rrcurveto
            129 callgsubr
            321 180 callsubr
            -614 -75 callgsubr
            88 140 56 134 33 hvcurveto
            64 -78 79 -90 63 -73 81 50 rcurveline
            -59 59 -71 73 -41 46 rrcurveto
            -1 callgsubr
            487 284 rmoveto
            -331 37 callsubr
            128 vlineto
            endchar
          </CharString>
          <CharString index="68">
            -97 callgsubr
            323 -32 callsubr
            return
          </CharString>
          <CharString index="69">
            188 callsubr
            -180 hlineto
            -57 42 -61 54 -44 vhcurveto
            -39 47 56 -26 44 hhcurveto
            91 53 57 98 hvcurveto
            252 return
          </CharString>
          <CharString index="70">
            rmoveto
            -3 -19 -1 -26 -18 vvcurveto
            28 33 -2 -9 27 hvcurveto
            -163 vlineto
            -12 -26 -30 -8 -32 hhcurveto
            -108 -73 75 189 155 77 89 107 85 55 -50 -83 19 hvcurveto
            16 -1 22 -1 13 1 14 71 7 57 3 56 rrcurveto
            21 -67 -71 14 -95 hhcurveto
            -183 -173 -129 -215 -211 149 -122 169 60 49 16 24 44 hvcurveto
            21 -27 rlineto
            86 204 hlineto
            46 35 6 32 9 vhcurveto
            4 18 2 25 -1 20 rrcurveto
            endchar
          </CharString>
          <CharString index="71">
            rmoveto
            -7 -51 -2 -43 -47 vvcurveto
            -7 12 14 -2 12 hhcurveto
            71 14 24 18 46 hhcurveto
            98 hlineto
            -228 -313 -5 -28 3 -37 7 -22 rlinecurve
            378 hlineto
            7 53 3 42 -1 48 rrcurveto
            5 -12 -14 3 -11 hhcurveto
            -71 -15 -23 -18 -48 hhcurveto
            -101 hlineto
            225 313 5 28 -3 37 -6 21 rlinecurve
            return
          </CharString>
          <CharString index="72">
            -89 callgsubr
            217 vlineto
            61 22 33 29 35 hhcurveto
            37 28 return
          </CharString>
          <CharString index="73">
            rmoveto
            13 callgsubr
            161 callsubr
            return
          </CharString>
          <CharString index="74">
            -49 -42 -37 -48 hhcurveto
            -25 -14 24 256 callgsubr
            176 -25 callsubr
            -631 240 callsubr
            -76 -117 hlineto
            20 callgsubr
            return
          </CharString>
          <CharString index="75">
            -60 callsubr
            90 25 72 64 70 vvcurveto
            20 return
          </CharString>
          <CharString index="76">
            239 callsubr
            -12 9 14 -16 vhcurveto
            57 -46 -27 52 -67 hhcurveto
            -27 -23 -12 -15 -18 hvcurveto
            1 36 2 29 1 28 rrcurveto
            254 hlineto
            return
          </CharString>
          <CharString index="77">
            43 39 21 25 29 return
          </CharString>
          <CharString index="78">
            hlineto
            42 -9 29 -31 28 vhcurveto
            -61 53 rlineto
            32 -36 -28 7 -37 hhcurveto
            return
          </CharString>
          <CharString index="79">
            18 callsubr
            -47 -33 -62 -28 -33 -19 return
          </CharString>
          <CharString index="80">
            hlineto
            10 13 2 11 hhcurveto
            -7 -10 -5 -24 -12 174 callgsubr
            return
          </CharString>
          <CharString index="81">
            rmoveto
            58 37 34 64 65 vvcurveto
            65 -38 37 -40 -32 -23 -23 -30 vhcurveto
            -45 47 -14 -49 vvcurveto
            -35 -14 -24 -29 -24 vhcurveto
            return
          </CharString>
          <CharString index="82">
            hlineto
            -34 callgsubr
            return
          </CharString>
          <CharString index="83">
            40 23 0 -44 callgsubr
            return
          </CharString>
          <CharString index="84">
            rmoveto
            214 callsubr
            -184 172 -117 236 callsubr
            -53 -61 -38 17 -31 21 -26 hvcurveto
            78 callgsubr
            165 201 183 hlineto
            -285 -403 35 callgsubr
            return
          </CharString>
          <CharString index="85">
            -73 -93 103 -116 82 hvcurveto
            0 callgsubr
            return
          </CharString>
          <CharString index="86">
            hhcurveto
            -35 -31 15 43 44 42 42 68 10 hvcurveto
            93 hlineto
            -72 105 rlineto
            return
          </CharString>
          <CharString index="87">
            rlineto
            -16 callgsubr
            return
          </CharString>
          <CharString index="88">
            hlineto
            62 -104 rlineto
            89 -277 hlineto
            -24 4 -10 21 -17 vhcurveto
            234 -186 rlineto
            30 -25 13 -14 -17 vvcurveto
            -13 -14 -19 -23 -21 vhcurveto
            105 -83 rlineto
            27 25 24 36 43 vvcurveto
            35 -20 41 -41 31 vhcurveto
            -194 152 rlineto
            -34 26 -2 16 43 vvcurveto
            258 159 -180 vlineto
            -44 -24 -20 -54 -31 vhcurveto
            96 -96 rlineto
            72 44 40 53 88 vvcurveto
            186 137 vlineto
            return
          </CharString>
          <CharString index="89">
            -97 callgsubr
            40 hlineto
            7 22 2 8 hhcurveto
            -5 -11 -5 -17 -18 vvcurveto
            -42 37 -33 30 -22 vhcurveto
            -38 -21 -22 -35 -42 vvcurveto
            return
          </CharString>
          <CharString index="90">
            -3 -25 -1 -15 24 1 25 0 18 -2 rrcurveto
            return
          </CharString>
          <CharString index="91">
            -53 -29 -79 -84 -74 hhcurveto
            -17 -22 6 26 10 10 9 22 16 hvcurveto
            59 43 20 28 22 vvcurveto
            58 -136 return
          </CharString>
          <CharString index="92">
            -45 -26 26 33 48 53 11 43 29 31 -7 -7 20 hvcurveto
            -36 121 rlineto
            6 -19 -28 5 -23 hhcurveto
            -17 -16 -2 -3 -16 hvcurveto
            -12 12 -7 18 257 callgsubr
            36 27 10 vhcurveto
            return
          </CharString>
          <CharString index="93">
            -157 418 110 rmoveto
            -16 -41 -50 -13 -37 hhcurveto
            -51 -50 32 122 127 43 38 51 42 32 -35 -59 7 hvcurveto
            -3 11 15 -2 11 hhcurveto
            6 37 9 59 1 49 rrcurveto
            18 -42 -42 10 -47 hhcurveto
            -139 -123 -95 -160 return
          </CharString>
          <CharString index="94">
            131 -65 rlineto
            305 vlineto
            return
          </CharString>
          <CharString index="95">
            hlineto
            3 17 2 23 -1 17 rrcurveto
            -18 return
          </CharString>
          <CharString index="96">
            -97 callgsubr
            186 -185 hlineto
            -8 -5 -5 -6 -14 -19 16 23 -23 vhcurveto
            -66 -58 72 -109 94 -123 105 -126 rlinecurve
            84 44 -78 80 -71 84 -34 46 rlinecurve
            return
          </CharString>
          <CharString index="97">
            rmoveto
            -8 -52 0 -74 3 -47 12 -4 31 -3 12 2 rrcurveto
            89 7 27 26 53 hhcurveto
            62 -470 hlineto
            -44 -28 -10 -33 -36 callgsubr
            292 -12 callsubr
            -32 3 7 -19 hvcurveto
            520 62 vlineto
            53 26 -26 -89 8 hvcurveto
            12 -2 31 3 11 4 3 47 0 74 -7 52 rrcurveto
            endchar
          </CharString>
          <CharString index="98">
            hhcurveto
            -99 -60 -56 -77 -73 71 -48 33 -17 hvcurveto
            69 41 rlineto
            -19 10 -29 24 30 vvcurveto
            36 27 17 48 109 150 -100 -80 57 vhcurveto
            -182 143 callgsubr
            return
          </CharString>
          <CharString index="99">
            hhcurveto
            18 28 8 8 19 hvcurveto
            -7 -144 128 -76 -91 callgsubr
          </CharString>
          <CharString index="100">
            17 rrcurveto
            -18 -21 3 7 -17 hvcurveto
            return
          </CharString>
          <CharString index="101">
            27 8 15 22 return
          </CharString>
          <CharString index="102">
            hhcurveto
            85 46 50 77 43 -17 49 -37 35 hvcurveto
            139 -284 hlineto
            return
          </CharString>
          <CharString index="103">
            -10 callgsubr
            571 return
          </CharString>
          <CharString index="104">
            hhcurveto
            -84 -86 callsubr
            67 hlineto
            return
          </CharString>
          <CharString index="105">
            hhcurveto
            113 83 80 77 68 -69 107 -78 hvcurveto
            -49 -42 -37 -48 hhcurveto
            -25 -14 24 23 29 19 17 42 hvcurveto
            return
          </CharString>
          <CharString index="106">
            -88 -3 -60 -12 -65 -23 -5 -15 -3 -25 -1 -16 24 1 25 1 18 -3 rrcurveto
            return
          </CharString>
          <CharString index="107">
            248 callgsubr
            -21 -37 -32 -40 8 callsubr
            154 vlineto
            return
          </CharString>
          <CharString index="108">
            144 callsubr
            -76 -67 -50 -83 -61 33 -61 36 -41 hvcurveto
            -435 -97 callgsubr
            330 -68 -143 hlineto
            -68 -60 -36 -75 -87 112 -125 73 hvcurveto
            66 54 39 33 hhcurveto
            10 5 -13 -10 -54 -93 -40 -80 -3 hvcurveto
            47 -36 -38 36 -30 hhcurveto
            -36 -36 -30 -35 -55 96 -65 73 -15 hvcurveto
            123 -172 83 54 -111 123 rlineto
            99 21 77 68 72 vvcurveto
            82 -87 98 -78 vhcurveto
            -53 -44 -34 -54 hhcurveto
            -21 -8 14 16 31 21 28 41 hvcurveto
            236 188 163 hlineto
            -71 104 rlineto
            -100 hlineto
            -29 29 -24 35 45 vvcurveto
            60 48 35 53 101 callgsubr
            endchar
          </CharString>
          <CharString index="109">
            -175 -156 rcurveline
            96 -69 199 212 -11 77 callsubr
            endchar
          </CharString>
          <CharString index="110">
            130 -72 -20 callsubr
            return
          </CharString>
          <CharString index="111">
            175 30 59 rmoveto
            57 callsubr
            415 hlineto
            93 callgsubr
            -294 hlineto
            -12 -14 -51 -39 -34 -22 callgsubr
            -92 72 -86 44 -16 hvcurveto
            return
          </CharString>
          <CharString index="112">
            -97 callgsubr
            410 -54 callgsubr
            hvcurveto
            return
          </CharString>
          <CharString index="113">
            rmoveto
            -17 27 -18 21 -25 12 71 71 rcurveline
            38 38 34 11 43 hhcurveto
            3 17 0 19 19 vvcurveto
            -239 hlineto
            -4 -12 -2 -16 -18 vvcurveto
            21 -10 26 -7 25 -5 -159 -159 rcurveline
            485 vlineto
            -1 callsubr
            -509 -89 callgsubr
            77 vlineto
            46 46 5 -4 4 -5 5 -8 rlinecurve
            111 -173 rlineto
            191 hlineto
            5 20 2 20 -2 17 -45 2 -19 10 -32 50 rrcurveto
            endchar
          </CharString>
          <CharString index="114">
            349 rmoveto
            -168 182 168 hlineto
            return
          </CharString>
          <CharString index="115">
            hhcurveto
            30 callgsubr
            return
          </CharString>
          <CharString index="116">
            -83 132 -43 rmoveto
            100 -81 135 84 123 54 79 70 rlinecurve
            54 48 33 57 74 vvcurveto
            50 -24 50 -38 38 vhcurveto
            39 -39 -54 27 -56 245 callgsubr
            -29 -37 -52 -7 -24 hhcurveto
            -75 -67 36 51 -38 hvcurveto
            71 15 17 46 55 vvcurveto
            205 341 180 callsubr
            -634 75 callsubr
            215 callsubr
            66 -106 94 -154 148 -22 rlinecurve
            220 188 -70 callsubr
            return
          </CharString>
          <CharString index="117">
            -84 131 -65 rlineto
            -99 callsubr
            return
          </CharString>
          <CharString index="118">
            rmoveto
            -50 -35 -17 -60 -61 -35 17 50 vhcurveto
            -43 hlineto
            -3 -13 -1 -12 -13 vvcurveto
            -83 62 -49 81 81 61 49 83 13 -1 12 -3 13 vhcurveto
            return
          </CharString>
          <CharString index="119">
            28 callgsubr
            111 -75 59 -106 -106 -74 -59 -111 -112 74 -56 106 106 75 56 112 vhcurveto
            -201 496 rmoveto
            -437 -650 rlineto
            84 hlineto
            437 650 rlineto
            -496 -157 153 callgsubr
            112 -95 58 -86 -86 -94 -58 -112 -112 94 -56 86 86 95 56 112 vhcurveto
            endchar
          </CharString>
          <CharString index="120">
            hlineto
            -15 -24 rlineto
            72 -70 43 -68 -57 vvcurveto
            -55 -29 -34 -59 -35 -12 8 0 vhcurveto
            95 -51 -35 75 -33 hhcurveto
            -31 -28 -36 -27 -38 53 -69 68 -49 hvcurveto
            109 -221 77 51 -74 117 rlineto
            -2 11 10 -1 10 hhcurveto
            86 63 62 80 57 -23 50 -37 41 hvcurveto
            return
          </CharString>
          <CharString index="121">
            rmoveto
            -34 -18 24 39 hvcurveto
            190 146 -194 vlineto
            172 callgsubr
            return
          </CharString>
          <CharString index="122">
            rmoveto
            -112 72 82 -63 97 hhcurveto
            104 55 80 71 39 hvcurveto
            -99 75 rlineto
            -61 -32 -47 -59 -66 hhcurveto
            -70 -40 54 56 -39 hvcurveto
            endchar
          </CharString>
          <CharString index="123">
            -110 hlineto
            99 callsubr
            return
          </CharString>
          <CharString index="124">
            80 callsubr
            -10 -5 -6 -5 -2 -8 rrcurveto
            return
          </CharString>
          <CharString index="125">
            -87 callsubr
            -31 -28 -30 -37 -26 vhcurveto
            return
          </CharString>
          <CharString index="126">
            rmoveto
            -96 185 rlineto
            -37 -50 -30 -19 -19 hvcurveto
            -21 vlineto
            162 -139 rlineto
            return
          </CharString>
          <CharString index="127">
            rmoveto
            141 -81 32 27 -141 153 rlineto
            -64 hlineto
            -141 -153 33 -27 rlineto
            return
          </CharString>
          <CharString index="128">
            65 callgsubr
            19 10 -8 -36 24 hvcurveto
            0 vlineto
            69 -101 82 -111 98 -119 30 callsubr
            return
          </CharString>
          <CharString index="129">
            1 20 0 13 -3 19 rrcurveto
            -21 -19 3 4 -17 hvcurveto
            endchar
          </CharString>
          <CharString index="130">
            -107 callgsubr
            116 callsubr
            return
          </CharString>
          <CharString index="131">
            vvcurveto
            -20 callgsubr
            vhcurveto
            85 callgsubr
          </CharString>
          <CharString index="132">
            124 8 84 80 112 64 callsubr
            507 447 rmoveto
            -351 37 callsubr
            148 vlineto
            endchar
          </CharString>
          <CharString index="133">
            204 callsubr
            -104 hlineto
            70 -104 rlineto
            70 86 callsubr
            -128 -13 vlineto
            -43 -2 -15 -14 -25 vvcurveto
            143 callsubr
            vhcurveto
            52 return
          </CharString>
          <CharString index="134">
            rmoveto
            -55 callgsubr
            return
          </CharString>
          <CharString index="135">
            rmoveto
            -59 callgsubr
            return
          </CharString>
          <CharString index="136">
            -162 hlineto
            -101 10 120 -117 94 hhcurveto
            return
          </CharString>
          <CharString index="137">
            -11 callgsubr
            -52 callgsubr
            return
          </CharString>
          <CharString index="138">
            rmoveto
            26 18 -15 -24 -42 -49 -46 -34 -22 hvcurveto
            -25 20 -10 20 32 vvcurveto
            40 38 37 36 vhcurveto
            return
          </CharString>
          <CharString index="139">
            93 -29 callsubr
            -116 hlineto
            70 -104 rlineto
            82 255 callsubr
            -39 -14 -17 -24 83 callgsubr
            return
          </CharString>
          <CharString index="140">
            163 callsubr
            endchar
          </CharString>
          <CharString index="141">
            -1 208 rlineto
            111 -159 127 -137 -49 -42 -8 -13 -35 vhcurveto
            -13 13 -10 14 14 148 callgsubr
            274 169 243 -25 callsubr
            -749 -97 callgsubr
            380 -56 -204 hlineto
            -76 -44 -33 -66 -40 22 -46 53 -52 hvcurveto
            -45 -38 -22 -53 -57 vvcurveto
            -193 258 -149 45 -24 vhcurveto
            67 43 rlineto
            -37 17 -224 114 139 vvcurveto
            92 64 61 137 return
          </CharString>
          <CharString index="142">
            rmoveto
            200 182 84 callgsubr
            return
          </CharString>
          <CharString index="143">
            82 callsubr
            vhcurveto
            118 callgsubr
          </CharString>
          <CharString index="144">
            hlineto
            58 -104 rlineto
            73 -62 callgsubr
            return
          </CharString>
          <CharString index="145">
            12 callgsubr
            -329 hlineto
            -99 callgsubr
            149 hlineto
            -134 54 75 -120 113 hhcurveto
            85 46 50 77 43 -17 49 -37 35 hvcurveto
            return
          </CharString>
          <CharString index="146">
            -97 callgsubr
            486 123 callgsubr
            -11 8 12 -14 vhcurveto
            -7 7 -8 6 -6 6 rrcurveto
            14 -16 -25 0 -28 hhcurveto
            -219 hlineto
            -85 callsubr
            132 vlineto
            8 7 0 -1 6 hvcurveto
            66 -96 78 -105 92 -111 30 callsubr
            return
          </CharString>
          <CharString index="147">
            69 callsubr
            68 21 94 51 87 vvcurveto
            20 -8 32 -16 25 vhcurveto
            -6 23 21 -3 20 hhcurveto
            36 34 10 26 35 hvcurveto
            return
          </CharString>
          <CharString index="148">
            635 rmoveto
            -377 116 callgsubr
            86 -180 -156 93 -29 callsubr
            return
          </CharString>
          <CharString index="149">
            130 62 -92 -171 -170 -62 -92 -122 hvcurveto
            -277 587 224 callsubr
            return
          </CharString>
          <CharString index="150">
            37 187 callsubr
            -37 -37 -30 -31 -37 -36 30 -31 37 hvcurveto
            return
          </CharString>
          <CharString index="151">
            125 callsubr
            571 162 vlineto
            endchar
          </CharString>
          <CharString index="152">
            256 188 rmoveto
            24 2 22 4 21 7 rrcurveto
            86 28 55 69 90 64 callsubr
            return
          </CharString>
          <CharString index="153">
            -21 callsubr
            -376 hlineto
            return
          </CharString>
          <CharString index="154">
            -35 45 53 -24 42 hhcurveto
            91 53 57 98 hvcurveto
            252 111 -494 7 callgsubr
          </CharString>
          <CharString index="155">
            rmoveto
            38 31 31 37 37 -31 32 -38 -37 -31 -32 -37 -37 31 -31 37 hvcurveto
            return
          </CharString>
          <CharString index="156">
            rmoveto
            37 -29 31 -35 -34 -29 -31 -37 -36 29 -31 34 223 callgsubr
            vhcurveto
            -179 hmoveto
            37 -30 31 -35 -33 -30 -31 -37 -36 30 -31 33 35 30 31 36 vhcurveto
            endchar
          </CharString>
          <CharString index="157">
            -274 hlineto
            -102 callsubr
            -35 -39 -12 -28 -28 hvcurveto
            return
          </CharString>
          <CharString index="158">
            rmoveto
            -29 18 -13 37 28 vvcurveto
            40 32 33 42 33 25 -17 -35 -36 -69 -53 -21 -15 vhcurveto
            return
          </CharString>
          <CharString index="159">
            rmoveto
            57 -10 128 149 rlineto
            19 vlineto
            -33 16 -31 7 -43 2 rrcurveto
            72 -183 rmoveto
            57 -10 227 callgsubr
            rrcurveto
            endchar
          </CharString>
          <CharString index="160">
            hhcurveto
            -36 -40 -14 -25 -42 hvcurveto
            83 -114 rlineto
            19 26 25 11 21 hhcurveto
            return
          </CharString>
          <CharString index="161">
            -41 -104 callgsubr
            return
          </CharString>
          <CharString index="162">
            -104 callgsubr
            18 return
          </CharString>
          <CharString index="163">
            rmoveto
            144 -152 rlineto
            -22 -23 -34 -10 -31 221 callsubr
            174 197 rmoveto
            -153 vlineto
            -3 -1 -3 -3 vvcurveto
            -39 42 -76 84 -34 36 rrcurveto
            return
          </CharString>
          <CharString index="164">
            94 -100 207 150 -5 10 callsubr
            return
          </CharString>
          <CharString index="165">
            3 -230 -19 -30 -22 -25 -23 -19 51 callgsubr
            return
          </CharString>
          <CharString index="166">
            124 callgsubr
            49 46 19 34 37 vhcurveto
            156 callsubr
            return
          </CharString>
          <CharString index="167">
            hhcurveto
            73 65 34 30 35 hvcurveto
            -4 -44 126 -71 -91 callgsubr
          </CharString>
          <CharString index="168">
            94 callsubr
            endchar
          </CharString>
          <CharString index="169">
            435 52 callgsubr
            -637 hlineto
            62 -104 rlineto
            325 130 callsubr
            return
          </CharString>
          <CharString index="170">
            -16 rrcurveto
            18 34 -3 -8 18 hvcurveto
            -381 vlineto
            return
          </CharString>
          <CharString index="171">
            -59 callsubr
            39 53 rlineto
            -59 callgsubr
            -36 -30 28 28 -27 vhcurveto
            -66 -59 62 -87 131 -149 96 -111 rlinecurve
            81 50 -59 59 -71 73 -41 46 rlinecurve
            return
          </CharString>
          <CharString index="172">
            220 callsubr
            127 -159 70 46 return
          </CharString>
          <CharString index="173">
            3 -230 -19 -30 -22 -25 -23 -19 rlinecurve
            -56 -35 115 callgsubr
            return
          </CharString>
          <CharString index="174">
            46 -6 callsubr
            return
          </CharString>
          <CharString index="175">
            144 callsubr
            -77 -50 -68 -116 28 hvcurveto
            37 -26 -50 101 -87 53 callsubr
            74 56 -121 -85 43 hvcurveto
            66 34 rlineto
            -24 41 -29 66 50 vvcurveto
            60 45 32 53 101 callgsubr
            endchar
          </CharString>
          <CharString index="176">
            -97 callgsubr
            322 -60 callsubr
            return
          </CharString>
          <CharString index="177">
            -15 vlineto
            -173 219 callsubr
            110 -70 90 49 41 19 28 35 hvcurveto
            -31 22 38 -18 47 hhcurveto
            56 29 29 35 31 hvcurveto
            return
          </CharString>
          <CharString index="178">
            rlineto
            571 158 vlineto
            return
          </CharString>
          <CharString index="179">
            102 callsubr
            140 -19 -60 227 -146 133 callsubr
            return
          </CharString>
          <CharString index="180">
            -718 -97 callgsubr
            167 80 callsubr
            return
          </CharString>
          <CharString index="181">
            -40 501 531 rmoveto
            127 -25 callsubr
            -642 109 callsubr
            return
          </CharString>
          <CharString index="182">
            -97 callgsubr
            165 return
          </CharString>
          <CharString index="183">
            hhcurveto
            -49 -37 29 47 55 51 28 45 14 22 -1 -10 21 hvcurveto
            -39 121 rlineto
            11 -24 -26 4 -25 hhcurveto
            -58 -68 -34 -84 -15 hvcurveto
            return
          </CharString>
          <CharString index="184">
            -140 3 callsubr
            return
          </CharString>
          <CharString index="185">
            hhcurveto
            93 callsubr
            return
          </CharString>
          <CharString index="186">
            -41 -63 18 callsubr
            return
          </CharString>
          <CharString index="187">
            hlineto
            -84 callgsubr
            return
          </CharString>
          <CharString index="188">
            -70 -64 -56 -77 -98 86 -61 81 -16 hvcurveto
            -22 -25 -39 -14 -49 hhcurveto
            -75 -67 36 51 -38 hvcurveto
            71 15 17 46 55 vvcurveto
            205 return
          </CharString>
          <CharString index="189">
            -124 132 -121 93 55 47 31 26 28 return
          </CharString>
          <CharString index="190">
            383 rmoveto
            47 -37 -55 52 -80 hhcurveto
            return
          </CharString>
          <CharString index="191">
            -62 104 rlineto
            -605 hlineto
            62 -104 rlineto
            316 139 callsubr
            -46 16 -46 27 -41 hvcurveto
            -148 vlineto
            -47 -21 -13 -29 -57 93 -95 44 27 13 15 63 hvcurveto
            159 vlineto
            16 -9 19 -9 20 -7 19 -6 20 -4 18 -1 return
          </CharString>
          <CharString index="192">
            -279 hlineto
            -15 -24 rlineto
            71 -68 28 -59 -36 vvcurveto
            -38 -20 -19 -36 return
          </CharString>
          <CharString index="193">
            hlineto
            24 17 -17 -23 hvcurveto
            return
          </CharString>
          <CharString index="194">
            -316 214 106 callgsubr
            return
          </CharString>
          <CharString index="195">
            44 28 10 35 190 callgsubr
            return
          </CharString>
          <CharString index="196">
            -97 callgsubr
            447 -101 -469 135 callsubr
            122 -278 hlineto
            125 -71 rlineto
            return
          </CharString>
          <CharString index="197">
            rmoveto
            -58 -37 -34 -64 -65 vvcurveto
            -65 38 -37 40 32 23 23 30 vhcurveto
            45 -47 14 49 vvcurveto
            35 14 24 29 24 vhcurveto
            return
          </CharString>
          <CharString index="198">
            -156 154 -129 145 136 69 75 108 89 -62 74 -64 39 return
          </CharString>
          <CharString index="199">
            146 callsubr
            -69 36 -69 53 -52 hvcurveto
            return
          </CharString>
          <CharString index="200">
            -33 -26 -7 -11 -20 hvcurveto
            1 107 rlineto
            return
          </CharString>
          <CharString index="201">
            rlineto
            571 163 vlineto
            return
          </CharString>
          <CharString index="202">
            hhcurveto
            -35 -29 14 26 18 18 11 14 9 203 callgsubr
            46 88 vvcurveto
            73 -98 134 -108 -60 -68 -41 -72 -45 30 -46 39 -39 vhcurveto
            59 38 rlineto
            -11 11 -13 19 20 vvcurveto
            34 29 25 35 25 34 -21 -36 return
          </CharString>
          <CharString index="203">
            109 callsubr
            -38 22 -41 31 -37 vhcurveto
            -55 -20 -41 -49 -72 vvcurveto
            -78 38 -71 57 -51 vhcurveto
            -51 57 74 -31 73 hhcurveto
            136 69 84 99 79 -49 59 -55 40 hvcurveto
            44 31 31 46 50 vvcurveto
            return
          </CharString>
          <CharString index="204">
            hlineto
            -67 -32 -27 -45 -45 vvcurveto
            -56 56 -37 65 55 30 29 35 30 vhcurveto
            endchar
          </CharString>
          <CharString index="205">
            51 2 23 38 31 hhcurveto
            24 11 -17 -21 -51 -54 -42 -68 -69 -68 60 63 -51 hvcurveto
            -57 -40 rlineto
            -88 63 111 -100 117 hhcurveto
            118 58 78 73 33 -21 46 -33 38 hvcurveto
            38 -33 -45 30 -44 hhcurveto
            return
          </CharString>
          <CharString index="206">
            21 -31 -34 14 -31 -83 callgsubr
            return
          </CharString>
          <CharString index="207">
            -5 -15 -3 -25 -1 -15 24 1 return
          </CharString>
          <CharString index="208">
            68 45 rcurveline
            -78 callgsubr
            return
          </CharString>
          <CharString index="209">
            826 8 callgsubr
            return
          </CharString>
          <CharString index="210">
            148 callsubr
            -30 callsubr
            vhcurveto
            -91 callsubr
          </CharString>
          <CharString index="211">
            -99 callgsubr
            58 hlineto
            return
          </CharString>
          <CharString index="212">
            rmoveto
            144 callgsubr
            31 18 29 49 24 hvcurveto
            return
          </CharString>
          <CharString index="213">
            -15 callsubr
            190 return
          </CharString>
          <CharString index="214">
            -2 -24 1 -16 return
          </CharString>
          <CharString index="215">
            207 callgsubr
            -75 -42 46 56 70 55 25 79 105 101 78 91 hvcurveto
            return
          </CharString>
          <CharString index="216">
            151 callsubr
            -147 hlineto
            return
          </CharString>
          <CharString index="217">
            -55 -48 -47 -20 -61 hhcurveto
            -63 -44 30 69 70 45 37 69 hvcurveto
            147 209 177 hlineto
            193 callsubr
            -92 return
          </CharString>
          <CharString index="218">
            113 callsubr
            62 return
          </CharString>
          <CharString index="219">
            rmoveto
            -141 153 rlineto
            -64 hlineto
            -141 -153 33 -27 140 81 141 -81 rlineto
            endchar
          </CharString>
          <CharString index="220">
            -101 callsubr
            117 -41 rlineto
            -27 callgsubr
            59 25 56 return
          </CharString>
          <CharString index="221">
            170 509 rmoveto
            49 38 39 48 49 -38 39 -49 -48 -40 -39 -49 -48 40 -39 48 hvcurveto
            return
          </CharString>
          <CharString index="222">
            67 -104 rlineto
            128 return
          </CharString>
          <CharString index="223">
            219 104 rmoveto
            return
          </CharString>
          <CharString index="224">
            24 17 -17 -23 hvcurveto
            -141 vlineto
            -52 -19 -14 -27 83 callgsubr
            247 callsubr
            130 -77 153 callsubr
          </CharString>
          <CharString index="225">
            130 -72 rlineto
            return
          </CharString>
          <CharString index="226">
            29 19 8 9 19 hvcurveto
            -44 callsubr
            return
          </CharString>
          <CharString index="227">
            rmoveto
            227 callgsubr
            -109 -183 rcurveline
            35 139 rmoveto
            19 vlineto
            -33 16 -31 7 -43 2 -78 -183 rcurveline
            57 -10 rlineto
            return
          </CharString>
          <CharString index="228">
            144 callsubr
            -76 -73 -68 -89 -76 38 -71 40 -38 hvcurveto
            44 36 rlineto
            -16 25 -9 36 29 vvcurveto
            63 40 61 71 101 callgsubr
            endchar
          </CharString>
          <CharString index="229">
            5 102 callgsubr
            return
          </CharString>
          <CharString index="230">
            hlineto
            133 callgsubr
            return
          </CharString>
          <CharString index="231">
            68 79 75 40 75 hhcurveto
            38 38 -10 -22 39 hvcurveto
            -162 -108 rlineto
            -29 -19 -6 -19 -15 vvcurveto
            -57 84 -36 64 31 17 12 16 11 -3 9 -44 61 vhcurveto
            return
          </CharString>
          <CharString index="232">
            -72 callgsubr
            148 callsubr
            -30 callsubr
            vhcurveto
            -5 -98 -10 callgsubr
            return
          </CharString>
          <CharString index="233">
            rmoveto
            -19 -22 9 19 -25 hvcurveto
            6 17 7 16 6 16 rrcurveto
            70 28 18 55 52 hhcurveto
            return
          </CharString>
          <CharString index="234">
            vlineto
            -72 callgsubr
            return
          </CharString>
          <CharString index="235">
            vlineto
            -19 -4 -18 -7 -17 -9 138 callsubr
            19 0 -4 199 callgsubr
            return
          </CharString>
          <CharString index="236">
            155 callgsubr
            153 vlineto
            endchar
          </CharString>
          <CharString index="237">
            -80 -79 hlineto
            92 callsubr
            return
          </CharString>
          <CharString index="238">
            120 callgsubr
            188 -20 vlineto
            -240 -203 94 -66 146 153 rlineto
            -76 vlineto
            130 -72 153 callsubr
          </CharString>
          <CharString index="239">
            101 callgsubr
            27 53 rlineto
            26 -33 return
          </CharString>
          <CharString index="240">
            hhcurveto
            -23 -28 -3 -12 -25 hvcurveto
            return
          </CharString>
          <CharString index="241">
            -47 -35 -32 -40 -26 hvcurveto
            46 -51 -49 28 -51 hhcurveto
            -97 -85 -85 -103 -107 142 -139 87 57 39 26 47 30 hvcurveto
            -48 52 51 -25 50 hhcurveto
            return
          </CharString>
          <CharString index="242">
            hlineto
            72 -113 82 5 rlineto
            -10 -10 -5 -19 -12 31 callgsubr
            return
          </CharString>
          <CharString index="243">
            vvcurveto
            -171 172 -121 236 callsubr
            -49 -61 -38 17 -35 21 -26 vhcurveto
            -65 6 -60 56 67 vvcurveto
            return
          </CharString>
          <CharString index="244">
            6 -11 7 -10 8 -10 rrcurveto
            -48 -9 -65 -25 -79 vvcurveto
            return
          </CharString>
          <CharString index="245">
            -2 -12 -1 -24 1 -14 rrcurveto
            19 return
          </CharString>
          <CharString index="246">
            -60 145 callsubr
            return
          </CharString>
          <CharString index="247">
            15 14 -2 -5 12 return
          </CharString>
          <CharString index="248">
            -44 -28 -13 -34 return
          </CharString>
          <CharString index="249">
            -34 callgsubr
            73 callsubr
            -16 -8 -4 -8 -18 vvcurveto
            return
          </CharString>
          <CharString index="250">
            -56 117 -111 67 callsubr
            return
          </CharString>
          <CharString index="251">
            rmoveto
            131 callgsubr
            return
          </CharString>
          <CharString index="252">
            -79 hlineto
            146 callsubr
            return
          </CharString>
          <CharString index="253">
            -127 -51 -69 -90 return
          </CharString>
          <CharString index="254">
            187 callgsubr
            143 vlineto
            return
          </CharString>
          <CharString index="255">
            -79 163 -165 103 return
          </CharString>
          <CharString index="256">
            139 callgsubr
            33 -3 -8 19 203 callsubr
            return
          </CharString>
          <CharString index="257">
            -625 hlineto
            68 -104 rlineto
            315 -69 -74 hlineto
            -91 -79 -54 -112 return
          </CharString>
          <CharString index="258">
            -97 callgsubr
            83 return
          </CharString>
          <CharString index="259">
            rmoveto
            -61 -22 -22 -54 -48 hhcurveto
            -36 -31 26 51 77 49 44 65 22 22 -11 -16 20 hvcurveto
            -8 -20 -5 -17 -6 -19 rrcurveto
            return
          </CharString>
          <CharString index="260">
            221 callgsubr
            endchar
          </CharString>
          <CharString index="261">
            -34 callsubr
            -319 -185 rmoveto
            87 callgsubr
            return
          </CharString>
          <CharString index="262">
            hhcurveto
            -45 -26 26 33 48 53 11 43 29 31 -7 -7 20 hvcurveto
            return
          </CharString>
          <CharString index="263">
            -6 -85 158 callsubr
            return
          </CharString>
          <CharString index="264">
            89 callgsubr
            vlineto
            return
          </CharString>
          <CharString index="265">
            130 -77 -20 callsubr
            return
          </CharString>
          <CharString index="266">
            -124 142 -114 99 return
          </CharString>
          <CharString index="267">
            222 callsubr
            52 return
          </CharString>
          <CharString index="268">
            180 189 vlineto
            return
          </CharString>
          <CharString index="269">
            hhcurveto
            -37 -23 5 4 -21 hvcurveto
            3 -19 -18 2 -25 37 callgsubr
            return
          </CharString>
          <CharString index="270">
            161 callgsubr
            hvcurveto
            -32 callgsubr
            return
          </CharString>
          <CharString index="271">
            68 473 37 rmoveto
            -4 callsubr
            153 vlineto
            -63 104 rlineto
            -777 242 callsubr
            494 return
          </CharString>
          <CharString index="272">
            hlineto
            -53 -27 15 52 -7 hvcurveto
            -55 -3 -5 -65 0 -62 5 -65 rlinecurve
            55 -3 rlineto
            52 7 27 15 53 hhcurveto
            return
          </CharString>
          <CharString index="273">
            -208 114 callgsubr
            return
          </CharString>
          <CharString index="274">
            -196 -155 -132 -218 -218 155 -132 196 195 154 132 218 return
          </CharString>
          <CharString index="275">
            rlineto
            91 -147 147 -101 -37 -38 -9 -15 -36 vhcurveto
            -15 13 -11 16 15 148 callgsubr
            return
          </CharString>
          <CharString index="276">
            31 callsubr
            endchar
          </CharString>
          <CharString index="277">
            hlineto
            53 -104 rlineto
            94 -57 callsubr
            endchar
          </CharString>
          <CharString index="278">
            -2 -16 2 -22 4 -17 return
          </CharString>
          <CharString index="279">
            28 433 32 rmoveto
            235 callsubr
            -740 hlineto
            67 -104 rlineto
            return
          </CharString>
          <CharString index="280">
            35 callgsubr
            endchar
          </CharString>
          <CharString index="281">
            -73 -66 52 72 67 49 27 99 23 16 2 4 16 return
          </CharString>
          <CharString index="282">
            45 -24 vhcurveto
            67 48 rlineto
            -37 17 return
          </CharString>
          <CharString index="283">
            22 3 28 31 vvcurveto
            -47 -7 return
          </CharString>
          <CharString index="284">
            94 -66 194 209 213 callsubr
            return
          </CharString>
          <CharString index="285">
            -140 hlineto
            -53 37 -57 49 -44 vhcurveto
            -43 49 61 -30 47 hhcurveto
            91 53 57 98 hvcurveto
            212 return
          </CharString>
          <CharString index="286">
            98 rmoveto
            140 callgsubr
            233 callgsubr
            13 6 -6 -9 -33 -35 -36 -38 -13 vhcurveto
            return
          </CharString>
          <CharString index="287">
            vlineto
            -34 callgsubr
            return
          </CharString>
          <CharString index="288">
            -19 callgsubr
            14 217 rmoveto
            return
          </CharString>
          <CharString index="289">
            404 28 callsubr
            return
          </CharString>
          <CharString index="290">
            195 128 100 159 159 126 -100 -195 -195 -126 -100 -159 return
          </CharString>
          <CharString index="291">
            130 -72 218 callgsubr
            return
          </CharString>
          <CharString index="292">
            rmoveto
            -130 77 rlineto
            -598 vlineto
            -10 callgsubr
            return
          </CharString>
          <CharString index="293">
            rlineto
            231 callsubr
            return
          </CharString>
          <CharString index="294">
            30 31 36 37 -30 31 return
          </CharString>
          <CharString index="295">
            -97 callgsubr
            79 return
          </CharString>
          <CharString index="296">
            -82 110 rlineto
            return
          </CharString>
          <CharString index="297">
            38 callgsubr
            72 -41 74 -55 40 vhcurveto
            return
          </CharString>
          <CharString index="298">
            -104 430 689 rmoveto
            -420 -726 rlineto
            61 hlineto
            420 726 rlineto
            endchar
          </CharString>
          <CharString index="299">
            hhcurveto
            49 46 19 34 37 hvcurveto
            230 callgsubr
          </CharString>
          <CharString index="300">
            -68 104 rlineto
            -628 hlineto
            68 -104 rlineto
            321 -89 -74 hlineto
            -91 -83 -55 -112 return
          </CharString>
          <CharString index="301">
            hlineto
            -76 -44 -33 -66 -41 23 -49 57 -53 hvcurveto
            -38 -33 -26 -44 -50 vvcurveto
            -193 return
          </CharString>
          <CharString index="302">
            -2 -16 -9 -3 -12 hhcurveto
            -15 -15 11 38 hvcurveto
            return
          </CharString>
          <CharString index="303">
            220 callsubr
            rlineto
            return
          </CharString>
          <CharString index="304">
            hhcurveto
            -47 -63 -17 -56 -61 hvcurveto
            return
          </CharString>
          <CharString index="305">
            29 19 9 11 19 return
          </CharString>
          <CharString index="306">
            195 callgsubr
            147 189 180 hlineto
            return
          </CharString>
          <CharString index="307">
            rmoveto
            184 -210 56 30 -115 180 115 180 -56 28 rlineto
            return
          </CharString>
          <CharString index="308">
            7 176 callsubr
            return
          </CharString>
          <CharString index="309">
            17 -26 2 -36 7 -24 9 rrcurveto
            return
          </CharString>
          <CharString index="310">
            hvcurveto
            -466 vlineto
            -44 -79 callsubr
            return
          </CharString>
          <CharString index="311">
            80 -29 callsubr
            return
          </CharString>
          <CharString index="312">
            202 callgsubr
            -62 -49 return
          </CharString>
          <CharString index="313">
            32 -250 rlineto
            56 hlineto
            31 250 rlineto
            return
          </CharString>
          <CharString index="314">
            -40 rmoveto
            232 callsubr
            return
          </CharString>
          <CharString index="315">
            -117 hlineto
            -86 -45 return
          </CharString>
          <CharString index="316">
            hhcurveto
            -35 -50 11 32 -41 hvcurveto
            -41 -53 rlineto
            -71 65 72 -33 66 hhcurveto
            return
          </CharString>
          <CharString index="317">
            vhcurveto
            -4 -31 0 -30 1 -31 rrcurveto
            -1 7 17 0 8 hhcurveto
            38 8 return
          </CharString>
          <CharString index="318">
            -47 -26 26 37 66 104 -4 13 -5 hvcurveto
            14 -6 17 -7 17 -4 return
          </CharString>
          <CharString index="319">
            hlineto
            116 -54 -75 134 -126 hhcurveto
            -36 -40 -14 -25 -42 hvcurveto
            return
          </CharString>
          <CharString index="320">
            225 callsubr
            46 hhcurveto
            return
          </CharString>
          <CharString index="321">
            -617 -97 callgsubr
            304 -85 -94 hlineto
            -110 -63 -72 -90 return
          </CharString>
          <CharString index="322">
            -181 hlineto
            -12 -6 -4 -9 -14 -21 12 24 -24 vhcurveto
            -59 -53 return
          </CharString>
          <CharString index="323">
            -97 callgsubr
            76 -147 hlineto
            -77 101 -108 72 -14 vhcurveto
            return
          </CharString>
          <CharString index="324">
            6 vhcurveto
            141 callgsubr
            17 rrcurveto
            return
          </CharString>
          <CharString index="325">
            71 callsubr
            -68 104 rlineto
            return
          </CharString>
          <CharString index="326">
            -123 -95 -160 -160 return
          </CharString>
          <CharString index="327">
            104 -83 141 159 return
          </CharString>
          <CharString index="328">
            hhcurveto
            -36 -20 17 42 hvcurveto
            return
          </CharString>
          <CharString index="329">
            -6 callsubr
            hvcurveto
            return
          </CharString>
          <CharString index="330">
            hlineto
            24 -13 17 -33 -19 vvcurveto
            -26 -19 -14 -114 -58 vhcurveto
            return
          </CharString>
          <CharString index="331">
            rmoveto
            139 callgsubr
            33 -3 -8 19 hvcurveto
            return
          </CharString>
          <CharString index="332">
            237 callsubr
            42 32 return
          </CharString>
          <CharString index="333">
            -104 64 rlineto
            -64 -12 -20 -14 -27 hhcurveto
            -23 -20 17 26 return
          </CharString>
          <CharString index="334">
            -134 148 -146 127 161 callgsubr
            return
          </CharString>
          <CharString index="335">
            -34 -19 -27 -25 -41 hhcurveto
            -29 -26 16 34 24 18 22 return
          </CharString>
          <CharString index="336">
            -73 -34 -37 -7 -12 -33 vhcurveto
            -19 14 -14 18 17 vvcurveto
            return
          </CharString>
          <CharString index="337">
            -54 247 callgsubr
            return
          </CharString>
          <CharString index="338">
            571 161 vlineto
            -71 104 rlineto
            return
          </CharString>
          <CharString index="339">
            571 163 180 callsubr
            return
          </CharString>
          <CharString index="340">
            83 -89 77 -68 return
          </CharString>
          <CharString index="341">
            24 18 37 27 9 vhcurveto
            109 -25 callsubr
            return
          </CharString>
          <CharString index="342">
            130 -72 218 callsubr
            return
          </CharString>
          <CharString index="343">
            119 205 callsubr
            return
          </CharString>
          <CharString index="344">
            -7 -147 130 -71 rlineto
            64 callgsubr
            return
          </CharString>
          <CharString index="345">
            vlineto
            246 callgsubr
          </CharString>
          <CharString index="346">
            rmoveto
            87 callgsubr
            -11 return
          </CharString>
          <CharString index="347">
            -97 callgsubr
            332 return
          </CharString>
          <CharString index="348">
            -61 hhcurveto
            -60 -47 43 56 return
          </CharString>
          <CharString index="349">
            hlineto
            64 -104 rlineto
            return
          </CharString>
          <CharString index="350">
            3 -23 hhcurveto
            -17 return
          </CharString>
          <CharString index="351">
            31 83 -72 37 120 callgsubr
            return
          </CharString>
          <CharString index="352">
            hlineto
            -30 -149 rlineto
            100 hlineto
            30 149 rlineto
            return
          </CharString>
          <CharString index="353">
            -74 hlineto
            -106 -68 -55 -111 return
          </CharString>
          <CharString index="354">
            154 -194 vlineto
            return
          </CharString>
          <CharString index="355">
            67 vvcurveto
            74 51 return
          </CharString>
          <CharString index="356">
            -87 109 -105 82 70 39 43 70 12 return
          </CharString>
          <CharString index="357">
            -25 callsubr
            -676 -97 callgsubr
            return
          </CharString>
          <CharString index="358">
            -46 -52 -15 -44 -53 hvcurveto
            169 309 return
          </CharString>
          <CharString index="359">
            -40 rmoveto
            -16 callgsubr
            -72 104 rlineto
            return
          </CharString>
          <CharString index="360">
            -29 94 callgsubr
            return
          </CharString>
          <CharString index="361">
            25 26 -18 19 -26 -25 -19 -19 -26 vhcurveto
            return
          </CharString>
          <CharString index="362">
            89 callgsubr
            -18 vlineto
            return
          </CharString>
          <CharString index="363">
            rmoveto
            30 callgsubr
            154 return
          </CharString>
        <CharString name=".notdef">
          151 160 -40 rmoveto
          436 701 -436 hlineto
          81 -76 rmoveto
          275 -549 -275 hlineto
          endchar
        </CharString>
        <CharString name="A">
          47 214 293 -96 callsubr
        </CharString>
        <CharString name="AE">
          315 320 293 rmoveto
          68 98 45 76 rlineto
          -174 vlineto
          160 -230 rmoveto
          229 vlineto
          132 -9 rlineto
          44 88 -44 hlineto
          -132 -14 rlineto
          231 134 vlineto
          72 -26 callgsubr
          -511 hlineto
          -4 145 callgsubr
          31 -2 -8 19 hvcurveto
          -314 -456 -28 -40 -33 -19 -50 -7 rlinecurve
          -3 -19 -2 -23 1 -20 rrcurveto
          234 hlineto
          3 20 1 21 21 vvcurveto
          -23 -22 8 11 -20 hvcurveto
          99 143 rlineto
          160 -107 hlineto
          -49 callgsubr
          521 -25 callgsubr
        </CharString>
        <CharString name="Aacute">
          47 497 828 -28 callgsubr
          -121 -395 -96 callsubr
        </CharString>
        <CharString name="Abreve">
          47 420 884 11 callsubr
          -249 -591 -96 callsubr
        </CharString>
        <CharString name="Acircumflex">
          47 325 773 20 callsubr
          29 -399 -96 callsubr
        </CharString>
        <CharString name="Adieresis">
          47 415 703 -61 callgsubr
          -21 -410 -96 callsubr
        </CharString>
        <CharString name="Agrave">
          47 366 725 19 callsubr
          -112 -408 -96 callsubr
        </CharString>
        <CharString name="Amacron">
          47 450 767 146 callgsubr
          -236 -420 -96 callsubr
        </CharString>
        <CharString name="Aogonek">
          47 214 293 rmoveto
          62 211 7 35 73 -246 rlineto
          309 -410 105 callsubr
          2 20 2 16 21 vvcurveto
          -46 1 -14 15 -15 47 -170 543 rcurveline
          -48 -1 -72 -5 -41 -8 -171 -526 rcurveline
          -13 -35 -17 -19 -41 -12 -3 -19 -1 -18 1 -20 rrcurveto
          224 hlineto
          3 20 1 16 21 vvcurveto
          -35 -25 1 12 -21 hvcurveto
          45 154 rlineto
          184 hlineto
          42 -142 -23 -11 -28 -8 -26 -6 rlinecurve
          -3 -21 0 -16 -20 vvcurveto
          198 97 callsubr
        </CharString>
        <CharString name="Aring">
          47 325 822 19 callgsubr
          -111 -405 -96 callsubr
        </CharString>
        <CharString name="Atilde">
          47 453 862 27 callgsubr
          -279 -569 -96 callsubr
        </CharString>
        <CharString name="B">
          56 271 63 rmoveto
          235 43 vlineto
          82 51 -37 -81 -81 -51 -36 -82 hvcurveto
          -43 298 rmoveto
          227 36 vlineto
          69 45 -41 -73 -51 -34 -43 -46 -19 hvcurveto
          -296 289 rmoveto
          149 callsubr
          278 hlineto
          193 96 66 114 78 -39 56 -75 27 hvcurveto
          60 28 29 43 62 vvcurveto
          97 -76 79 -202 vhcurveto
          endchar
        </CharString>
        <CharString name="C">
          -18 callgsubr
          -221 154 -111 159 95 93 45 61 54 hvcurveto
          endchar
        </CharString>
        <CharString name="CR">
          -355 endchar
        </CharString>
        <CharString name="Cacute">
          -18 callgsubr
          -221 154 -111 159 95 93 45 61 54 hvcurveto
          -237 619 -15 callgsubr
        </CharString>
        <CharString name="Ccaron">
          -18 callgsubr
          -221 154 -111 159 95 93 45 61 54 hvcurveto
          -34 755 rmoveto
          -42 callsubr
          105 hlineto
          endchar
        </CharString>
        <CharString name="Ccedilla">
          -18 callgsubr
          -164 85 -103 109 -43 hvcurveto
          -25 -120 rlineto
          -45 callgsubr
          10 50 rlineto
          -1 11 11 -1 12 hhcurveto
          95 93 45 61 54 hvcurveto
          endchar
        </CharString>
        <CharString name="D">
          107 271 63 rmoveto
          525 43 vlineto
          42 callsubr
          -466 vlineto
          33 callgsubr
        </CharString>
        <CharString name="Dcaron">
          107 408 696 rmoveto
          120 152 -42 callsubr
          -32 -633 rmoveto
          525 43 vlineto
          42 callsubr
          -466 vlineto
          33 callgsubr
        </CharString>
        <CharString name="Dcroat">
          23 callgsubr
        </CharString>
        <CharString name="E">
          -7 271 63 -92 callgsubr
        </CharString>
        <CharString name="Eacute">
          -7 501 827 -28 callgsubr
          -68 -624 -92 callgsubr
        </CharString>
        <CharString name="Ecaron">
          -7 382 696 rmoveto
          120 152 -42 callsubr
          -6 -633 -92 callgsubr
        </CharString>
        <CharString name="Ecircumflex">
          -7 329 773 20 callsubr
          82 -629 -92 callgsubr
        </CharString>
        <CharString name="Edieresis">
          -7 419 703 -61 callgsubr
          32 -640 -92 callgsubr
        </CharString>
        <CharString name="Edotaccent">
          -7 328 697 48 callsubr
          -57 -634 -92 callgsubr
        </CharString>
        <CharString name="Egrave">
          -7 371 725 19 callsubr
          -60 -638 -92 callgsubr
        </CharString>
        <CharString name="Emacron">
          -7 454 767 146 callgsubr
          -183 -650 -92 callgsubr
        </CharString>
        <CharString name="Eogonek">
          -7 580 -117 105 callsubr
          2 66 -1 61 -5 67 -12 3 -40 2 -18 -1 rrcurveto
          -77 -8 -3 -58 -72 hhcurveto
          -135 229 hlineto
          132 -9 rlineto
          43 88 -43 hlineto
          -132 -14 rlineto
          231 133 vlineto
          73 -26 callgsubr
          -511 -95 callsubr
          410 97 callsubr
        </CharString>
        <CharString name="Eth">
          23 callgsubr
        </CharString>
        <CharString name="Euro">
          23 570 133 rmoveto
          -28 -40 -61 -15 -51 hhcurveto
          -90 -75 47 114 -24 hvcurveto
          187 hlineto
          10 54 rlineto
          -204 hlineto
          -1 10 0 10 10 vvcurveto
          10 0 10 1 10 vhcurveto
          194 hlineto
          10 54 rlineto
          -197 hlineto
          108 23 67 53 73 hhcurveto
          85 37 -63 -78 4 hvcurveto
          -1 3 46 0 2 hhcurveto
          13 71 7 57 3 62 rrcurveto
          24 -42 -85 12 -66 hhcurveto
          -161 -135 -90 -155 -41 hvcurveto
          -57 hlineto
          -10 -54 rlineto
          57 hlineto
          -1 -15 -1 -15 -16 vvcurveto
          -14 -45 vlineto
          -10 -54 rlineto
          60 hlineto
          -176 28 138 -88 142 hhcurveto
          95 93 45 61 54 hvcurveto
          endchar
        </CharString>
        <CharString name="F">
          -35 45 650 rmoveto
          -4 -3 callgsubr
          19 34 -3 -8 18 hvcurveto
          -467 -65 callgsubr
          331 hlineto
          3 17 2 23 -1 17 -29 2 -51 9 -27 8 rrcurveto
          196 vlineto
          132 -9 rlineto
          44 88 -44 hlineto
          -132 -14 rlineto
          251 134 vlineto
          72 -26 callgsubr
          endchar
        </CharString>
        <CharString name="G">
          110 406 328 -37 callsubr
        </CharString>
        <CharString name="Gbreve">
          110 473 884 11 callsubr
          -110 -556 -37 callsubr
        </CharString>
        <CharString name="H">
          168 663 534 rmoveto
          44 27 10 36 217 callsubr
          -295 hlineto
          139 callgsubr
          34 -3 -8 18 hvcurveto
          -222 -231 173 vlineto
          -90 callsubr
          217 231 -167 vlineto
          -44 -79 callsubr
          295 -43 callsubr
          endchar
        </CharString>
        <CharString name="I">
          -223 271 534 rmoveto
          -90 callsubr
          endchar
        </CharString>
        <CharString name="Iacute">
          -223 271 534 rmoveto
          -90 callsubr
          -110 645 -15 callgsubr
        </CharString>
        <CharString name="Icircumflex">
          -223 191 773 20 callsubr
          220 -158 rmoveto
          -90 callsubr
          endchar
        </CharString>
        <CharString name="Idieresis">
          -223 281 703 -61 callgsubr
          170 -169 rmoveto
          -90 callsubr
          endchar
        </CharString>
        <CharString name="Idotaccent">
          -223 190 697 48 callsubr
          81 -163 rmoveto
          -90 callsubr
          endchar
        </CharString>
        <CharString name="Igrave">
          -223 233 725 19 callsubr
          78 -167 rmoveto
          -90 callsubr
          endchar
        </CharString>
        <CharString name="Imacron">
          -223 316 767 146 callgsubr
          -45 -179 rmoveto
          -90 callsubr
          endchar
        </CharString>
        <CharString name="Iogonek">
          -223 354 -117 105 callsubr
          3 17 2 23 -1 17 rrcurveto
          -18 -34 2 8 -18 hvcurveto
          467 vlineto
          44 28 10 35 217 callsubr
          -294 -95 callsubr
          184 97 callsubr
        </CharString>
        <CharString name="J">
          -229 45 650 rmoveto
          -4 -3 callgsubr
          19 34 -3 -8 18 hvcurveto
          -503 vlineto
          -125 -26 -59 -106 -60 vhcurveto
          12 -17 18 -18 15 -11 rrcurveto
          136 39 111 90 161 vvcurveto
          454 vlineto
          44 28 10 35 217 callsubr
          endchar
        </CharString>
        <CharString name="K">
          141 481 321 -6 callgsubr
        </CharString>
        <CharString name="L">
          -32 271 62 -42 callgsubr
        </CharString>
        <CharString name="Lacute">
          -32 372 828 -28 callgsubr
          61 -626 -42 callgsubr
        </CharString>
        <CharString name="Lcaron">
          -32 410 534 -80 callsubr
          -99 -496 -42 callgsubr
        </CharString>
        <CharString name="Lslash">
          -32 271 62 rmoveto
          269 vlineto
          123 42 -5 23 -8 21 -13 19 rlinecurve
          -97 -33 rlineto
          131 vlineto
          88 callsubr
          2 23 -2 17 rrcurveto
          -294 hlineto
          139 callgsubr
          35 -3 -8 17 hvcurveto
          -235 vlineto
          -101 -35 3 -25 9 -22 13 -17 rlinecurve
          76 26 rlineto
          -158 vlineto
          -44 -79 callsubr
          511 hlineto
          2 60 -3 63 -5 62 rrcurveto
          1 -12 -27 2 -18 hhcurveto
          -71 -7 1 -55 -71 hhcurveto
          endchar
        </CharString>
        <CharString name="M">
          320 796 536 rmoveto
          -2 45 27 7 35 7 2 20 0 16 -3 19 rrcurveto
          -255 hlineto
          -146 -373 -124 373 rlineto
          -261 hlineto
          -5 -17 -3 -18 1 -20 rrcurveto
          22 16 -3 -8 22 hvcurveto
          -20 -468 -2 -46 -34 -7 -30 -6 rlinecurve
          -5 -19 0 -18 -1 -20 rrcurveto
          228 hlineto
          4 19 2 20 1 18 rrcurveto
          -24 -26 0 7 -24 hvcurveto
          26 464 37 -104 149 -424 rlineto
          43 hlineto
          176 448 32 82 rlineto
          -413 vlineto
          -47 -51 -7 -33 -6 vhcurveto
          -1 -19 0 -18 2 -20 rrcurveto
          324 hlineto
          1 19 0 20 -2 18 rrcurveto
          -25 -28 0 6 -25 hvcurveto
          endchar
        </CharString>
        <CharString name="N">
          160 496 650 -77 callsubr
        </CharString>
        <CharString name="NULL">
          -605 endchar
        </CharString>
        <CharString name="Nacute">
          160 570 828 -28 callgsubr
          88 -38 -77 callsubr
        </CharString>
        <CharString name="Ncaron">
          160 451 696 rmoveto
          120 152 -42 callsubr
          150 -46 -77 callsubr
        </CharString>
        <CharString name="Ntilde">
          160 526 862 27 callgsubr
          -70 -212 -77 callsubr
        </CharString>
        <CharString name="O">
          107 471 324 58 callgsubr
        </CharString>
        <CharString name="OE">
          395 493 117 rmoveto
          -41 -35 -38 -18 -61 hhcurveto
          -100 -14 117 148 -3 hvcurveto
          153 -5 32 116 112 hhcurveto
          48 40 -25 -35 24 hvcurveto
          160 -469 rmoveto
          229 vlineto
          132 -9 rlineto
          44 88 -44 hlineto
          -132 -14 rlineto
          231 134 vlineto
          72 -26 callgsubr
          -417 hlineto
          8 -49 -45 6 -53 hhcurveto
          -179 -145 -137 -204 -204 126 -133 179 56 51 6 8 50 hvcurveto
          433 -25 callgsubr
        </CharString>
        <CharString name="Oacute">
          107 471 324 -80 callgsubr
          -29 725 -15 callgsubr
        </CharString>
        <CharString name="Ocircumflex">
          107 471 324 -80 callgsubr
          174 733 112 callsubr
        </CharString>
        <CharString name="Odieresis">
          107 471 324 -80 callgsubr
          155 784 49 callsubr
        </CharString>
        <CharString name="Ograve">
          107 302 910 rmoveto
          -37 -50 -30 -19 -19 hvcurveto
          -21 vlineto
          162 -139 40 24 rlineto
          73 -401 58 callgsubr
        </CharString>
        <CharString name="Ohungarumlaut">
          107 471 324 -80 callgsubr
          -131 743 52 callsubr
        </CharString>
        <CharString name="Omacron">
          107 471 324 -80 callgsubr
          -124 727 196 callgsubr
        </CharString>
        <CharString name="Oslash">
          107 467 409 rmoveto
          2 -27 1 -28 1 -30 rrcurveto
          -152 3 -18 -114 -97 hhcurveto
          -53 -29 33 53 -16 hvcurveto
          -15 94 rmoveto
          -2 27 -1 28 -1 30 rrcurveto
          153 -5 16 116 97 hhcurveto
          55 29 -34 -56 17 hvcurveto
          213 161 rmoveto
          -88 hlineto
          -43 -55 rlineto
          36 -49 -61 20 -68 hhcurveto
          -179 -126 -137 -204 -102 22 -84 50 -59 hvcurveto
          -72 -92 rlineto
          88 hlineto
          36 46 rlineto
          -30 46 60 -16 75 hhcurveto
          178 130 133 204 97 -29 81 -50 59 hvcurveto
          endchar
        </CharString>
        <CharString name="Otilde">
          107 244 722 63 callgsubr
          267 -398 58 callgsubr
        </CharString>
        <CharString name="P">
          6 271 328 rmoveto
          259 36 vlineto
          81 45 -46 -84 -81 -46 -48 -80 hvcurveto
          28 -62 rmoveto
          155 114 75 116 116 -115 77 -155 hvcurveto
          -289 hlineto
          149 callsubr
          310 hlineto
          4 17 2 23 -1 17 -27 2 -37 7 -23 10 rrcurveto
          190 vlineto
          endchar
        </CharString>
        <CharString name="Q">
          107 350 600 rmoveto
          75 44 -72 -204 2 hvcurveto
          -206 2 -39 -68 -75 hhcurveto
          -75 -40 70 203 -2 hvcurveto
          203 -2 35 74 75 hhcurveto
          263 -650 rmoveto
          -13 -28 -38 -10 -28 hhcurveto
          -29 -23 26 48 -13 hvcurveto
          125 40 84 118 164 vvcurveto
          204 -130 137 -178 -179 -126 -137 -204 -180 98 -125 147 -27 vhcurveto
          -80 22 64 -69 76 hhcurveto
          72 57 27 37 48 hvcurveto
          endchar
        </CharString>
        <CharString name="R">
          97 271 358 -71 callgsubr
        </CharString>
        <CharString name="Racute">
          97 515 828 -28 callgsubr
          -82 -330 -71 callgsubr
        </CharString>
        <CharString name="Rcaron">
          97 396 696 rmoveto
          120 152 -42 callsubr
          -20 -338 -71 callgsubr
        </CharString>
        <CharString name="S">
          -71 -60 callgsubr
          endchar
        </CharString>
        <CharString name="Sacute">
          -71 -60 callgsubr
          -208 77 -15 callgsubr
        </CharString>
        <CharString name="Scaron">
          -57 -60 callgsubr
          8 213 rmoveto
          -42 callsubr
          105 hlineto
          endchar
        </CharString>
        <CharString name="T">
          -15 16 650 -10 callsubr
        </CharString>
        <CharString name="Tcaron">
          -15 348 696 rmoveto
          120 152 -42 callsubr
          -227 -46 -10 callsubr
        </CharString>
        <CharString name="Thorn">
          36 271 222 rmoveto
          219 73 vlineto
          78 41 -36 -73 -74 -51 -36 -68 hvcurveto
          -73 283 rmoveto
          29 vlineto
          -90 callsubr
          94 104 vlineto
          155 104 58 113 113 -104 60 -155 hvcurveto
          endchar
        </CharString>
        <CharString name="U">
          124 416 650 -92 callsubr
        </CharString>
        <CharString name="Uacute">
          124 539 827 -28 callgsubr
          39 -37 -92 callsubr
        </CharString>
        <CharString name="Ucircumflex">
          124 367 773 20 callsubr
          189 -42 -92 callsubr
        </CharString>
        <CharString name="Udieresis">
          124 456 703 -61 callgsubr
          140 -53 -92 callsubr
        </CharString>
        <CharString name="Ugrave">
          124 408 725 19 callsubr
          48 -51 -92 callsubr
        </CharString>
        <CharString name="Uhungarumlaut">
          124 441 719 120 callsubr
          125 -69 -92 callsubr
        </CharString>
        <CharString name="Umacron">
          124 492 767 146 callgsubr
          -76 -63 -92 callsubr
        </CharString>
        <CharString name="Uogonek">
          124 416 650 rmoveto
          -3 -16 -2 -24 1 63 callsubr
          -106 -47 -34 -69 -69 -46 34 106 vhcurveto
          332 vlineto
          44 28 10 35 217 callsubr
          -294 hlineto
          -3 -16 -3 -24 2 63 callsubr
          -149 103 -61 153 -5 vhcurveto
          -50 -30 -21 -39 -40 43 callgsubr
          31 18 28 47 24 hvcurveto
          100 24 64 63 116 vvcurveto
          332 vlineto
          44 27 10 36 217 callsubr
          endchar
        </CharString>
        <CharString name="Uring">
          124 367 822 19 callgsubr
          49 -48 -92 callsubr
        </CharString>
        <CharString name="V">
          75 482 650 rmoveto
          -4 -18 1 -17 -20 vvcurveto
          31 -1 20 -5 26 -9 -163 -402 rcurveline
          -4 hlineto
          -5 23 -5 19 -10 24 -122 280 rcurveline
          -19 44 19 21 66 6 1 19 0 20 -4 16 rrcurveto
          -314 hlineto
          -2 -21 2 -13 5 -21 23 -1 14 -2 17 -7 256 -591 rcurveline
          63 hlineto
          234 542 15 35 19 17 33 7 rlinecurve
          5 19 3 16 2 20 rrcurveto
          endchar
        </CharString>
        <CharString name="W">
          383 811 650 rmoveto
          -4 -18 -2 -17 -1 -20 20 -1 18 -5 21 -6 -119 -368 rcurveline
          -3 hlineto
          -1 25 -6 20 -8 22 -123 338 rcurveline
          -63 hlineto
          -178 -405 rlineto
          -3 hlineto
          -2 20 -3 19 -7 20 -85 250 rcurveline
          -15 44 17 21 68 6 rrcurveto
          19 -2 15 -5 21 vhcurveto
          -319 hlineto
          -3 -21 2 -13 4 -21 18 -1 17 -2 19 -6 202 -592 rcurveline
          63 hlineto
          179 402 157 -402 rlineto
          63 hlineto
          189 542 13 38 19 14 32 7 rlinecurve
          3 20 1 16 -1 19 rrcurveto
          endchar
        </CharString>
        <CharString name="X">
          38 399 346 rmoveto
          145 203 rlineto
          34 25 27 11 30 hhcurveto
          7 16 3 19 21 vvcurveto
          -196 hlineto
          -1 -17 1 -22 4 -17 16 -1 17 -2 18 -3 -134 -187 rcurveline
          -108 157 -10 14 3 17 41 6 rlinecurve
          17 0 22 -4 16 vhcurveto
          -278 hlineto
          -3 -17 2 -20 3 -18 14 -1 12 -2 15 -5 199 -288 rcurveline
          -143 -197 -25 -33 -27 -13 -30 1 rlinecurve
          -7 -17 -3 -19 1 -21 rrcurveto
          195 hlineto
          2 18 -2 21 -4 18 -16 1 -16 1 -18 3 130 183 rcurveline
          106 -153 9 -14 -2 -14 -41 -7 rlinecurve
          -18 -1 -22 5 -17 vhcurveto
          278 hlineto
          2 18 -2 26 -3 13 -15 1 -13 1 -15 6 rrcurveto
          endchar
        </CharString>
        <CharString name="Y">
          70 473 650 -47 callgsubr
        </CharString>
        <CharString name="Yacute">
          70 546 828 -28 callgsubr
          89 -38 -47 callgsubr
        </CharString>
        <CharString name="Ydieresis">
          70 464 703 -61 callgsubr
          189 -53 -47 callgsubr
        </CharString>
        <CharString name="Z">
          -36 231 80 -38 callgsubr
        </CharString>
        <CharString name="Zacute">
          -36 481 828 -28 callgsubr
          -88 -608 -38 callgsubr
        </CharString>
        <CharString name="Zcaron">
          -36 362 696 rmoveto
          120 152 -42 callsubr
          -26 -616 -38 callgsubr
        </CharString>
        <CharString name="Zdotaccent">
          -36 308 697 48 callsubr
          -77 -617 -38 callgsubr
        </CharString>
        <CharString name="a">
          -95 281 215 -97 callsubr
        </CharString>
        <CharString name="aacute">
          -95 436 638 -28 callgsubr
          7 -283 -97 callsubr
        </CharString>
        <CharString name="abreve">
          -95 359 695 11 callsubr
          -121 -480 -97 callsubr
        </CharString>
        <CharString name="acircumflex">
          -95 264 584 20 callsubr
          157 -288 -97 callsubr
        </CharString>
        <CharString name="acute">
          -385 9 525 -15 callgsubr
        </CharString>
        <CharString name="adieresis">
          -95 354 514 -61 callgsubr
          107 -299 -97 callsubr
        </CharString>
        <CharString name="ae">
          151 527 297 rmoveto
          -78 -6 rlineto
          82 11 34 27 33 hhcurveto
          27 17 -26 -75 1 hvcurveto
          -291 -84 rmoveto
          1 -33 6 -30 11 -25 rrcurveto
          -28 -17 -21 -18 -31 hhcurveto
          -23 -18 19 30 36 23 27 41 13 hvcurveto
          193 31 rmoveto
          261 hlineto
          8 12 7 15 5 14 rrcurveto
          153 -100 43 -88 -54 -51 -15 -27 -43 vhcurveto
          27 -27 -40 15 -55 hhcurveto
          -85 -66 -26 -54 -60 hvcurveto
          32 -47 rlineto
          13 39 34 7 42 hhcurveto
          49 27 -18 -47 hvcurveto
          -30 vlineto
          -117 -23 rlineto
          -91 -18 -49 -40 -74 vvcurveto
          -74 54 -56 92 75 51 35 53 34 vhcurveto
          -60 49 76 -28 63 hhcurveto
          87 70 37 50 49 hvcurveto
          -23 36 rlineto
          -18 -47 -49 -12 -43 hhcurveto
          -63 -53 32 123 hvcurveto
          endchar
        </CharString>
        <CharString name="agrave">
          -95 305 536 19 callsubr
          16 -297 -97 callsubr
        </CharString>
        <CharString name="amacron">
          -95 389 578 146 callgsubr
          -108 -309 -97 callsubr
        </CharString>
        <CharString name="ampersand">
          129 375 127 rmoveto
          -19 -27 -23 -8 -29 hhcurveto
          -61 -37 36 58 40 18 33 34 21 hvcurveto
          92 135 rmoveto
          -28 37 -10 21 36 vvcurveto
          38 22 30 30 30 24 -30 -47 -40 -18 -37 -36 -26 vhcurveto
          170 -219 rmoveto
          60 58 42 40 29 13 41 5 rlinecurve
          141 callgsubr
          18 rrcurveto
          -208 hlineto
          -3 -17 107 callsubr
          23 -1 19 -3 22 -7 -64 -61 rcurveline
          -103 133 rlineto
          119 41 61 40 75 vvcurveto
          74 -62 70 -148 -140 -81 -81 -91 -56 25 -35 37 -47 vhcurveto
          16 -20 rlineto
          -101 -28 -81 -57 -102 vvcurveto
          -97 77 -62 112 84 51 27 61 58 vhcurveto
          59 -75 rlineto
          217 hlineto
          7 21 2 18 -1 15 -56 4 -34 20 -38 49 rrcurveto
          endchar
        </CharString>
        <CharString name="aogonek">
          -95 281 215 rmoveto
          -110 vlineto
          -18 -15 -16 -6 -20 hhcurveto
          -23 -18 19 30 36 23 27 41 13 hvcurveto
          250 -121 rmoveto
          -3 -16 -9 -3 -12 hhcurveto
          -15 -16 11 38 hvcurveto
          177 vlineto
          106 -53 63 -113 -85 -66 -26 -54 -60 vhcurveto
          32 -47 rlineto
          13 39 34 7 42 hhcurveto
          49 27 -18 -47 hvcurveto
          -30 vlineto
          -117 -23 rlineto
          -91 -18 -49 -40 -74 vvcurveto
          -74 54 -56 88 56 34 20 38 30 vhcurveto
          10 -22 21 -16 25 -9 rrcurveto
          -63 -33 -26 -43 -44 43 callgsubr
          29 16 28 44 23 hvcurveto
          27 12 19 20 20 23 rrcurveto
          endchar
        </CharString>
        <CharString name="apostrophemod">
          -398 61 549 -26 callsubr
          endchar
        </CharString>
        <CharString name="approxequal">
          93 102 321 125 callgsubr
          52 -230 125 callgsubr
          endchar
        </CharString>
        <CharString name="aring">
          -95 264 633 19 callgsubr
          17 -294 -97 callsubr
        </CharString>
        <CharString name="asciicircum">
          -53 40 230 rmoveto
          109 hlineto
          127 276 127 -276 rlineto
          109 hlineto
          -190 383 rlineto
          -92 hlineto
          endchar
        </CharString>
        <CharString name="asciitilde">
          93 102 211 rmoveto
          55 12 30 27 55 89 72 -87 110 hhcurveto
          95 74 67 147 9 hvcurveto
          -52 hlineto
          -55 -12 -30 -27 -55 -89 -72 87 -110 hhcurveto
          -95 -74 -67 -147 -9 hvcurveto
          endchar
        </CharString>
        <CharString name="asterisk">
          -127 294 672 rmoveto
          -25 8 -72 3 -24 -11 26 -130 rcurveline
          -115 62 rlineto
          -17 -20 -15 -69 -30 vvcurveto
          132 -7 -95 -85 13 -24 59 -40 28 -7 rlinecurve
          46 113 47 -115 28 6 57 40 15 24 rlinecurve
          -99 88 135 7 rlineto
          27 -16 70 -17 22 vhcurveto
          -117 -64 rlineto
          endchar
        </CharString>
        <CharString name="at">
          467 573 117 rmoveto
          -2 vlineto
          -20 -14 -18 -14 -25 hhcurveto
          -32 -33 19 110 18 hvcurveto
          81 13 34 40 41 hhcurveto
          29 14 -22 -43 -6 hvcurveto
          149 -32 rmoveto
          123 17 -69 66 -118 hhcurveto
          -129 -115 -96 -132 -22 hvcurveto
          -130 -22 72 -79 93 hhcurveto
          56 41 34 34 30 hvcurveto
          -46 16 46 -21 60 hhcurveto
          167 156 140 187 178 -149 125 -233 -330 -260 -210 -281 -221 179 -105 180 90 78 18 33 75 hvcurveto
          1 24 -7 29 -12 18 rrcurveto
          -19 -54 -62 -13 -80 hhcurveto
          -132 -117 80 149 220 179 188 242 190 83 -111 -156 -118 -65 -78 -58 -30 -8 22 44 6 hvcurveto
          endchar
        </CharString>
        <CharString name="atilde">
          -95 392 673 27 callgsubr
          -151 -458 -97 callsubr
        </CharString>
        <CharString name="b">
          -41 216 309 rmoveto
          53 8 35 27 32 hhcurveto
          36 48 -25 -129 -130 -48 -48 -49 -22 -21 4 10 -19 hvcurveto
          649 vmoveto
          -88 -3 -59 -12 -65 -23 -6 -15 -3 -25 -1 -16 24 1 24 1 19 -3 rrcurveto
          -500 vlineto
          -38 -5 -38 -13 -36 vhcurveto
          23 -23 24 9 25 16 20 21 rlinecurve
          -30 38 47 -17 53 hhcurveto
          144 124 90 156 153 -92 86 -109 -54 -44 -25 -38 -26 hvcurveto
          endchar
        </CharString>
        <CharString name="backslash">
          -160 40 763 rmoveto
          221 -870 rlineto
          122 hlineto
          -219 870 rlineto
          endchar
        </CharString>
        <CharString name="bar">
          -302 85 763 rmoveto
          -870 123 870 vlineto
          endchar
        </CharString>
        <CharString name="braceleft">
          -122 80 285 rmoveto
          71 -7 29 -36 -59 -64 -27 -46 -62 vvcurveto
          -88 79 -88 211 13 vhcurveto
          50 vlineto
          -84 7 -55 36 70 58 26 53 64 vvcurveto
          79 -32 40 -92 20 vhcurveto
          92 20 32 40 79 64 -26 53 58 vvcurveto
          70 55 36 84 7 vhcurveto
          50 vlineto
          -211 13 -79 -88 -88 -62 27 -46 -64 vvcurveto
          -59 -29 -36 -71 -7 vhcurveto
          endchar
        </CharString>
        <CharString name="braceright">
          -122 303 467 rmoveto
          64 27 46 62 vvcurveto
          88 -79 88 -211 -13 vhcurveto
          -50 vlineto
          84 -7 55 -36 -70 -58 -26 -53 -64 vvcurveto
          -79 32 -40 92 -20 vhcurveto
          -92 -20 -32 -40 -79 -64 26 -53 -58 vvcurveto
          -70 -55 -36 -84 -7 vhcurveto
          -50 vlineto
          211 -13 79 88 88 62 -27 46 64 vvcurveto
          59 29 36 71 7 vhcurveto
          80 vlineto
          -71 7 -29 36 59 vvcurveto
          endchar
        </CharString>
        <CharString name="bracketleft">
          -191 255 713 rmoveto
          129 76 -284 -929 284 76 -129 hlineto
          endchar
        </CharString>
        <CharString name="bracketright">
          -191 30 -64 rmoveto
          -76 284 929 -284 -76 129 -777 vlineto
          endchar
        </CharString>
        <CharString name="breve">
          -300 248 695 11 callsubr
          endchar
        </CharString>
        <CharString name="brokenbar">
          -312 85 243 rmoveto
          -350 123 350 vlineto
          170 vmoveto
          350 -123 -350 vlineto
          endchar
        </CharString>
        <CharString name="bullet">
          -257 173 195 rmoveto
          58 46 46 55 56 -46 48 -58 -55 -46 -48 -56 -55 46 -46 55 hvcurveto
          endchar
        </CharString>
        <CharString name="c">
          -14 callsubr
          -160 120 -72 100 74 74 36 51 49 hvcurveto
          endchar
        </CharString>
        <CharString name="cacute">
          -14 callsubr
          -160 120 -72 100 74 74 36 51 49 hvcurveto
          -207 449 -15 callgsubr
        </CharString>
        <CharString name="caron">
          -239 356 659 rmoveto
          -42 callsubr
          105 hlineto
          endchar
        </CharString>
        <CharString name="ccaron">
          -14 callsubr
          -160 120 -72 100 74 74 36 51 49 hvcurveto
          -4 586 rmoveto
          -42 callsubr
          105 hlineto
          endchar
        </CharString>
        <CharString name="ccedilla">
          -14 callsubr
          -134 84 -72 86 -20 hvcurveto
          -21 -104 rlineto
          -45 callgsubr
          10 51 60 10 58 32 40 42 rlinecurve
          endchar
        </CharString>
        <CharString name="cedilla">
          -303 221 21 rmoveto
          -89 hlineto
          -27 -132 rlineto
          -45 callgsubr
          endchar
        </CharString>
        <CharString name="cent">
          -157 418 110 rmoveto
          -16 -41 -50 -13 -37 hhcurveto
          -51 -50 32 122 127 43 38 51 42 32 -35 -59 7 hvcurveto
          -3 11 15 -2 11 hhcurveto
          6 37 9 59 1 49 -37 16 -37 10 -41 2 rrcurveto
          80 -67 -84 vlineto
          -117 -21 -94 -90 -140 vvcurveto
          -155 113 -73 98 -4 vhcurveto
          -80 67 87 vlineto
          53 13 50 29 36 38 rrcurveto
          endchar
        </CharString>
        <CharString name="circumflex">
          -239 356 530 112 callsubr
        </CharString>
        <CharString name="colon">
          -267 256 471 rmoveto
          48 -38 39 -49 -47 -39 -39 -48 -47 39 -39 47 48 39 39 47 vhcurveto
          -414 vmoveto
          48 -39 40 -48 -47 -39 -40 -48 -46 39 -39 47 48 39 39 46 vhcurveto
          endchar
        </CharString>
        <CharString name="comma">
          -372 91 -146 -26 callsubr
          endchar
        </CharString>
        <CharString name="commaaccent">
          -427 50 -246 4 callgsubr
        </CharString>
        <CharString name="commaaccent.alt">
          -427 50 534 4 callgsubr
        </CharString>
        <CharString name="copyright">
          215 530 229 rmoveto
          -19 -27 -23 -10 -32 hhcurveto
          -59 -47 35 94 72 44 56 41 50 4 -30 -51 2 hvcurveto
          15 -3 14 0 15 3 14 41 10 43 4 45 rrcurveto
          13 -28 -46 14 -45 hhcurveto
          -122 -103 -81 -132 -134 103 -71 100 67 52 34 41 34 hvcurveto
          193 134 rmoveto
          218 -154 132 -195 167 callsubr
          vhcurveto
          -636 hmoveto
          183 callsubr
          -159 -128 100 195 vhcurveto
          endchar
        </CharString>
        <CharString name="currency">
          -68 268 239 rmoveto
          -30 -21 31 76 76 21 30 30 30 21 -30 -76 -76 -21 -31 -30 hvcurveto
          244 226 rmoveto
          -46 61 -73 -59 rlineto
          29 -33 -44 17 -48 hhcurveto
          -48 -44 -17 -29 -33 hvcurveto
          -72 59 -46 -61 77 -56 rlineto
          -8 -19 -5 -22 -23 vvcurveto
          -23 5 -22 8 -19 vhcurveto
          -77 -56 46 -61 73 59 rlineto
          -29 32 45 -16 47 hhcurveto
          48 44 16 29 33 hvcurveto
          73 -59 46 61 -77 56 rlineto
          8 19 5 22 23 vvcurveto
          23 -5 22 -8 19 vhcurveto
          endchar
        </CharString>
        <CharString name="d">
          91 callgsubr
          222 -307 rmoveto
          195 callsubr
          592 vlineto
          132 callgsubr
          -151 70 callsubr
          endchar
        </CharString>
        <CharString name="dagger">
          -15 458 585 rmoveto
          -52 -7 -27 -15 -53 hhcurveto
          -4 hlineto
          4 81 2 45 26 9 35 6 rlinecurve
          141 callgsubr
          17 rrcurveto
          -294 hlineto
          -1 -17 1 -23 5 -16 35 -6 26 -9 2 -45 4 -81 rcurveline
          -4 hlineto
          -53 -27 15 52 -7 hvcurveto
          -55 -3 -11 -56 0 -80 11 -56 rlinecurve
          55 -3 rlineto
          52 7 27 15 53 hhcurveto
          8 hlineto
          37 -688 23 -9 22 0 23 9 rlinecurve
          37 688 rlineto
          8 hlineto
          53 27 -15 -52 7 hvcurveto
          55 3 11 56 0 80 -11 56 rlinecurve
          endchar
        </CharString>
        <CharString name="daggerdbl">
          -4 465 89 rmoveto
          -52 -7 -27 -15 -53 hhcurveto
          -31 hlineto
          26 182 rlineto
          41 vlineto
          -26 184 rlineto
          31 213 callgsubr
          -54 3 rlineto
          -52 -7 -27 -15 -53 hhcurveto
          -27 hlineto
          21 81 12 45 16 9 35 6 rlinecurve
          141 callgsubr
          17 rrcurveto
          -274 hlineto
          -1 -17 1 -23 5 -16 35 -6 17 -9 11 -45 21 -81 rcurveline
          -31 165 callsubr
          35 hlineto
          -26 -184 rlineto
          -41 vlineto
          26 -182 rlineto
          -35 165 callsubr
          30 hlineto
          -20 -81 -11 -45 -17 -9 -35 -6 rlinecurve
          -5 -16 -1 -23 1 -17 rrcurveto
          274 hlineto
          1 17 -1 23 -5 16 -35 6 -17 9 -11 45 -20 81 rcurveline
          26 213 callgsubr
          endchar
        </CharString>
        <CharString name="danda">
          -235 250 558 185 callsubr
          endchar
        </CharString>
        <CharString name="dcaron">
          91 callgsubr
          155 329 rmoveto
          132 callgsubr
          -151 70 callsubr
          -15 33 rlineto
          195 callsubr
          70 406 4 callgsubr
        </CharString>
        <CharString name="dcroat">
          91 callgsubr
          242 172 rmoveto
          2 19 -2 17 -8 17 -79 -12 rcurveline
          116 vlineto
          132 callgsubr
          -46 vlineto
          -102 -16 -3 -19 2 -17 9 -17 rlinecurve
          94 15 rlineto
          -51 70 callsubr
          -15 33 rlineto
          195 callsubr
          421 vlineto
          endchar
        </CharString>
        <CharString name="degree">
          -264 170 408 rmoveto
          75 66 47 90 90 -66 48 -75 -75 -65 -48 -90 -90 65 -47 75 hvcurveto
          212 vmoveto
          24 21 -20 -54 -54 -21 -21 -24 -24 -20 21 54 54 20 20 24 hvcurveto
          endchar
        </CharString>
        <CharString name="dieresis">
          -278 317 581 49 callsubr
        </CharString>
        <CharString name="divide">
          78 428 531 rmoveto
          47 -39 39 -49 -46 -39 -39 -47 -46 39 -39 46 49 39 39 46 vhcurveto
          -393 vmoveto
          49 -39 39 -49 -46 -39 -39 -49 -46 39 -39 46 49 39 39 46 vhcurveto
          -378 248 rmoveto
          -100 583 100 vlineto
          endchar
        </CharString>
        <CharString name="dollar">
          -57 304 226 rmoveto
          35 -24 25 -28 -43 vvcurveto
          -36 -22 -24 -38 -8 vhcurveto
          -53 373 rmoveto
          -32 22 -22 27 38 vvcurveto
          33 23 22 31 10 vhcurveto
          53 5 rmoveto
          48 -4 40 -31 13 -95 rrcurveto
          -2 17 18 -1 17 hhcurveto
          7 50 7 70 55 vvcurveto
          -52 15 -52 12 -63 2 rrcurveto
          75 -53 -77 vlineto
          -109 -12 -78 -63 -106 vvcurveto
          -134 102 -46 85 -44 vhcurveto
          -196 vlineto
          -67 6 -46 40 3 108 rrcurveto
          4 -25 -19 2 -23 hhcurveto
          -5 -47 -6 -93 3 -64 66 -15 64 -13 55 -3 rrcurveto
          -75 53 77 vlineto
          107 13 94 69 114 vvcurveto
          134 -112 43 -89 45 vhcurveto
          endchar
        </CharString>
        <CharString name="dotaccent">
          -414 95 508 48 callsubr
          endchar
        </CharString>
        <CharString name="dotlessi">
          79 callgsubr
          endchar
        </CharString>
        <CharString name="dottedcircle">
          55 139 477 rmoveto
          -26 18 -19 26 26 18 19 26 25 -18 19 -26 -26 -18 -19 -25 vhcurveto
          -82 -110 rmoveto
          -25 20 -19 26 24 20 19 25 25 -20 19 -24 -26 -20 -19 -25 vhcurveto
          -13 -126 rmoveto
          -25 19 -18 25 26 18 18 254 callsubr
          52 -116 rmoveto
          -26 18 -18 26 25 19 18 26 25 -19 19 -25 -26 -18 -19 -25 vhcurveto
          101 -75 rmoveto
          -26 19 -20 26 25 19 20 26 24 -19 20 -25 -26 -19 -20 -24 vhcurveto
          127 -16 rmoveto
          -26 18 -18 26 26 19 18 26 26 -19 18 -26 -26 -18 -18 -26 vhcurveto
          121 53 rmoveto
          -26 19 -18 25 25 20 18 26 25 -20 19 -25 -25 -19 -19 -25 vhcurveto
          73 98 rmoveto
          -25 19 -19 26 24 19 19 25 26 -19 19 -24 -26 -19 -19 -26 vhcurveto
          10 134 rmoveto
          -26 18 -18 26 25 19 18 26 26 -19 18 -25 -26 -18 -18 -26 vhcurveto
          -50 118 rmoveto
          -25 19 -19 25 26 18 19 254 callsubr
          -95 68 rmoveto
          -24 19 -20 26 25 18 20 24 26 -18 19 -25 -26 -19 -19 -26 vhcurveto
          -126 15 rmoveto
          -26 18 -18 26 26 18 18 26 26 -18 18 -26 -26 -18 -18 -26 vhcurveto
          endchar
        </CharString>
        <CharString name="doubledanda">
          18 250 558 185 callsubr
          289 598 185 callsubr
          endchar
        </CharString>
        <CharString name="dvA">
          160 296 23 rmoveto
          108 66 80 94 15 -2 15 -4 13 hvcurveto
          -11 20 21 -6 21 hhcurveto
          15 16 3 8 15 hvcurveto
          -7 -202 -4 callgsubr
          157 180 callsubr
          -370 151 callsubr
          -138 hlineto
          -22 -13 -53 -28 -47 hhcurveto
          -15 -12 3 5 -10 hvcurveto
          16 24 10 27 31 vvcurveto
          88 -98 121 -86 -61 -54 -44 -49 -38 vhcurveto
          97 -95 rlineto
          40 34 38 25 31 hhcurveto
          22 13 -17 -18 -45 -55 -36 -105 -35 hvcurveto
          74 -124 35 13 33 15 28 18 rlinecurve
          8 -12 5 -15 -16 vvcurveto
          -53 -39 -48 -69 -80 -51 105 105 -48 vhcurveto
          -64 -37 rlineto
          -111 43 90 -185 152 hhcurveto
          endchar
        </CharString>
        <CharString name="dvAA">
          424 1007 635 rmoveto
          -627 -73 callgsubr
          122 147 callsubr
          endchar
        </CharString>
        <CharString name="dvAI">
          -34 186 732 rmoveto
          19 26 25 11 21 hhcurveto
          52 44 -61 -66 36 hvcurveto
          -458 -19 callsubr
          -62 104 rlineto
          -101 201 callgsubr
        </CharString>
        <CharString name="dvAU">
          444 711 826 27 callsubr
          40 35 -24 -26 27 hvcurveto
          -455 -73 callgsubr
          179 147 callsubr
          -53 104 rlineto
          -112 hlineto
          137 -26 -62 172 -127 133 callsubr
          endchar
        </CharString>
        <CharString name="dvAbbreviationsign">
          -96 243 405 rmoveto
          -90 -2 -59 -67 -75 vvcurveto
          -91 80 -73 91 vhcurveto
          92 4 58 66 75 vvcurveto
          90 -78 73 -94 vhcurveto
          -20 -232 rmoveto
          -26 -18 18 29 60 61 49 46 26 17 -18 -29 -60 -61 -49 -45 hvcurveto
          endchar
        </CharString>
        <CharString name="dvAnusvara">
          -605 -226 781 -75 callsubr
          endchar
        </CharString>
        <CharString name="dvAnusvara.amI">
          -605 -42 781 -75 callsubr
          endchar
        </CharString>
        <CharString name="dvAvagraha">
          3 302 409 rmoveto
          -47 43 -7 15 19 vvcurveto
          25 19 17 28 vhcurveto
          214 3 -52 104 rlineto
          -223 hlineto
          -74 -54 -43 -57 -28 4 -40 66 -61 hvcurveto
          145 -134 rlineto
          51 -45 10 -34 -27 vvcurveto
          -38 -24 -57 -84 -79 -54 49 61 -40 vhcurveto
          -60 -57 rlineto
          -70 43 107 -102 129 hhcurveto
          118 72 95 95 68 -50 60 -40 35 hvcurveto
          endchar
        </CharString>
        <CharString name="dvB">
          -244 453 39 callgsubr
          -473 -97 callgsubr
          415 -236 rmoveto
          -17 -23 -26 -32 -18 -13 -127 137 rcurveline
          -89 callsubr
          56 69 22 103 73 hvcurveto
          -236 -30 107 callgsubr
        </CharString>
        <CharString name="dvBA">
          -8 527 217 callgsubr
          -709 -97 callgsubr
          415 56 callgsubr
          -75 -93 -60 -108 185 callgsubr
          hvcurveto
          -7 -101 133 -79 rlineto
          -299 222 107 callgsubr
        </CharString>
        <CharString name="dvBH">
          -268 357 635 rmoveto
          -130 116 callgsubr
          130 hlineto
          -343 -181 rmoveto
          -39 -14 -17 -24 83 callgsubr
          271 vlineto
          -82 120 rlineto
          -191 93 -29 callsubr
          -116 hlineto
          70 -104 rlineto
          82 157 callsubr
          endchar
        </CharString>
        <CharString name="dvBHA">
          -23 602 41 callsubr
          -114 hlineto
          70 -104 rlineto
          80 hlineto
          117 callsubr
        </CharString>
        <CharString name="dvBH_LA">
          489 1114 635 rmoveto
          -887 116 callgsubr
          596 16 callsubr
          -76 -57 -43 -64 -23 hvcurveto
          -161 32 callsubr
          155 vlineto
          29 -109 108 -98 75 -64 64 46 rcurveline
          -95 callgsubr
        </CharString>
        <CharString name="dvBH_NA">
          1 627 635 rmoveto
          -398 116 callgsubr
          106 -167 -190 26 callsubr
          188 -20 vlineto
          -210 -172 rlineto
          -26 -21 -8 -15 -61 callsubr
          98 100 rcurveline
          -79 238 callsubr
        </CharString>
        <CharString name="dvBH_R">
          -266 359 635 rmoveto
          -130 116 callgsubr
          130 hlineto
          -5 -291 rmoveto
          -259 -219 94 -66 263 276 -116 133 rlineto
          -191 26 callsubr
          207 vlineto
          endchar
        </CharString>
        <CharString name="dvBH_RA">
          1 166 21 rmoveto
          94 -66 146 153 rlineto
          -76 vlineto
          130 -72 186 callsubr
          182 callgsubr
          rlineto
          32 -36 -28 7 -37 hhcurveto
          -104 hlineto
          70 -104 rlineto
          70 254 callgsubr
          -47 -1 -17 -14 -26 vvcurveto
          143 callsubr
          vhcurveto
          52 188 -20 vlineto
          endchar
        </CharString>
        <CharString name="dvBH_R_YA">
          335 741 -98 callgsubr
          -731 116 callgsubr
          181 80 callsubr
          -5 -3 rlineto
          -167 26 callsubr
          189 vlineto
          9 -12 -250 -211 94 -66 209 220 rlineto
          -48 53 63 -38 49 -100 callsubr
        </CharString>
        <CharString name="dvBH_VA">
          335 961 635 rmoveto
          -734 116 callgsubr
          440 -87 callgsubr
          -65 -70 -47 -84 -16 hvcurveto
          -163 32 callsubr
          177 vlineto
          -89 41 94 -71 71 hhcurveto
          -73 callsubr
        </CharString>
        <CharString name="dvBH_YA">
          315 721 -98 callgsubr
          73 callsubr
          -9 -5 -6 -4 -2 -7 rrcurveto
          -123 32 callsubr
          167 vlineto
          -71 56 93 -71 68 -100 callsubr
        </CharString>
        <CharString name="dvB_BA">
          341 627 -23 callgsubr
          -227 -132 -70 callgsubr
          810 311 rmoveto
          -1058 -97 callgsubr
          764 56 callgsubr
          -75 -93 -60 -108 -6 0 -5 1 -6 hvcurveto
          -17 -22 -23 -27 -16 -12 -127 137 rcurveline
          -89 callsubr
          50 60 17 76 63 hvcurveto
          -53 44 66 -40 66 130 callgsubr
        </CharString>
        <CharString name="dvB_BHA">
          325 16 callgsubr
          794 311 rmoveto
          -377 116 callgsubr
          86 -180 -156 206 callgsubr
          -33 29 -26 9 -33 1 rlinecurve
          0 -473 vlineto
          72 -104 rlineto
          428 157 callsubr
          -52 -19 -14 -27 -8 2 -9 5 -10 hvcurveto
          -16 -21 -20 -23 -15 -11 -127 137 rcurveline
          -89 callsubr
          53 64 20 88 69 hvcurveto
          -30 32 36 -23 21 112 callgsubr
        </CharString>
        <CharString name="dvB_BH_RA">
          368 16 callgsubr
          837 311 rmoveto
          182 callgsubr
          rlineto
          32 -36 -28 7 -37 hhcurveto
          -473 -97 callgsubr
          437 254 callgsubr
          -47 -1 -17 -14 -26 vvcurveto
          -8 3 -10 4 -10 vhcurveto
          -17 -23 -25 -31 -18 -13 -127 137 rcurveline
          -89 callsubr
          55 68 21 100 72 hvcurveto
          -30 33 35 -23 21 131 callsubr
        </CharString>
        <CharString name="dvB_DA">
          277 16 callgsubr
          624 7 35 callsubr
          -992 -97 callgsubr
          670 -80 145 callsubr
          hvcurveto
          -17 -22 -25 -30 -17 -13 -127 137 rcurveline
          -89 callsubr
          47 56 16 66 60 hvcurveto
          15 -24 18 -23 20 -20 rrcurveto
          -51 52 67 -33 64 hhcurveto
          26 26 7 11 23 hvcurveto
          86 -133 75 50 -103 123 rlineto
          26 26 16 30 23 -90 callgsubr
          endchar
        </CharString>
        <CharString name="dvB_DHA">
          -605 endchar
        </CharString>
        <CharString name="dvB_DH_VA">
          711 16 callgsubr
          1181 311 -39 callgsubr
          -681 -97 callgsubr
          414 hlineto
          137 callgsubr
          -12 vlineto
          -16 -22 -23 -26 -16 -12 -127 137 rcurveline
          -89 callsubr
          48 58 16 71 62 hvcurveto
          -61 46 75 -40 67 hhcurveto
          40 74 15 87 81 hvcurveto
          -61 47 70 -43 55 hhcurveto
          -73 callsubr
        </CharString>
        <CharString name="dvB_JA">
          499 16 callgsubr
          962 311 rmoveto
          -1210 -97 callgsubr
          917 -95 -279 -9 callgsubr
          51 69 -75 89 -57 callgsubr
        </CharString>
        <CharString name="dvB_JHA">
          512 918 351 rmoveto
          -32 -23 -29 -17 -29 -92 -20 14 -49 37 callgsubr
          217 171 124 hlineto
          -640 -339 -70 callgsubr
          981 311 rmoveto
          -1229 -97 callgsubr
          688 -59 -124 hlineto
          -81 -47 -31 -72 -9 1 -9 2 -10 hvcurveto
          -16 -27 -32 -60 -37 -27 -127 137 rcurveline
          -89 callsubr
          86 60 67 86 65 hvcurveto
          -42 38 48 -31 38 2 callgsubr
          -93 callsubr
        </CharString>
        <CharString name="dvB_J_YA">
          849 1255 -107 callsubr
          -977 -339 -70 callgsubr
          1318 311 rmoveto
          -1566 -97 callgsubr
          1015 253 callgsubr
          -75 -40 vhcurveto
          25 -33 -45 21 -59 hhcurveto
          -192 -9 callgsubr
          52 68 -75 89 hhcurveto
          85 46 50 77 43 -17 49 -37 35 hvcurveto
          102 hlineto
          8 8 -1 -1 7 hvcurveto
          -82 16 152 -148 97 -100 callsubr
        </CharString>
        <CharString name="dvB_JxA">
          505 447 -33 -75 callsubr
          -260 132 -70 callgsubr
          962 311 rmoveto
          -1210 -97 callgsubr
          917 -95 -279 -9 callgsubr
          51 69 -75 89 -57 callgsubr
        </CharString>
        <CharString name="dvB_LA">
          499 16 callgsubr
          968 311 rmoveto
          -1216 -97 callgsubr
          924 105 callgsubr
          -97 hvcurveto
          -17 -22 -21 -26 -16 -11 -127 137 rcurveline
          -89 callsubr
          46 54 15 61 58 hvcurveto
          45 -81 79 -71 59 -51 64 46 rcurveline
          -95 callgsubr
        </CharString>
        <CharString name="dvB_L_YA">
          866 1272 -107 callsubr
          -994 -339 -70 callgsubr
          1335 311 rmoveto
          -1583 -97 callgsubr
          1032 123 callsubr
          -15 -14 -86 -45 vhcurveto
          41 -39 -54 31 -47 -83 callgsubr
          -98 -66 -72 -95 -3 hvcurveto
          -17 -22 -24 -30 -17 -12 -127 137 rcurveline
          -89 callsubr
          46 55 15 63 59 hvcurveto
          45 -82 81 -72 59 -51 64 46 rcurveline
          111 callsubr
          13 12 -3 -4 11 vhcurveto
          -5 99 callgsubr
        </CharString>
        <CharString name="dvB_NA">
          -8 394 39 rmoveto
          133 -79 218 callgsubr
          -709 -97 callgsubr
          415 hlineto
          3 -230 -17 -26 -30 -36 -17 -12 51 callgsubr
          -75 -93 -60 -108 -87 87 -106 96 -8 hvcurveto
          -80 -65 rlineto
          -26 -21 -8 -15 -61 callsubr
          146 149 rcurveline
          -173 35 107 callgsubr
        </CharString>
        <CharString name="dvB_R">
          -254 140 25 rmoveto
          94 -66 235 252 -78 83 -19 -25 -20 -22 -21 -18 rlinecurve
          -125 135 rlineto
          -69 callsubr
          -92 93 -113 104 -2 hvcurveto
          207 433 128 callgsubr
          -463 -97 callgsubr
          247 -349 169 callgsubr
        </CharString>
        <CharString name="dvB_RA">
          -17 680 39 callgsubr
          -700 -97 callgsubr
          409 -233 hlineto
          -18 -24 -21 -22 -20 -18 -125 135 rcurveline
          -69 callsubr
          -92 93 -113 104 -2 hvcurveto
          -96 -73 94 -66 160 171 -9 -102 134 -73 rlineto
          571 vlineto
          -292 -344 169 callgsubr
        </CharString>
        <CharString name="dvB_SA">
          407 815 361 -34 callsubr
          -537 -339 -70 callgsubr
          876 311 rmoveto
          -1124 -97 callgsubr
          516 -185 hlineto
          87 callgsubr
          -12 -19 16 13 -14 vhcurveto
          -54 -75 -17 -22 -20 -27 -15 -11 rlinecurve
          -127 137 rlineto
          -89 callsubr
          52 59 24 85 66 hvcurveto
          53 -73 56 -72 77 -92 -72 callsubr
        </CharString>
        <CharString name="dvB_SHA">
          434 311 635 rmoveto
          -403 -97 callgsubr
          403 hlineto
          -105 -339 -70 callgsubr
          435 80 28 callsubr
          -34 -26 25 15 -17 vhcurveto
          -43 -59 -17 -23 -24 -29 -17 -12 rlinecurve
          -127 137 rlineto
          -89 callsubr
          52 64 19 87 68 hvcurveto
          56 -73 69 -83 67 -77 -50 callsubr
        </CharString>
        <CharString name="dvB_TA">
          314 16 callgsubr
          783 311 rmoveto
          -1031 -97 callgsubr
          744 -101 -165 hlineto
          -105 -55 -48 -88 -5 hvcurveto
          -17 -23 -25 -31 -18 -13 -127 137 rcurveline
          -89 callsubr
          45 54 14 60 57 hvcurveto
          28 -71 47 -73 48 -57 68 45 rcurveline
          -66 callsubr
        </CharString>
        <CharString name="dvB_VA">
          339 16 callgsubr
          809 311 rmoveto
          -1057 -97 callgsubr
          762 -54 callgsubr
          hvcurveto
          -8 1 -7 -8 vvcurveto
          -17 -23 -25 -30 -17 -13 -127 137 rcurveline
          -89 callsubr
          50 60 18 76 65 hvcurveto
          -64 46 73 -46 57 hhcurveto
          -73 callsubr
        </CharString>
        <CharString name="dvB_YA">
          348 754 -107 callsubr
          -476 -339 -70 callgsubr
          817 311 rmoveto
          -1065 -97 callgsubr
          514 -7 callgsubr
          -12 4 -15 7 -15 vhcurveto
          -17 -23 -24 -29 -17 -12 -127 137 rcurveline
          -89 callsubr
          54 66 20 94 70 hvcurveto
          -60 56 77 -52 58 -100 callsubr
        </CharString>
        <CharString name="dvC">
          210 callgsubr
          498 -201 rmoveto
          -91 -50 -65 -50 -66 -46 callgsubr
          -104 127 -109 90 60 62 19 131 99 vhcurveto
          endchar
        </CharString>
        <CharString name="dvCA">
          164 callsubr
          -208 hlineto
          -81 -46 -65 -53 -66 -46 callgsubr
          -104 127 -109 90 60 48 28 31 33 vhcurveto
          endchar
        </CharString>
        <CharString name="dvCH">
          106 660 -20 rmoveto
          59 69 -115 80 rlineto
          23 43 14 48 51 vvcurveto
          104 -84 110 -93 -60 -61 -53 -81 189 callgsubr
          vhcurveto
          -17 callgsubr
          -47 116 rlineto
          -35 callgsubr
          249 468 128 callgsubr
          -823 -97 callgsubr
          564 -194 rmoveto
          149 callgsubr
          -28 24 -19 32 31 vvcurveto
          46 22 41 34 24 7 -26 -17 vhcurveto
          endchar
        </CharString>
        <CharString name="dvCHA">
          106 300 295 rmoveto
          -35 callgsubr
          190 callsubr
          74 258 180 callsubr
          -823 -97 callgsubr
          439 -14 callgsubr
          110 114 rmoveto
          46 22 41 34 24 7 -26 -17 149 callgsubr
          -28 24 -19 32 31 vvcurveto
          endchar
        </CharString>
        <CharString name="dvCH_RA">
          106 504 206 3 callgsubr
          41 325 rmoveto
          258 -25 callsubr
          -823 -97 callgsubr
          439 -55 callsubr
          -20 -20 -11 -27 -32 vvcurveto
          -88 75 -77 91 -34 vhcurveto
          -102 -92 196 callsubr
          0 vlineto
          127 -159 70 46 -125 132 39 16 35 24 29 30 rlinecurve
          50 callgsubr
        </CharString>
        <CharString name="dvCH_R_YA">
          653 501 206 3 callgsubr
          767 429 rmoveto
          -1363 -97 callgsubr
          1072 -250 hlineto
          -16 callsubr
          100 -103 vhcurveto
          -165 hlineto
          15 -23 -25 8 -26 hhcurveto
          -60 -61 -53 -81 189 callgsubr
          hvcurveto
          -17 callgsubr
          -47 116 rlineto
          -2 callgsubr
          -20 -20 -11 -27 -32 vvcurveto
          -85 70 -74 87 -36 vhcurveto
          -110 -99 65 callsubr
          -122 130 44 16 40 25 33 34 rlinecurve
          38 callgsubr
          24 -4 24 -8 23 vhcurveto
          120 117 callgsubr
          endchar
        </CharString>
        <CharString name="dvCH_YA">
          643 504 206 3 callgsubr
          764 429 rmoveto
          -1360 -97 callgsubr
          1069 -250 hlineto
          -16 callsubr
          100 -103 vhcurveto
          -162 hlineto
          15 -23 -25 8 -26 hhcurveto
          -60 -61 -53 -81 189 callgsubr
          hvcurveto
          -17 callgsubr
          -47 116 rlineto
          -35 callgsubr
          38 callgsubr
          24 -4 24 -8 23 vhcurveto
          117 117 callgsubr
          endchar
        </CharString>
        <CharString name="dvC_CA">
          413 402 343 rmoveto
          1 -1 17 1 rlineto
          14 hlineto
          -1 1 56 3 -9 -9 -7 -12 -4 -12 rlinecurve
          -81 -49 -61 -44 -62 hhcurveto
          -35 -31 15 43 44 42 42 68 10 hvcurveto
          697 292 rmoveto
          -1122 242 callsubr
          839 166 callsubr
          -721 hlineto
          72 -106 86 122 callsubr
          -104 127 -109 90 50 52 13 83 74 vhcurveto
          -56 46 68 -40 55 hhcurveto
          60 48 28 31 33 hvcurveto
          -5 -99 -4 callsubr
          153 vlineto
          endchar
        </CharString>
        <CharString name="dvC_CHA">
          486 884 206 3 callgsubr
          41 325 rmoveto
          258 -25 callsubr
          -1195 242 callsubr
          819 -55 callsubr
          -11 -11 -8 -13 -5 -14 rrcurveto
          -52 -56 -75 -38 -59 -46 callgsubr
          -104 127 -109 90 47 51 9 53 78 vhcurveto
          -70 49 95 -49 90 hhcurveto
          85 76 35 57 56 hvcurveto
          50 callgsubr
        </CharString>
        <CharString name="dvC_CH_VA">
          483 881 206 3 callgsubr
          -75 -276 rmoveto
          -68 -46 -58 -54 -54 hhcurveto
          -41 -27 23 41 56 35 47 70 -3 hvcurveto
          -1 9 10 0 10 hhcurveto
          31 31 5 9 28 hvcurveto
          118 546 rmoveto
          258 -25 callsubr
          -1192 242 callsubr
          816 -55 callsubr
          -12 -12 -8 -14 -6 -16 rrcurveto
          -50 -55 -73 -36 -57 -46 callgsubr
          -104 127 -109 90 46 51 9 51 77 vhcurveto
          14 -20 18 -18 21 -16 rrcurveto
          -36 -24 -27 -36 -51 vvcurveto
          -115 132 -103 92 46 37 22 31 31 vhcurveto
          -8 -86 125 -74 rlineto
          460 vlineto
          5 5 50 callgsubr
        </CharString>
        <CharString name="dvC_MA">
          409 814 7 callsubr
          215 callgsubr
          -1118 242 callsubr
          541 234 callgsubr
          141 callsubr
          -5 1 -5 2 -6 hvcurveto
          -63 -46 -53 -34 -55 -46 callgsubr
          -104 127 -109 90 53 55 15 95 81 vhcurveto
          -27 32 33 -20 20 hhcurveto
          -58 callgsubr
        </CharString>
        <CharString name="dvC_NA">
          164 callsubr
          -220 hlineto
          -70 -56 -56 -52 -65 -46 callgsubr
          -85 98 -107 74 -3 vhcurveto
          -75 -62 rlineto
          -26 -21 -8 -15 -61 callsubr
          150 154 rcurveline
          endchar
        </CharString>
        <CharString name="dvC_R">
          210 callgsubr
          214 -520 rmoveto
          94 -66 271 284 -82 86 rlineto
          -69 -54 -60 -57 -66 -46 callgsubr
          -84 102 -115 74 3 vhcurveto
          endchar
        </CharString>
        <CharString name="dvC_RA">
          68 756 531 rmoveto
          -63 104 rlineto
          -758 242 callsubr
          475 -220 hlineto
          -67 -53 -59 -55 -65 -46 callgsubr
          -84 102 -115 74 3 vhcurveto
          -102 -83 94 -66 193 202 -8 -115 -4 callgsubr
          vlineto
          endchar
        </CharString>
        <CharString name="dvC_YA">
          428 833 -98 callgsubr
          -1136 242 callsubr
          593 -7 callgsubr
          -8 2 -9 3 -9 vhcurveto
          -76 -48 -60 -42 -60 -46 callgsubr
          -104 127 -109 90 56 57 16 106 86 vhcurveto
          -59 56 77 -51 57 -100 callsubr
        </CharString>
        <CharString name="dvCandrabindu">
          -605 -258 956 -75 callsubr
          -211 -189 15 callsubr
        </CharString>
        <CharString name="dvD">
          -70 257 -189 -69 callgsubr
          249 417 35 callsubr
          -637 hlineto
          62 -104 rlineto
          325 130 callsubr
          -51 52 67 -33 64 hhcurveto
          26 26 7 11 23 hvcurveto
          86 -133 75 50 -103 123 rlineto
          26 26 16 30 23 -90 callgsubr
          endchar
        </CharString>
        <CharString name="dvDA">
          -70 62 callsubr
          -51 52 67 -33 64 hhcurveto
          26 26 7 11 23 hvcurveto
          86 -133 75 50 -103 123 rlineto
          26 26 16 30 23 -90 callgsubr
          endchar
        </CharString>
        <CharString name="dvDA_mvR">
          -118 395 127 rmoveto
          -54 -55 -73 -24 -48 hhcurveto
          -50 -20 28 26 47 61 14 53 26 23 -4 -4 14 hvcurveto
          -37 104 rlineto
          6 -19 -28 243 callsubr
          -16 -2 -3 -16 hvcurveto
          -20 18 -5 17 12 vvcurveto
          41 46 0 23 vhcurveto
          158 179 164 hlineto
          -71 104 rlineto
          -557 -97 callgsubr
          262 -77 -114 hlineto
          -43 -57 -27 -58 -58 47 -48 22 -19 hvcurveto
          -31 -12 -31 -22 -40 vvcurveto
          -90 113 -126 114 92 67 49 50 43 vhcurveto
          endchar
        </CharString>
        <CharString name="dvDD">
          -82 191 -211 -69 callgsubr
          -93 248 rmoveto
          -106 55 104 -77 111 hhcurveto
          113 83 80 77 68 -69 107 -78 hvcurveto
          -33 callsubr
          endchar
        </CharString>
        <CharString name="dvDDA">
          -82 27 140 rmoveto
          -106 55 104 -77 111 hhcurveto
          113 83 80 77 68 -69 107 -78 hvcurveto
          -33 callsubr
          endchar
        </CharString>
        <CharString name="dvDDH">
          -68 252 -193 -69 callgsubr
          376 725 -23 callsubr
          endchar
        </CharString>
        <CharString name="dvDDHA">
          -68 557 635 -23 callsubr
          endchar
        </CharString>
        <CharString name="dvDDH_DDHA">
          -61 564 635 rmoveto
          -630 -97 callgsubr
          304 -65 -94 hlineto
          -110 -63 -62 -103 -73 37 -80 58 -45 hvcurveto
          -61 -19 -34 -54 -70 136 callsubr
          74 51 33 70 vhcurveto
          59 hlineto
          205 callsubr
          -49 -61 -38 17 -35 21 -26 hvcurveto
          -65 6 -60 56 248 callsubr
          33 70 vhcurveto
          165 181 196 hlineto
          -215 -325 rmoveto
          -33 -35 -36 -38 -13 vhcurveto
          140 callgsubr
          233 callgsubr
          13 6 -6 -9 vhcurveto
          -83 -391 173 callsubr
        </CharString>
        <CharString name="dvDDH_R">
          154 callgsubr
          46 -374 rmoveto
          70 46 -119 126 rlineto
          67 23 43 58 63 vvcurveto
          164 callgsubr
          165 201 183 -25 callsubr
          214 callsubr
          -122 76 -93 86 -49 hvcurveto
          -129 -116 196 callsubr
          -32 -291 -69 callgsubr
          endchar
        </CharString>
        <CharString name="dvDDH_RA">
          154 callgsubr
          38 135 rmoveto
          201 183 180 callsubr
          214 callsubr
          -124 78 -93 87 -48 hvcurveto
          -124 -112 65 callsubr
          -119 126 rlineto
          62 25 40 55 61 vvcurveto
          164 callgsubr
          endchar
        </CharString>
        <CharString name="dvDDH_YA">
          470 352 309 rmoveto
          -62 -49 -53 -61 -38 17 -31 21 -26 hvcurveto
          78 callgsubr
          298 hlineto
          -24 callsubr
          162 vlineto
          -72 104 rlineto
          -1161 -97 callgsubr
          304 -69 -94 hlineto
          -110 -63 -76 -90 -92 43 -75 58 -52 hvcurveto
          -53 58 73 -29 59 hhcurveto
          202 callgsubr
          hvcurveto
          175 153 rmoveto
          -87 69 436 -250 hlineto
          -16 callsubr
          100 -103 vhcurveto
          -189 -322 173 callsubr
        </CharString>
        <CharString name="dvDDHxA">
          -68 557 635 -23 callsubr
          -102 -285 -75 callsubr
          endchar
        </CharString>
        <CharString name="dvDD_DDA">
          -52 305 -19 rmoveto
          113 83 78 77 68 -74 105 -78 hvcurveto
          5 callgsubr
          10 -21 41 -55 41 -30 rlinecurve
          -34 -7 -17 -30 -35 vvcurveto
          -93 103 -111 82 vhcurveto
          49 46 37 33 hhcurveto
          13 5 -5 -7 -48 -69 -45 -76 -77 -49 65 55 -35 hvcurveto
          -66 -44 rlineto
          -106 55 106 220 callgsubr
          78 77 68 -74 105 -78 hvcurveto
          -49 -42 -37 -48 hhcurveto
          -25 -11 14 23 29 19 17 42 hvcurveto
          endchar
        </CharString>
        <CharString name="dvDD_DDHA">
          -52 305 -19 rmoveto
          113 83 78 77 68 -74 105 -78 hvcurveto
          5 callgsubr
          17 -33 36 -45 37 -28 rlinecurve
          -51 -24 -20 -45 -57 136 callsubr
          71 66 36 76 vhcurveto
          42 -194 173 callsubr
        </CharString>
        <CharString name="dvDD_R">
          -82 428 -204 rmoveto
          70 46 -122 129 rlineto
          71 26 46 60 57 vvcurveto
          68 -69 107 -78 vhcurveto
          -33 callsubr
          -66 -44 34 -66 53 -55 62 -31 rlinecurve
          -120 -109 196 callsubr
          -24 -295 -69 callgsubr
          endchar
        </CharString>
        <CharString name="dvDD_RA">
          -82 439 157 callgsubr
          -631 240 callsubr
          -76 -117 hlineto
          20 callgsubr
          -66 -44 35 -66 53 -56 63 -31 rlinecurve
          -117 -106 65 callsubr
          -122 129 rlineto
          68 27 44 58 56 vvcurveto
          68 -69 107 -78 vhcurveto
          -49 -42 -37 -48 hhcurveto
          -25 -14 24 23 29 19 17 42 hvcurveto
          endchar
        </CharString>
        <CharString name="dvDD_VA">
          -52 501 136 rmoveto
          68 -74 105 -78 vhcurveto
          5 callgsubr
          16 -31 43 -51 36 -30 rlinecurve
          -49 -22 -34 -36 -56 vvcurveto
          -115 120 -103 92 37 30 16 23 25 vhcurveto
          -6 -78 125 -68 rlineto
          439 vlineto
          21 25 12 29 30 vvcurveto
          -196 -155 rmoveto
          14 14 1 2 13 hvcurveto
          2 -52 rlineto
          -62 -36 -47 -44 -51 hhcurveto
          -33 -30 22 41 56 42 41 70 -2 hvcurveto
          -2 14 14 -1 14 hhcurveto
          endchar
        </CharString>
        <CharString name="dvDD_YA">
          470 33 140 rmoveto
          77 callgsubr
          338 hlineto
          40 23 -3 -44 callgsubr
          162 vlineto
          -72 104 rlineto
          -1177 240 callsubr
          -73 208 callsubr
          -35 -22 callsubr
          428 274 rmoveto
          -82 73 431 -250 hlineto
          -16 callsubr
          96 -103 vhcurveto
          endchar
        </CharString>
        <CharString name="dvDDxA">
          -90 23 140 rmoveto
          -106 55 104 -77 111 hhcurveto
          113 83 80 77 68 -69 107 -78 hvcurveto
          -33 callsubr
          113 -373 -75 callsubr
          endchar
        </CharString>
        <CharString name="dvDH">
          -245 173 461 rmoveto
          108 callgsubr
          -123 126 -103 107 45 88 19 120 94 vhcurveto
          -84 103 rlineto
          -81 -56 -62 -56 -73 hhcurveto
          -43 -30 26 34 48 53 11 35 29 28 -5 -12 41 hvcurveto
          -39 128 rlineto
          4 -28 -37 5 -29 hhcurveto
          -8 -12 0 -1 -5 hvcurveto
          -16 13 -6 13 19 vvcurveto
          205 70 rmoveto
          73 hlineto
          -71 104 rlineto
          -74 hlineto
          endchar
        </CharString>
        <CharString name="dvDHA">
          3 376 531 rmoveto
          32 -246 hlineto
          -48 -39 -58 -59 -73 -83 callsubr
          109 hlineto
          -72 104 rlineto
          -345 -97 callgsubr
          45 -27 callsubr
          -123 126 -103 107 45 49 19 25 34 vhcurveto
          -5 -81 129 -76 186 callsubr
          -324 hlineto
          endchar
        </CharString>
        <CharString name="dvDH_MA">
          338 743 7 callsubr
          215 callgsubr
          -654 hlineto
          67 -104 rlineto
          74 225 callgsubr
          -51 -45 -49 -33 -56 -83 callsubr
          99 -25 callsubr
          -337 -97 callgsubr
          47 -27 callsubr
          -123 126 -103 107 39 71 14 82 80 vhcurveto
          -17 24 23 -12 15 hhcurveto
          -58 callgsubr
        </CharString>
        <CharString name="dvDH_NA">
          3 173 461 rmoveto
          108 callgsubr
          -101 94 -99 85 -10 vhcurveto
          -36 -30 rlineto
          -26 -21 -8 -15 -61 callsubr
          104 107 rcurveline
          -5 -89 129 -76 186 callsubr
          -322 -97 callgsubr
          30 -251 hlineto
          -59 -50 -56 -43 -62 hhcurveto
          -43 -30 26 34 48 53 11 35 29 28 -5 -12 41 hvcurveto
          -39 128 rlineto
          4 -28 -37 5 -29 hhcurveto
          -8 -12 0 -1 -5 hvcurveto
          -16 13 -6 13 19 vvcurveto
          endchar
        </CharString>
        <CharString name="dvDH_N_YA">
          379 785 -98 callgsubr
          -698 -97 callgsubr
          147 -7 callgsubr
          -11 3 -12 6 -14 vhcurveto
          -67 -53 -60 -51 -68 hhcurveto
          -43 -30 26 34 48 53 11 35 29 28 -5 -12 41 hvcurveto
          -39 128 rlineto
          4 -28 -37 5 -29 hhcurveto
          -8 -12 0 -1 -5 hvcurveto
          -16 13 -6 13 19 vvcurveto
          108 callgsubr
          -101 94 -99 85 -10 vhcurveto
          -36 -30 rlineto
          -26 -21 -8 -15 -61 callsubr
          177 183 rcurveline
          -60 57 76 -52 58 -100 callsubr
        </CharString>
        <CharString name="dvDH_R">
          -246 515 229 rmoveto
          -82 83 rlineto
          -76 -57 -64 -58 -73 -83 callsubr
          109 hlineto
          -72 104 rlineto
          -346 -97 callgsubr
          46 -27 callsubr
          -104 97 -105 101 -6 vhcurveto
          -99 -77 96 -69 rlineto
          128 593 rmoveto
          73 hlineto
          -71 104 rlineto
          -74 hlineto
          endchar
        </CharString>
        <CharString name="dvDH_RA">
          3 153 7 rmoveto
          204 callgsubr
          -71 104 rlineto
          -323 -97 callgsubr
          32 -250 hlineto
          -60 -51 -56 -43 -63 -83 callsubr
          109 hlineto
          -72 104 rlineto
          -346 -97 callgsubr
          46 -27 callsubr
          -104 97 -105 101 -6 vhcurveto
          endchar
        </CharString>
        <CharString name="dvDH_VA">
          340 957 635 rmoveto
          -635 -97 callgsubr
          350 -54 callgsubr
          -15 2 -14 3 -14 hvcurveto
          -58 -47 -53 -37 -59 -83 callsubr
          99 -25 callsubr
          -337 -97 callgsubr
          47 -27 callsubr
          -123 126 -103 107 37 65 13 69 74 vhcurveto
          -50 46 60 -34 49 129 callsubr
        </CharString>
        <CharString name="dvDH_YA">
          352 759 -98 callgsubr
          -668 -97 callgsubr
          117 -7 callgsubr
          -16 6 -19 11 -20 vhcurveto
          -61 -48 -54 -39 -61 -83 callsubr
          99 -25 callsubr
          -337 -97 callgsubr
          47 -27 callsubr
          -123 126 -103 107 40 75 15 89 82 vhcurveto
          -49 53 64 -39 50 -100 callsubr
        </CharString>
        <CharString name="dvD_BA">
          22 callgsubr
          -97 -410 rmoveto
          -47 -26 26 37 7 1 7 3 6 hvcurveto
          120 -65 rlineto
          -11 -16 -17 -7 -18 hhcurveto
          92 103 rmoveto
          240 callgsubr
          -11 -13 -12 -14 -13 -14 -114 61 rcurveline
          28 7 30 -2 7 -2 14 -6 17 -7 17 -4 rrcurveto
          endchar
        </CharString>
        <CharString name="dvD_BHA">
          10 515 52 callgsubr
          -717 hlineto
          62 -104 rlineto
          405 130 callsubr
          24 -24 29 -22 34 -8 -83 -52 rcurveline
          -46 64 -20 28 -22 16 -35 4 rlinecurve
          -69 6 -40 5 -23 -9 -25 -18 rlinecurve
          -79 -57 100 -38 55 40 17 12 20 -3 12 -17 rlinecurve
          70 -97 rlineto
          -25 -17 -11 -15 -14 vvcurveto
          -42 86 -18 60 24 45 1 30 7 -3 6 -5 7 vhcurveto
          -26 36 194 122 86 -132 75 50 -103 123 rlineto
          26 26 16 30 23 -90 callgsubr
          endchar
        </CharString>
        <CharString name="dvD_B_RA">
          -49 450 351 rmoveto
          161 callsubr
          -62 104 rlineto
          -659 hlineto
          62 -104 rlineto
          340 139 callsubr
          -43 15 -43 23 -39 hvcurveto
          137 callsubr
          -83 92 -85 86 -13 vhcurveto
          -88 -72 94 -66 159 162 43 43 30 63 10 58 rlinecurve
          68 -123 84 59 -105 126 rlineto
          17 22 11 22 19 -90 callgsubr
          -97 -410 rmoveto
          -47 -26 26 37 7 1 7 3 6 hvcurveto
          120 -65 rlineto
          -11 -16 -17 -7 -18 hhcurveto
          92 103 rmoveto
          240 callgsubr
          -11 -13 -12 -14 -13 -14 -114 61 rcurveline
          28 7 30 -2 7 -2 14 -6 17 -7 17 -4 rrcurveto
          endchar
        </CharString>
        <CharString name="dvD_DA">
          -68 461 33 rmoveto
          39 -29 61 -46 -40 -40 -16 -43 -11 2 -16 3 -8 vhcurveto
          -9 -23 -28 -3 -29 hhcurveto
          -44 -24 24 26 71 161 20 57 6 hvcurveto
          -56 107 rlineto
          -17 -84 -10 -18 -47 hvcurveto
          -14 15 -8 20 17 vvcurveto
          38 32 15 37 vhcurveto
          168 173 164 hlineto
          -71 104 rlineto
          -567 -97 callgsubr
          272 -71 -115 hlineto
          -62 -47 -27 -58 -58 48 -73 22 -19 hvcurveto
          -36 -20 -23 -26 -40 vvcurveto
          -118 136 -95 99 23 27 2 8 26 vhcurveto
          90 -149 84 59 -105 126 rlineto
          20 18 12 21 22 vvcurveto
          endchar
        </CharString>
        <CharString name="dvD_DHA">
          45 641 635 rmoveto
          -723 hlineto
          62 -104 rlineto
          434 139 callsubr
          -42 13 -42 23 -38 hvcurveto
          -12 -8 -11 -10 -10 -9 rrcurveto
          -42 6 -22 23 31 vvcurveto
          28 14 27 13 14 vhcurveto
          -102 49 rlineto
          -31 -30 -18 -44 -36 vvcurveto
          -66 56 -56 84 -3 vhcurveto
          -9 -18 -5 -21 -18 vvcurveto
          -102 128 -42 80 97 99 52 104 12 vhcurveto
          83 -134 84 59 -105 126 rlineto
          17 22 11 22 19 -90 callgsubr
          159 180 159 hlineto
          -431 -431 rmoveto
          22 -18 25 -15 25 -11 10 -4 10 -3 10 -3 rrcurveto
          228 callsubr
          22 17 hvcurveto
          endchar
        </CharString>
        <CharString name="dvD_GA">
          -73 479 -73 rmoveto
          84 59 -105 126 rlineto
          17 22 11 22 19 -90 callgsubr
          159 180 159 hlineto
          84 callsubr
          rrcurveto
          -12 -83 0 -219 0 vvcurveto
          113 -60 rlineto
          388 vlineto
          endchar
        </CharString>
        <CharString name="dvD_GHA">
          45 544 351 rmoveto
          180 159 84 callgsubr
          -723 hlineto
          62 -104 rlineto
          434 -60 -79 hlineto
          -81 -50 -28 -44 -26 hvcurveto
          -156 -16 -41 -85 -59 vvcurveto
          -77 71 -45 60 -11 vhcurveto
          -9 -18 -5 -21 -18 vvcurveto
          -102 128 -42 80 97 99 52 104 12 vhcurveto
          83 -134 84 59 -105 126 rlineto
          17 22 11 22 19 -90 callgsubr
          -11 -305 rmoveto
          228 callsubr
          21 17 hvcurveto
          32 -25 35 -19 36 -10 rrcurveto
          -181 144 rmoveto
          -12 -8 -11 -10 -10 -9 rrcurveto
          -39 8 -28 27 28 vvcurveto
          35 35 20 30 9 vhcurveto
          3 -34 13 -34 19 -32 rrcurveto
          endchar
        </CharString>
        <CharString name="dvD_G_RA">
          -73 426 351 rmoveto
          180 159 vlineto
          84 callsubr
          -4 -29 -3 -47 -2 -48 -216 -199 rcurveline
          89 -61 124 145 rlineto
          -37 0 -26 0 vhcurveto
          113 -60 rlineto
          388 vlineto
          75 -137 84 59 -105 126 rlineto
          17 22 11 22 19 -90 callgsubr
          endchar
        </CharString>
        <CharString name="dvD_MA">
          182 309 -34 216 callgsubr
          179 -121 vlineto
          113 -78 rlineto
          884 152 84 callgsubr
          -889 hlineto
          62 -104 rlineto
          316 139 callsubr
          -63 30 -63 46 -49 hvcurveto
          -56 52 72 -38 69 hhcurveto
          7 -77 hlineto
          111 385 rmoveto
          180 178 -565 -179 120 vlineto
          35 28 23 36 28 vvcurveto
          44 -60 65 -49 -38 -21 -36 -39 vhcurveto
          -46 vlineto
          0 -23 -17 -29 -67 -44 43 67 60 35 32 80 vhcurveto
          endchar
        </CharString>
        <CharString name="dvD_NA">
          -70 62 callsubr
          26 -26 27 -22 45 -10 -64 -33 rcurveline
          -24 -13 -20 -16 -24 vvcurveto
          -59 90 -46 47 18 18 8 18 7 -4 11 -4 10 vhcurveto
          -7 19 -10 20 -2 4 122 86 rcurveline
          86 -133 75 50 -103 123 rlineto
          26 26 16 30 23 -90 callgsubr
          endchar
        </CharString>
        <CharString name="dvD_R">
          -77 62 callsubr
          30 -30 43 -28 40 -10 -153 -90 rcurveline
          94 -66 204 158 86 -133 75 50 -103 123 rlineto
          26 26 16 30 23 -90 callgsubr
          20 -572 -69 callgsubr
          endchar
        </CharString>
        <CharString name="dvD_RA">
          -70 62 callsubr
          30 -30 43 -28 40 -10 -153 -90 rcurveline
          94 -66 204 158 86 -133 75 50 -103 123 rlineto
          26 26 16 30 23 -90 callgsubr
          endchar
        </CharString>
        <CharString name="dvD_VA">
          22 callgsubr
          -5 -307 rmoveto
          240 callgsubr
          rrcurveto
          -38 -34 -40 -59 -55 hhcurveto
          211 callsubr
          rrcurveto
          endchar
        </CharString>
        <CharString name="dvD_YA">
          37 54 403 rmoveto
          -46 49 -50 20 -13 vhcurveto
          -38 -12 -24 -22 -34 vvcurveto
          -96 124 -106 110 60 48 23 30 39 vhcurveto
          -47 vlineto
          130 -70 221 callgsubr
          -71 103 rlineto
          -754 hlineto
          72 -103 rlineto
          252 -47 -73 hlineto
          -76 -29 -36 -45 hvcurveto
          388 128 rmoveto
          -314 vlineto
          -52 -52 -89 -42 -63 hhcurveto
          -33 -29 11 29 45 53 3 42 29 31 -5 -7 20 hvcurveto
          -36 111 rlineto
          6 -19 -28 243 callsubr
          -16 -2 -3 -16 hvcurveto
          -13 13 -7 12 14 vvcurveto
          28 24 1 51 vhcurveto
          26 49 -1 36 hhcurveto
          150 vlineto
          endchar
        </CharString>
        <CharString name="dvE">
          -44 566 635 rmoveto
          -645 -19 callsubr
          endchar
        </CharString>
        <CharString name="dvEcandra">
          -34 577 635 rmoveto
          -645 -19 callsubr
          -574 329 15 callsubr
        </CharString>
        <CharString name="dvEight">
          -56 418 206 rmoveto
          -77 -29 -59 -72 -73 hhcurveto
          -48 -45 35 44 29 10 30 35 45 hvcurveto
          254 329 -112 67 -278 -341 rlineto
          -27 -33 -10 -36 -33 vvcurveto
          -114 149 -134 117 130 62 100 86 34 vhcurveto
          -106 76 rlineto
          endchar
        </CharString>
        <CharString name="dvEyelash">
          -414 383 39 callgsubr
          -403 -97 callgsubr
          -22 -206 rmoveto
          -71 65 72 -33 66 hhcurveto
          75 66 29 31 43 hvcurveto
          -68 112 rlineto
          -35 -44 -57 -23 -51 hhcurveto
          -35 -50 11 32 -41 hvcurveto
          endchar
        </CharString>
        <CharString name="dvEyelash_HA">
          107 633 362 158 callgsubr
          -820 -97 callgsubr
          527 -56 -142 hlineto
          -76 -44 -33 -66 hvcurveto
          -5 vlineto
          -22 -38 -43 -14 -39 209 callsubr
          54 49 15 20 39 hvcurveto
          5 -6 5 -5 6 -6 rrcurveto
          -33 -31 -23 -42 -51 vvcurveto
          -140 212 -135 65 -38 vhcurveto
          70 52 rlineto
          -64 29 -160 85 105 -47 callsubr
          endchar
        </CharString>
        <CharString name="dvEyelash_YA">
          170 576 -98 callgsubr
          -887 -97 callgsubr
          336 156 callgsubr
          -4 -5 -5 -3 -6 rrcurveto
          -11 -27 -28 -6 -26 209 callsubr
          31 30 5 8 27 hvcurveto
          -72 56 95 -73 69 -100 callsubr
        </CharString>
        <CharString name="dvFive">
          15 333 -48 rmoveto
          272 -57 443 173 -27 hvcurveto
          -126 56 14 -72 11 -70 7 -74 rlinecurve
          -32 -23 -49 -49 -55 hhcurveto
          -45 -44 31 63 56 21 44 27 46 hvcurveto
          -123 65 rlineto
          -28 -66 -9 -40 -52 vvcurveto
          -127 164 -112 88 44 25 19 22 25 vhcurveto
          -118 -28 -110 -112 -18 -15 5 7 -10 vhcurveto
          72 -45 -41 46 -35 hhcurveto
          -31 -31 -35 -29 -53 68 -48 80 -33 hvcurveto
          119 -217 71 45 -102 145 rlineto
          -1 8 3 0 7 hhcurveto
          endchar
        </CharString>
        <CharString name="dvFour">
          16 291 409 rmoveto
          -217 231 -58 -48 226 -239 -65 -74 rlineto
          -32 -36 -17 -32 -40 vvcurveto
          -84 115 -135 102 95 64 74 71 69 -50 70 -49 52 vhcurveto
          -28 29 205 239 -94 76 rlineto
          -261 -523 rmoveto
          32 29 33 13 16 vhcurveto
          60 71 rlineto
          35 -38 32 -37 -39 vvcurveto
          -61 -54 -44 -50 -43 -22 26 41 vhcurveto
          endchar
        </CharString>
        <CharString name="dvG">
          -333 292 635 rmoveto
          -388 -82 callsubr
          156 vlineto
          endchar
        </CharString>
        <CharString name="dvGA">
          -89 446 531 rmoveto
          168 hlineto
          -78 104 rlineto
          -632 -82 callsubr
          102 -492 vlineto
          130 -79 rlineto
          endchar
        </CharString>
        <CharString name="dvGH">
          -234 433 318 rmoveto
          -83 -61 -59 -54 -74 hhcurveto
          -15 callsubr
          247 hlineto
          -71 104 rlineto
          -483 -18 callsubr
          -106 124 -114 120 51 76 25 123 83 vhcurveto
          endchar
        </CharString>
        <CharString name="dvGHA">
          0 535 -40 rmoveto
          231 callsubr
          -717 -18 callsubr
          -106 124 -114 120 42 37 16 25 34 vhcurveto
          -6 -77 rlineto
          -97 370 rmoveto
          6 -19 -28 5 -23 hhcurveto
          -17 -16 -2 -3 -16 hvcurveto
          -12 12 -7 18 257 callgsubr
          36 27 10 vhcurveto
          190 -246 hlineto
          -47 -33 -60 -57 -73 155 callsubr
          endchar
        </CharString>
        <CharString name="dvGH_MA">
          335 741 7 callsubr
          -433 -125 rmoveto
          6 -19 -28 5 -23 hhcurveto
          -17 -16 -2 -3 -16 hvcurveto
          -12 12 -7 18 257 callgsubr
          36 27 10 vhcurveto
          233 225 callgsubr
          -50 -46 -47 -31 -56 155 callsubr
          617 350 rmoveto
          -1053 -18 callsubr
          -106 124 -114 120 44 61 18 82 69 vhcurveto
          -19 25 25 -13 16 hhcurveto
          -58 callgsubr
        </CharString>
        <CharString name="dvGH_NA">
          0 696 531 rmoveto
          -71 104 rlineto
          -717 -18 callsubr
          -90 104 -114 89 7 vhcurveto
          -63 -52 rlineto
          -26 -21 -8 -15 -61 callsubr
          115 118 rcurveline
          -6 -84 130 -76 rlineto
          571 vlineto
          -296 -350 104 callgsubr
          hlineto
          4 -246 rlineto
          -69 -59 -59 -35 -52 hhcurveto
          endchar
        </CharString>
        <CharString name="dvGH_R">
          -234 141 -6 rmoveto
          94 -66 273 292 -82 87 rlineto
          -59 -45 -68 -67 -74 hhcurveto
          -15 callsubr
          247 hlineto
          -71 104 rlineto
          -483 -18 callsubr
          -85 95 -117 107 -3 vhcurveto
          endchar
        </CharString>
        <CharString name="dvGH_RA">
          0 141 -6 rmoveto
          94 -66 176 188 -8 -86 132 -70 186 callsubr
          -717 -18 callsubr
          -85 95 -117 107 -3 vhcurveto
          -17 94 104 callgsubr
          -251 hlineto
          -51 -44 -59 -48 -63 hhcurveto
          endchar
        </CharString>
        <CharString name="dvGH_YA">
          347 752 -107 callsubr
          -444 -125 rmoveto
          6 -19 -28 5 -23 hhcurveto
          -17 -16 -2 -3 -16 hvcurveto
          -12 12 -7 18 257 callgsubr
          36 27 10 vhcurveto
          277 -7 callgsubr
          -17 7 -20 12 -22 vhcurveto
          -57 -49 -50 -36 -60 155 callsubr
          627 350 rmoveto
          -1063 -18 callsubr
          -106 124 -114 120 45 63 19 87 71 vhcurveto
          -50 53 65 -39 50 -100 callsubr
        </CharString>
        <CharString name="dvG_BA">
          261 547 192 115 callgsubr
          -982 -82 callsubr
          450 vlineto
          58 callsubr
          -75 -93 -60 -108 -103 114 -115 112 136 callgsubr
        </CharString>
        <CharString name="dvG_BHA">
          247 872 41 callsubr
          -390 -82 callsubr
          116 vlineto
          117 callsubr
        </CharString>
        <CharString name="dvG_BH_YA">
          600 1006 -98 callgsubr
          -720 116 callgsubr
          170 181 callgsubr
          -130 93 -29 callsubr
          -400 -82 callsubr
          126 vlineto
          24 17 -17 -23 hvcurveto
          -141 -18 vlineto
          -39 -14 -17 -24 83 callgsubr
          174 vlineto
          -71 56 93 -71 68 -100 callsubr
        </CharString>
        <CharString name="dvG_DA">
          189 694 52 callgsubr
          -910 -82 callsubr
          350 -80 -79 vlineto
          92 callsubr
          -51 52 67 -33 64 hhcurveto
          26 26 7 11 23 hvcurveto
          86 -133 75 50 -103 123 rlineto
          26 26 16 30 23 -90 callgsubr
          endchar
        </CharString>
        <CharString name="dvG_DHA">
          -605 endchar
        </CharString>
        <CharString name="dvG_DH_VA">
          673 1299 635 -39 callgsubr
          -647 -82 callsubr
          142 vlineto
          137 callgsubr
          -123 126 -103 107 40 74 15 87 81 vhcurveto
          -61 47 70 -43 55 hhcurveto
          -73 callsubr
        </CharString>
        <CharString name="dvG_DH_YA">
          694 1100 318 -31 callgsubr
          -6 1 -6 2 -7 vhcurveto
          -80 -56 -62 -56 -73 -83 callsubr
          109 hlineto
          -72 104 rlineto
          -650 -82 callsubr
          145 vlineto
          137 callgsubr
          -123 126 -103 107 43 84 18 108 90 vhcurveto
          -59 56 76 -51 57 -100 callsubr
        </CharString>
        <CharString name="dvG_GA">
          159 784 635 rmoveto
          -880 -82 callsubr
          123 -167 vlineto
          -47 -21 -13 -29 -57 98 -95 55 27 13 15 63 hvcurveto
          205 callgsubr
        </CharString>
        <CharString name="dvG_GHA">
          273 678 285 rmoveto
          -47 -33 -60 -57 -73 hhcurveto
          106 callsubr
          hlineto
          215 callgsubr
          -994 -82 callsubr
          115 vlineto
          -5 -11 -4 -16 -17 vvcurveto
          -42 37 -33 30 -22 vhcurveto
          -38 -21 -22 -35 -42 vvcurveto
          -106 124 -114 120 42 37 16 25 34 vhcurveto
          -6 -77 130 -76 153 callsubr
        </CharString>
        <CharString name="dvG_JA">
          369 996 635 rmoveto
          -1092 -82 callsubr
          561 -95 -279 vlineto
          -99 callgsubr
          139 -284 hlineto
          130 -77 94 callsubr
          endchar
        </CharString>
        <CharString name="dvG_LA">
          430 1055 635 rmoveto
          -1151 -82 callsubr
          621 -110 vlineto
          21 -31 -34 14 -31 -103 callsubr
          61 24 54 67 140 callsubr
          vhcurveto
          -301 vlineto
          158 callsubr
          endchar
        </CharString>
        <CharString name="dvG_MA">
          257 661 7 callsubr
          215 callgsubr
          -977 -82 callsubr
          154 -182 -1 vlineto
          -44 -28 -13 -34 -56 117 -106 46 -58 callgsubr
        </CharString>
        <CharString name="dvG_NA">
          -89 446 531 rmoveto
          168 hlineto
          -78 104 rlineto
          -632 hlineto
          76 -104 rlineto
          109 -127 hlineto
          -47 -21 -13 -29 -57 98 -95 55 27 13 15 63 hvcurveto
          243 102 -270 vlineto
          -215 -166 rlineto
          -26 -21 -8 -15 75 callgsubr
          97 90 rcurveline
          -101 166 callgsubr
          endchar
        </CharString>
        <CharString name="dvG_NNA">
          428 591 310 -13 callgsubr
          461 104 rmoveto
          -1148 -82 callsubr
          120 -180 vlineto
          -60 46 -63 57 -45 vhcurveto
          47 callsubr
        </CharString>
        <CharString name="dvG_N_YA">
          265 671 -98 callgsubr
          -986 -82 callsubr
          197 127 callsubr
          -25 16 -34 26 -34 vhcurveto
          -215 -177 rlineto
          -26 -21 -8 -15 75 callgsubr
          155 158 rcurveline
          -49 53 63 -38 50 -100 callsubr
        </CharString>
        <CharString name="dvG_R">
          -333 292 635 rmoveto
          -388 -82 callsubr
          156 vlineto
          -16 -280 rmoveto
          -269 -233 94 -66 236 241 rlineto
          endchar
        </CharString>
        <CharString name="dvG_RA">
          80 callgsubr
          endchar
        </CharString>
        <CharString name="dvG_R_YA">
          268 674 -98 callgsubr
          -989 -82 callsubr
          200 127 callsubr
          -25 16 -33 25 -34 vhcurveto
          -257 -223 94 -66 221 225 rlineto
          -49 53 64 -39 50 -100 callsubr
        </CharString>
        <CharString name="dvG_SA">
          323 731 361 -34 callsubr
          217 104 rmoveto
          -1044 -82 callsubr
          198 -185 vlineto
          -51 callgsubr
          -65 -58 72 -108 87 -119 106 -128 rlinecurve
          86 47 -77 79 -60 78 -35 48 rlinecurve
          -64 callgsubr
        </CharString>
        <CharString name="dvG_VA">
          264 890 635 rmoveto
          -986 -82 callsubr
          453 vlineto
          -86 callgsubr
          -73 -81 -60 -106 -124 132 -121 93 -73 callsubr
        </CharString>
        <CharString name="dvG_YA">
          277 683 -98 callgsubr
          -998 -82 callsubr
          209 44 callgsubr
        </CharString>
        <CharString name="dvGx">
          -333 292 635 rmoveto
          -388 -82 callsubr
          156 vlineto
          -318 -593 -75 callsubr
          endchar
        </CharString>
        <CharString name="dvGxA">
          -58 461 531 rmoveto
          168 hlineto
          -78 104 rlineto
          -632 -82 callsubr
          102 -492 vlineto
          130 -79 rlineto
          -383 8 -75 callsubr
          endchar
        </CharString>
        <CharString name="dvGx_R">
          -333 292 635 rmoveto
          -388 -82 callsubr
          156 vlineto
          -16 -280 rmoveto
          -269 -233 94 -66 236 241 rlineto
          -137 -235 -75 callsubr
          endchar
        </CharString>
        <CharString name="dvGx_RA">
          80 callgsubr
          -419 -633 -75 callsubr
          endchar
        </CharString>
        <CharString name="dvH">
          -95 322 186 rmoveto
          350 hlineto
          -78 113 rlineto
          -323 hlineto
          -27 -28 -6 -10 -26 hvcurveto
          -11 12 -7 12 12 148 callgsubr
          212 169 163 -25 callsubr
          -622 -97 callgsubr
          333 -56 -142 hlineto
          -76 -44 -33 -66 -39 21 -45 50 -50 hvcurveto
          -33 -30 -22 -41 -51 vvcurveto
          -140 214 -140 65 -38 vhcurveto
          70 52 rlineto
          -64 29 -160 95 105 vvcurveto
          71 74 32 56 vhcurveto
          endchar
        </CharString>
        <CharString name="dvHA">
          55 callgsubr
          -140 212 -135 65 -38 vhcurveto
          70 52 rlineto
          -64 29 -160 85 105 vvcurveto
          71 77 44 56 29 16 -9 -18 -26 -26 -43 -64 -25 vhcurveto
          endchar
        </CharString>
        <CharString name="dvHA_mU">
          -91 321 -94 rmoveto
          -64 41 -65 59 67 vvcurveto
          71 77 44 56 29 16 -9 -18 -26 -26 -43 -64 -25 vhcurveto
          94 -100 rlineto
          62 callgsubr
          -92 91 -90 81 -61 vhcurveto
          -24 -27 -9 -38 5 -31 99 -59 rcurveline
          98 callsubr
          endchar
        </CharString>
        <CharString name="dvHA_mUU">
          55 callgsubr
          -78 65 -76 70 -59 vhcurveto
          -51 -23 -34 -47 -59 vvcurveto
          249 callsubr
          vhcurveto
          226 callsubr
          47 42 33 46 82 81 -101 -94 62 hvcurveto
          55 47 -64 104 -97 133 -123 22 rlinecurve
          -60 41 -57 55 63 vvcurveto
          71 77 44 56 29 16 -9 -18 -26 -26 -43 -64 -25 vhcurveto
          endchar
        </CharString>
        <CharString name="dvHA_mvR">
          -45 502 124 rmoveto
          79 -135 86 229 callsubr
          27 18 16 37 vhcurveto
          212 169 228 -25 callsubr
          -672 81 callgsubr
          -42 24 -49 59 -54 hvcurveto
          -40 -31 -27 -42 -52 vvcurveto
          -193 225 -139 175 callsubr
          -184 104 129 vvcurveto
          92 95 33 51 26 24 -5 -12 -8 -17 -14 -8 -6 vhcurveto
          -38 -29 -31 -27 -38 vvcurveto
          -84 108 -98 92 66 56 35 41 37 vhcurveto
          -80 69 rlineto
          -37 -35 -43 -20 -44 hhcurveto
          -35 -25 15 34 hvcurveto
          43 135 49 43 vvcurveto
          endchar
        </CharString>
        <CharString name="dvH_LA">
          30 374 -106 rmoveto
          -38 30 -48 42 52 vvcurveto
          34 25 17 27 9 8 -2 -3 7 vhcurveto
          -2 -9 -1 -9 -9 vvcurveto
          -18 5 -21 12 -20 vhcurveto
          64 -24 rlineto
          -8 18 -5 19 20 vvcurveto
          33 13 33 36 8 7 -1 -3 6 vhcurveto
          -150 vlineto
          104 -70 34 callsubr
          81 56 -33 -32 7 vhcurveto
          8 -16 -17 5 -19 hhcurveto
          -26 -22 -12 -19 -14 hvcurveto
          19 -19 -26 14 -29 hhcurveto
          -65 -35 -44 -52 -88 81 -61 39 -36 hvcurveto
          endchar
        </CharString>
        <CharString name="dvH_MA">
          199 358 71 216 callgsubr
          147 -131 vlineto
          113 -58 rlineto
          769 162 180 callsubr
          -916 81 callgsubr
          -41 24 -49 57 -53 hvcurveto
          -39 -31 -26 -44 -52 vvcurveto
          -193 225 -129 175 callsubr
          -184 94 129 vvcurveto
          92 95 37 51 50 0 -21 -34 vhcurveto
          -51 vlineto
          60 460 rmoveto
          197 -460 -149 39 hlineto
          42 -94 137 -92 -33 -34 -6 -12 -31 vhcurveto
          -18 14 -13 18 16 148 callgsubr
          212 hlineto
          endchar
        </CharString>
        <CharString name="dvH_NA">
          -41 436 362 rmoveto
          169 220 180 callsubr
          -676 -97 callgsubr
          330 -56 -154 194 callsubr
          224 -117 175 callsubr
          -183 82 129 vvcurveto
          92 98 50 68 28 21 -4 -6 15 vhcurveto
          -150 -109 rlineto
          -25 -18 -6 -15 -13 vvcurveto
          -50 74 -32 56 27 15 11 14 4 0 4 -4 8 vhcurveto
          -5 10 -10 15 -22 30 91 73 rcurveline
          -159 vlineto
          104 -70 -1 178 168 callsubr
          endchar
        </CharString>
        <CharString name="dvH_NNA">
          -41 598 -137 rmoveto
          -1 198 rlineto
          104 -154 134 -137 -49 -42 -8 -13 -35 vhcurveto
          -14 13 -9 14 14 148 callgsubr
          254 169 190 250 callsubr
          360 -56 -184 hlineto
          -76 -44 -33 -66 -40 22 -46 52 -51 hvcurveto
          -47 -38 -24 -53 -57 vvcurveto
          -193 258 -139 45 -24 vhcurveto
          67 43 rlineto
          -37 17 -224 114 129 vvcurveto
          46 17 39 36 26 vhcurveto
          -70 vlineto
          -36 24 -35 31 -26 vhcurveto
          -27 32 38 -17 27 hhcurveto
          59 35 43 57 hvcurveto
          134 vlineto
          33 -14 19 -21 -19 vvcurveto
          -185 vlineto
          -145 257 rmoveto
          7 -131 hlineto
          -35 -14 -12 -22 -22 -15 18 28 vhcurveto
          126 vlineto
          4 20 22 2 24 hhcurveto
          endchar
        </CharString>
        <CharString name="dvH_RA">
          -41 303 -49 rmoveto
          136 155 rlineto
          -143 vlineto
          104 -70 -1 168 168 callsubr
          242 169 202 250 callsubr
          348 -56 -172 194 callsubr
          234 -127 175 callsubr
          -193 92 129 vvcurveto
          92 98 50 68 24 19 -3 -5 15 vhcurveto
          -185 -162 rlineto
          endchar
        </CharString>
        <CharString name="dvH_VA">
          32 603 -147 rmoveto
          34 callsubr
          61 47 -19 -23 22 vhcurveto
          -1 -4 -2 -4 -2 -5 rrcurveto
          14 -33 -43 13 -49 hhcurveto
          -73 -73 -52 -57 -79 85 -79 77 52 45 47 50 32 hvcurveto
          -69 vlineto
          -173 44 rmoveto
          -26 -7 16 20 58 72 27 44 13 17 -2 -3 13 hvcurveto
          -56 -34 -49 -60 -43 hhcurveto
          endchar
        </CharString>
        <CharString name="dvH_YA">
          193 52 106 rmoveto
          -193 225 -135 175 callsubr
          -184 100 129 vvcurveto
          92 95 33 51 33 17 -11 -14 -13 -62 -36 -24 -15 vhcurveto
          -16 -10 -17 -7 -22 vvcurveto
          -71 146 -144 93 59 47 36 23 26 vhcurveto
          -5 -97 117 -60 rlineto
          799 162 180 callsubr
          -910 81 callgsubr
          -42 24 -49 59 -54 hvcurveto
          -40 -31 -27 -42 -52 vvcurveto
          105 213 rmoveto
          134 callgsubr
          212 169 188 -478 hlineto
          -49 -31 -73 -64 -70 hhcurveto
          -31 -34 16 28 9 4 5 24 14 hvcurveto
          53 31 38 37 21 vvcurveto
          79 -125 109 229 callsubr
          endchar
        </CharString>
        <CharString name="dvI">
          -59 508 108 rmoveto
          82 -87 98 -78 vhcurveto
          -53 -44 -34 -54 hhcurveto
          -21 -8 14 16 31 21 28 41 hvcurveto
          236 188 163 hlineto
          -71 104 rlineto
          -620 -97 callgsubr
          330 -68 -143 hlineto
          -68 -60 -36 -75 -87 112 -125 73 hvcurveto
          66 54 39 33 hhcurveto
          10 5 -13 -10 -54 -93 -40 -80 -3 hvcurveto
          47 -36 -38 36 -30 hhcurveto
          -36 -36 -30 -35 -55 96 -65 73 -15 hvcurveto
          123 -172 83 54 -111 123 rlineto
          99 21 77 68 72 vvcurveto
          endchar
        </CharString>
        <CharString name="dvII">
          -61 555 885 1 callsubr
        </CharString>
        <CharString name="dvII_Anusvara">
          -61 451 736 rmoveto
          67 -66 66 66 -67 66 rlineto
          38 83 1 callsubr
        </CharString>
        <CharString name="dvJ">
          -154 543 39 callgsubr
          -563 -97 callgsubr
          567 -95 rmoveto
          -329 hlineto
          -99 callgsubr
          269 hlineto
          endchar
        </CharString>
        <CharString name="dvJA">
          91 625 207 callsubr
          -808 -97 callgsubr
          515 -95 -279 hlineto
          -99 callgsubr
          139 -284 hlineto
          endchar
        </CharString>
        <CharString name="dvJH">
          -107 590 39 callgsubr
          -610 -39 callsubr
          -8 32 -16 25 vhcurveto
          -7 24 21 -3 18 hhcurveto
          55 45 34 39 42 hvcurveto
          -73 93 rlineto
          -56 -43 -34 -15 -53 162 callsubr
          217 171 hlineto
          endchar
        </CharString>
        <CharString name="dvJHA">
          146 681 252 callsubr
          -863 hlineto
          72 -104 rlineto
          322 -59 -124 hlineto
          -81 -47 -31 -72 -86 112 -116 73 hvcurveto
          2 callgsubr
          rlineto
          1 314 rmoveto
          -32 -23 -29 -17 -29 -92 -20 14 -49 37 callgsubr
          217 171 124 hlineto
          endchar
        </CharString>
        <CharString name="dvJH_MA">
          479 884 7 callsubr
          -455 -171 rmoveto
          171 162 -182 -1 vlineto
          -38 -26 -10 -24 -7 hvcurveto
          -10 -19 -21 -3 -25 162 callsubr
          892 275 rmoveto
          -1196 -39 callsubr
          -8 32 -16 25 vhcurveto
          -7 24 21 -3 18 hhcurveto
          18 17 4 6 16 hvcurveto
          -41 38 50 -36 27 hhcurveto
          -58 callgsubr
        </CharString>
        <CharString name="dvJH_NA">
          251 786 252 callsubr
          -968 40 callsubr
          -154 -251 rlineto
          -13 -21 -5 -15 -11 vvcurveto
          -45 52 -14 47 41 59 8 31 9 -5 8 -7 8 vhcurveto
          -14 16 -22 14 -14 9 79 170 rcurveline
          -8 -128 rlineto
          1 344 rmoveto
          -64 -78 -64 -10 -52 hhcurveto
          -33 -23 4 3 -22 hvcurveto
          4 -24 -22 3 -29 37 callgsubr
          217 171 229 hlineto
          endchar
        </CharString>
        <CharString name="dvJH_R">
          -108 436 -56 rmoveto
          94 -66 195 414 -68 86 rlineto
          -66 -79 -62 -10 -53 hhcurveto
          -33 -23 4 3 -22 hvcurveto
          4 -24 -22 3 -29 37 callgsubr
          217 171 161 -25 callsubr
          -609 40 callsubr
          endchar
        </CharString>
        <CharString name="dvJH_RA">
          251 437 -56 rmoveto
          94 -66 133 278 -8 -124 130 -72 rlineto
          232 callsubr
          -969 -39 callsubr
          -6 35 -32 31 vhcurveto
          -8 23 34 -10 20 hhcurveto
          45 32 7 40 57 hvcurveto
          -185 47 rmoveto
          -51 -30 8 4 -34 hvcurveto
          1 -12 -12 1 -14 37 callgsubr
          217 171 228 -145 hlineto
          -71 -71 -51 -13 -71 hhcurveto
          endchar
        </CharString>
        <CharString name="dvJH_YA">
          503 909 -107 callsubr
          -480 -171 rmoveto
          171 220 127 callsubr
          -3 0 -2 1 -3 vhcurveto
          -17 -25 -25 -6 -33 162 callsubr
          916 275 rmoveto
          -1220 -39 callsubr
          -8 32 -16 25 vhcurveto
          -7 24 21 -3 18 hhcurveto
          26 24 8 12 23 hvcurveto
          -70 56 92 -68 66 -100 callsubr
        </CharString>
        <CharString name="dvJ_BA">
          442 728 192 115 callgsubr
          -1159 -97 callgsubr
          865 56 callgsubr
          -35 -38 -13 -24 -31 hvcurveto
          -336 hlineto
          -99 callgsubr
          133 hlineto
          -1 -5 0 -6 -5 96 callgsubr
        </CharString>
        <CharString name="dvJ_DA">
          376 880 52 callgsubr
          -1092 -97 callgsubr
          770 -80 -79 hlineto
          -35 -30 -5 -10 -24 hvcurveto
          -364 hlineto
          -99 callgsubr
          137 hlineto
          -1 -9 -1 -10 -10 vvcurveto
          -69 36 -69 53 -52 vhcurveto
          -51 52 67 -33 64 hhcurveto
          26 26 7 11 23 hvcurveto
          86 -133 75 50 -103 123 rlineto
          26 26 16 30 23 -90 callgsubr
          endchar
        </CharString>
        <CharString name="dvJ_DDA">
          350 872 157 callgsubr
          -1068 -97 callgsubr
          769 -76 -117 hlineto
          -38 -29 -6 -13 -22 hvcurveto
          -325 hlineto
          -99 callgsubr
          146 hlineto
          -86 18 90 -94 74 -41 callgsubr
        </CharString>
        <CharString name="dvJ_JA">
          560 1186 635 rmoveto
          -1278 -97 callgsubr
          985 -95 -279 38 callsubr
          139 -284 hlineto
          130 -77 94 callsubr
          endchar
        </CharString>
        <CharString name="dvJ_JHA">
          592 998 351 rmoveto
          -32 -23 -29 -17 -29 -92 -20 14 -49 37 callgsubr
          217 171 124 hlineto
          116 callsubr
          -1309 -97 callgsubr
          768 -59 -124 hlineto
          -49 -36 -11 -25 -22 hvcurveto
          -299 hlineto
          -99 callgsubr
          148 hlineto
          -76 29 86 -78 60 2 callgsubr
          -93 callsubr
        </CharString>
        <CharString name="dvJ_J_NYA">
          581 1207 635 rmoveto
          -1299 -97 callgsubr
          1006 -95 -768 hlineto
          -99 callgsubr
          391 hlineto
          25 -37 13 -35 -32 vvcurveto
          -55 -29 -34 -59 -35 -12 8 0 vhcurveto
          95 -51 -18 50 -33 hhcurveto
          -31 -28 -36 -27 -38 36 -44 68 -49 hvcurveto
          109 -221 77 51 -74 117 rlineto
          -2 11 10 -1 10 hhcurveto
          86 63 62 80 57 -23 50 -37 41 hvcurveto
          159 -284 hlineto
          130 -77 61 callsubr
        </CharString>
        <CharString name="dvJ_J_VA">
          920 1546 635 rmoveto
          -1638 -97 callgsubr
          1343 -87 callgsubr
          -49 -54 -28 -50 -29 hvcurveto
          18 -30 -39 14 -48 25 callgsubr
          13 hvcurveto
          -124 1 131 -120 93 hhcurveto
          -73 callsubr
        </CharString>
        <CharString name="dvJ_J_YA">
          937 1343 -98 callgsubr
          -1654 -97 callgsubr
          1103 123 callsubr
          -15 -14 -87 -45 vhcurveto
          28 -33 -47 24 -64 25 callgsubr
          12 hvcurveto
          -83 20 148 -143 96 -100 callsubr
        </CharString>
        <CharString name="dvJ_KA">
          634 1330 39 callgsubr
          -1350 -97 callgsubr
          805 -274 hlineto
          -102 callsubr
          -32 -36 -10 -24 -27 hvcurveto
          -326 hlineto
          -99 callgsubr
          137 -4 hlineto
          186 callgsubr
          vhcurveto
          -4 -56 118 callsubr
          -99 callsubr
          endchar
        </CharString>
        <CharString name="dvJ_MA">
          475 880 7 callsubr
          215 callgsubr
          -1192 -97 callgsubr
          607 -181 hlineto
          39 -31 -57 47 -89 hhcurveto
          -192 hlineto
          -99 callgsubr
          102 hlineto
          22 18 -4 -5 15 hvcurveto
          -1 -3 0 -3 -4 24 callsubr
        </CharString>
        <CharString name="dvJ_NA">
          219 624 32 rmoveto
          184 callsubr
          -936 -97 callgsubr
          645 hlineto
          5 -191 rlineto
          49 -53 -78 47 -102 hhcurveto
          -181 hlineto
          104 callsubr
          105 67 -8 -71 48 hvcurveto
          -233 -188 rlineto
          -26 -21 -8 -15 -61 callsubr
          116 120 rcurveline
          endchar
        </CharString>
        <CharString name="dvJ_NY">
          -86 611 39 callgsubr
          -631 -97 callgsubr
          616 -95 rmoveto
          -345 13 callsubr
          291 hlineto
          endchar
        </CharString>
        <CharString name="dvJ_NYA">
          145 680 207 callsubr
          -863 -97 callgsubr
          570 -95 -299 13 callsubr
          159 -284 hlineto
          endchar
        </CharString>
        <CharString name="dvJ_NY_YA">
          506 912 -98 callgsubr
          -1223 -97 callgsubr
          672 hlineto
          24 -13 17 -33 -19 vvcurveto
          -25 -17 -13 -99 -52 vhcurveto
          30 -42 -60 30 -77 hhcurveto
          -147 13 callsubr
          45 hlineto
          54 70 -63 -29 30 hvcurveto
          -71 56 92 -69 67 -100 callsubr
        </CharString>
        <CharString name="dvJ_R">
          -116 509 635 rmoveto
          -601 -97 callgsubr
          601 hlineto
          -365 -95 53 callgsubr
        </CharString>
        <CharString name="dvJ_RA">
          219 339 3 rmoveto
          94 -66 196 198 -5 -103 184 callsubr
          -936 -97 callgsubr
          645 hlineto
          5 -191 rlineto
          49 -53 -78 47 -102 hhcurveto
          -181 hlineto
          103 callgsubr
          70 -14 -60 51 hvcurveto
          endchar
        </CharString>
        <CharString name="dvJ_TA">
          417 1042 635 rmoveto
          -1134 -97 callgsubr
          847 -101 -165 hlineto
          -12 -12 -1 -1 -11 hvcurveto
          -409 hlineto
          -99 callgsubr
          141 hlineto
          -1 -10 -1 -11 -11 vvcurveto
          -96 74 -133 77 -92 vhcurveto
          68 45 rlineto
          -66 callsubr
        </CharString>
        <CharString name="dvJ_TTA">
          358 873 322 94 callgsubr
          -1074 -97 callgsubr
          763 -89 -74 hlineto
          -17 -17 -2 -4 -17 hvcurveto
          -400 hlineto
          -99 callgsubr
          142 hlineto
          -3 -14 -2 -15 -17 vvcurveto
          227 callsubr
          vhcurveto
          -8 callgsubr
        </CharString>
        <CharString name="dvJ_VA">
          439 1065 635 rmoveto
          -1157 -97 callgsubr
          862 -87 callgsubr
          -38 -39 -16 -30 -30 hvcurveto
          -321 hlineto
          -99 callgsubr
          134 -5 hlineto
          36 callsubr
        </CharString>
        <CharString name="dvJ_YA">
          457 863 -98 callgsubr
          -1174 -97 callgsubr
          623 123 callsubr
          -14 -13 -80 -42 vhcurveto
          26 -33 -46 22 -61 hhcurveto
          -192 hlineto
          -99 callgsubr
          102 hlineto
          12 10 -1 -2 10 hvcurveto
          -83 17 150 -146 97 -100 callsubr
        </CharString>
        <CharString name="dvJx">
          -154 -15 -22 -75 callsubr
          467 460 128 callgsubr
          -563 -97 callgsubr
          567 -95 rmoveto
          -329 hlineto
          -99 callgsubr
          269 hlineto
          endchar
        </CharString>
        <CharString name="dvJxA">
          108 626 207 callsubr
          -808 -97 callgsubr
          515 -95 -279 hlineto
          -99 callgsubr
          139 -284 hlineto
          -436 -99 -75 callsubr
          endchar
        </CharString>
        <CharString name="dvJx_JxA">
          560 85 -72 -75 callsubr
          363 -93 -75 callsubr
          556 614 rmoveto
          -1278 -97 callgsubr
          985 -95 -279 38 callsubr
          139 -284 hlineto
          130 -77 94 callsubr
          endchar
        </CharString>
        <CharString name="dvJx_R">
          -116 581 39 callgsubr
          -601 -97 callgsubr
          -22 -509 -75 callsubr
          167 321 53 callgsubr
        </CharString>
        <CharString name="dvJx_RA">
          219 339 3 rmoveto
          94 -66 196 198 -5 -103 184 callsubr
          -936 -97 callgsubr
          645 hlineto
          5 -191 rlineto
          49 -53 -78 47 -102 hhcurveto
          -181 hlineto
          103 callgsubr
          70 -14 -60 51 hvcurveto
          -610 -255 -75 callsubr
          endchar
        </CharString>
        <CharString name="dvJx_YA">
          443 74 -69 -75 callsubr
          684 294 23 callsubr
          -1160 -97 callgsubr
          609 hlineto
          219 callgsubr
          -13 -13 -73 -39 vhcurveto
          24 -32 -44 20 -58 hhcurveto
          -192 hlineto
          -99 callgsubr
          102 hlineto
          6 6 0 -1 5 hvcurveto
          -83 16 151 -148 98 -100 callsubr
        </CharString>
        <CharString name="dvK">
          -40 703 349 rmoveto
          65 -46 -69 51 -53 hhcurveto
          -84 callsubr
          200 -25 callsubr
          -677 -103 callgsubr
          40 29 47 hhcurveto
          38 19 -14 -35 19 hvcurveto
          endchar
        </CharString>
        <CharString name="dvKA">
          175 457 9 callgsubr
          endchar
        </CharString>
        <CharString name="dvKH">
          14 callgsubr
          endchar
        </CharString>
        <CharString name="dvKHA">
          150 12 10 callgsubr
          endchar
        </CharString>
        <CharString name="dvKH_KHA">
          693 1083 223 -24 callgsubr
          45 29 -26 -44 -38 -24 -29 -6 -4 vhcurveto
          -267 308 rmoveto
          282 -103 hlineto
          -93 callgsubr
          -128 24 rmoveto
          -12 -6 -4 -9 -13 -20 11 22 -23 vhcurveto
          -15 20 -20 21 -27 20 rrcurveto
          129 callgsubr
          415 vlineto
          -148 -308 -70 callsubr
          778 412 rmoveto
          -1410 -75 callgsubr
          85 132 52 123 39 hvcurveto
          -88 67 92 -87 130 60 callsubr
        </CharString>
        <CharString name="dvKH_MA">
          518 923 7 callsubr
          -383 -308 -70 callsubr
          -267 308 rmoveto
          357 234 callgsubr
          -16 26 -23 27 -35 26 rrcurveto
          -93 callgsubr
          870 309 rmoveto
          -1235 -75 callgsubr
          84 129 50 120 42 hvcurveto
          -24 27 30 -17 20 hhcurveto
          -58 callgsubr
        </CharString>
        <CharString name="dvKH_NA">
          150 844 39 callgsubr
          -864 75 callsubr
          215 callsubr
          77 -124 101 -153 144 -12 rlinecurve
          -93 -70 rlineto
          -27 -20 -7 -16 75 callgsubr
          102 80 rcurveline
          102 79 -4 -41 126 -71 rlineto
          571 vlineto
          -240 -64 rmoveto
          81 callsubr
          282 -98 vlineto
          20 -30 -41 14 -39 hhcurveto
          95 -244 -70 callsubr
          endchar
        </CharString>
        <CharString name="dvKH_R">
          9 callsubr
          endchar
        </CharString>
        <CharString name="dvKH_RA">
          6 callgsubr
          endchar
        </CharString>
        <CharString name="dvKH_SHA">
          647 540 223 -40 callsubr
        </CharString>
        <CharString name="dvKH_TA">
          486 897 241 callgsubr
          -59 -44 -15 -30 -27 hvcurveto
          -13 15 -15 14 -19 14 rrcurveto
          129 callgsubr
          624 vlineto
          -357 -308 -70 callsubr
          572 412 rmoveto
          -1204 -75 callgsubr
          69 99 34 77 56 hvcurveto
          28 -58 39 -57 39 -47 68 45 rcurveline
          -66 callsubr
        </CharString>
        <CharString name="dvKH_VA">
          514 893 83 callsubr
          -51 -54 -29 -53 -29 hvcurveto
          -9 10 -11 9 -12 9 rrcurveto
          129 callgsubr
          644 59 callgsubr
          -319 -103 -70 callsubr
          600 412 rmoveto
          -1232 -75 callgsubr
          78 119 44 104 49 hvcurveto
          -52 46 62 -36 50 hhcurveto
          -73 callsubr
        </CharString>
        <CharString name="dvKH_YA">
          529 935 -107 callsubr
          -662 hmoveto
          402 176 callgsubr
          -16 -14 -93 -48 vhcurveto
          -14 16 -17 16 -21 16 rrcurveto
          -93 callgsubr
          267 -103 -70 callsubr
          614 412 rmoveto
          -1246 -75 callgsubr
          86 135 53 127 37 hvcurveto
          -55 55 72 -47 55 -100 callsubr
        </CharString>
        <CharString name="dvKHx">
          14 callgsubr
          -492 -285 -75 callsubr
          endchar
        </CharString>
        <CharString name="dvKHxA">
          183 16 10 callgsubr
          -513 -356 -75 callsubr
          endchar
        </CharString>
        <CharString name="dvKHx_MA">
          528 48 -70 -75 callsubr
          794 326 rmoveto
          -168 182 168 hlineto
          -393 -308 -70 callsubr
          -267 308 rmoveto
          367 234 callgsubr
          -10 hlineto
          -15 26 -24 27 -35 26 rrcurveto
          -93 callgsubr
          880 309 rmoveto
          -1245 -75 callgsubr
          85 133 52 125 39 hvcurveto
          -28 31 34 -20 20 hhcurveto
          -58 callgsubr
        </CharString>
        <CharString name="dvKHx_R">
          9 callsubr
          -88 -315 -75 callsubr
          endchar
        </CharString>
        <CharString name="dvKHx_RA">
          6 callgsubr
          -122 -327 -75 callsubr
          endchar
        </CharString>
        <CharString name="dvKHx_SA">
          591 30 -69 -75 callsubr
          878 337 154 callsubr
          -14 -17 16 22 -24 vhcurveto
          -15 19 -19 19 -25 19 rrcurveto
          129 callgsubr
          407 vlineto
          -140 -308 -70 callsubr
          676 412 rmoveto
          -1308 -75 callgsubr
          83 128 50 117 43 hvcurveto
          48 -67 51 -66 72 -86 -72 callsubr
        </CharString>
        <CharString name="dvKHx_SHA">
          647 55 -72 -75 callsubr
          394 202 -40 callsubr
        </CharString>
        <CharString name="dvKHx_TA">
          488 32 -71 -75 callsubr
          775 408 rmoveto
          -165 hlineto
          -60 -43 -16 -29 -27 hvcurveto
          -13 14 -16 15 -19 14 rrcurveto
          129 callgsubr
          625 vlineto
          -358 -308 -70 callsubr
          573 412 rmoveto
          -1205 -75 callgsubr
          69 99 34 78 57 hvcurveto
          28 -58 39 -58 39 -47 68 45 rcurveline
          -66 callsubr
        </CharString>
        <CharString name="dvKHx_VA">
          514 25 -69 -75 callsubr
          777 359 rmoveto
          47 -37 -55 52 -80 hhcurveto
          -51 -54 -29 -53 -29 hvcurveto
          -9 10 -11 9 -12 9 rrcurveto
          129 callgsubr
          644 59 callgsubr
          -319 -103 -70 callsubr
          600 412 rmoveto
          -1232 -75 callgsubr
          78 119 44 104 49 hvcurveto
          -52 46 62 -36 50 hhcurveto
          -73 callsubr
        </CharString>
        <CharString name="dvKHx_YA">
          530 15 -70 -75 callsubr
          830 295 -107 callgsubr
          -663 hmoveto
          403 176 callgsubr
          -16 -14 -94 -49 vhcurveto
          -14 17 -17 16 -21 16 rrcurveto
          -93 callgsubr
          267 -103 -70 callsubr
          615 412 rmoveto
          -1247 -75 callgsubr
          86 135 54 127 37 hvcurveto
          -56 56 72 -47 55 -100 callsubr
        </CharString>
        <CharString name="dvK_CA">
          593 999 323 rmoveto
          119 callgsubr
          -376 hlineto
          -4 hlineto
          -29 -22 -21 -3 -3 hvcurveto
          1 36 2 43 1 28 rrcurveto
          542 hlineto
          116 callsubr
          -1310 -105 callsubr
          25 46 39 24 48 5 49 4 rcurveline
          0 vlineto
          51 3 142 callgsubr
        </CharString>
        <CharString name="dvK_DA">
          472 848 531 rmoveto
          -80 -79 vlineto
          -56 -41 -13 -23 -29 hvcurveto
          30 -36 -39 20 -33 hhcurveto
          -84 callsubr
          521 -200 35 callsubr
          -1190 -103 callgsubr
          40 29 47 hhcurveto
          10 9 -1 -2 8 hvcurveto
          -3 -14 -2 -15 -16 vvcurveto
          -69 36 -69 53 -52 vhcurveto
          -51 52 67 -33 64 hhcurveto
          26 26 7 11 23 hvcurveto
          86 -133 75 50 -103 123 rlineto
          26 26 16 30 23 -90 callgsubr
          endchar
        </CharString>
        <CharString name="dvK_JA">
          666 1071 193 callgsubr
          -63 -46 76 98 -35 vhcurveto
          54 -37 -47 45 -57 hhcurveto
          -84 callsubr
          614 hlineto
          221 104 rmoveto
          -1384 -103 callgsubr
          36 29 47 hhcurveto
          23 20 -14 -14 9 hvcurveto
          -130 54 74 -115 110 -57 callgsubr
        </CharString>
        <CharString name="dvK_KA">
          787 941 257 42 callgsubr
          -46 -51 -21 -49 -28 hvcurveto
          39 -40 -46 26 -38 hhcurveto
          -84 callsubr
          473 hlineto
          545 hmoveto
          -34 callgsubr
          -1495 -103 callgsubr
          40 29 47 hhcurveto
          35 19 -12 -30 18 hvcurveto
          -119 12 127 -111 87 hhcurveto
          198 callsubr
          hvcurveto
          -4 -56 118 callsubr
          -99 callsubr
          endchar
        </CharString>
        <CharString name="dvK_KHA">
          735 1125 223 -24 callgsubr
          45 29 -26 -44 -38 -24 -29 -6 -4 vhcurveto
          -267 308 rmoveto
          282 -103 hlineto
          -93 callgsubr
          -128 24 rmoveto
          -12 -6 -4 -9 -12 -16 8 17 -20 vhcurveto
          37 -39 -29 69 -68 hhcurveto
          -27 -23 -12 -15 -18 hvcurveto
          1 36 2 29 1 28 rrcurveto
          263 hlineto
          630 104 rmoveto
          -1442 -103 callgsubr
          28 23 32 hhcurveto
          18 16 -5 -29 21 hvcurveto
          -126 78 113 -163 177 60 callsubr
        </CharString>
        <CharString name="dvK_LA">
          709 1114 17 callgsubr
          -48 -41 -18 -29 -29 hvcurveto
          33 -37 -41 21 -34 hhcurveto
          -84 callsubr
          657 hlineto
          215 callgsubr
          -1426 -103 callgsubr
          40 29 47 hhcurveto
          14 11 -2 -4 10 hvcurveto
          -4 -15 -2 -17 -17 vvcurveto
          -130 132 -120 87 -75 vhcurveto
          64 46 rlineto
          -95 callgsubr
        </CharString>
        <CharString name="dvK_MA">
          551 967 7 callsubr
          -293 hmoveto
          -174 vlineto
          46 -29 -56 62 -69 hhcurveto
          -27 -23 -12 -15 -18 hvcurveto
          1 36 2 29 1 28 rrcurveto
          731 104 rmoveto
          -1279 -97 callgsubr
          346 -106 callgsubr
          48 21 32 21 32 hhcurveto
          14 26 -3 -17 21 hvcurveto
          -1 -4 0 -4 -4 24 callsubr
        </CharString>
        <CharString name="dvK_NA">
          175 327 239 rmoveto
          -19 -23 -44 -34 -32 -22 callgsubr
          -80 59 -90 63 -31 hvcurveto
          -55 -40 rlineto
          -27 -20 -7 -16 75 callgsubr
          108 78 rcurveline
          -4 10 callsubr
          415 hlineto
          93 callgsubr
          hlineto
          endchar
        </CharString>
        <CharString name="dvK_NNA">
          724 888 310 -13 callgsubr
          -257 hmoveto
          -107 vlineto
          25 -32 -35 16 -29 hhcurveto
          -84 callsubr
          892 104 rmoveto
          -1441 -103 callgsubr
          40 29 47 hhcurveto
          38 19 -14 -34 19 hvcurveto
          17 -40 34 -39 38 -30 rrcurveto
          47 callsubr
        </CharString>
        <CharString name="dvK_PA">
          486 892 0 callsubr
          -283 hmoveto
          -91 vlineto
          16 -26 -25 9 -23 hhcurveto
          -84 callsubr
          654 104 rmoveto
          -1203 -103 callgsubr
          40 29 47 hhcurveto
          28 17 -7 -18 15 hvcurveto
          -79 43 103 -72 60 -8 callsubr
        </CharString>
        <CharString name="dvK_PHA">
          732 878 1 callgsubr
          -275 hmoveto
          -88 vlineto
          14 -24 -23 8 -21 hhcurveto
          -84 callsubr
          550 hmoveto
          423 -25 callsubr
          -1450 -103 callgsubr
          40 29 47 hhcurveto
          27 17 -7 -17 15 hvcurveto
          -77 46 97 -75 58 hhcurveto
          19 20 6 8 17 hvcurveto
          -7 -141 -10 callgsubr
          -96 callgsubr
          endchar
        </CharString>
        <CharString name="dvK_P_RA">
          486 892 29 callgsubr
          -283 hmoveto
          -91 vlineto
          16 -26 -25 9 -23 hhcurveto
          -84 callsubr
          654 104 rmoveto
          -1203 -103 callgsubr
          40 29 47 hhcurveto
          29 18 -8 -19 15 hvcurveto
          34 -60 66 -58 51 -10 2 callsubr
        </CharString>
        <CharString name="dvK_R">
          -41 29 59 18 callgsubr
        </CharString>
        <CharString name="dvK_RA">
          4 callsubr
          endchar
        </CharString>
        <CharString name="dvK_SA">
          622 1030 361 rmoveto
          -23 -22 -38 -19 -47 hhcurveto
          -31 -28 11 21 -23 hvcurveto
          180 189 vlineto
          -319 -185 -31 callsubr
          536 104 rmoveto
          -1339 hlineto
          72 -104 rlineto
          347 -64 callsubr
          22 25 7 11 15 hvcurveto
          -7 -189 127 -75 -20 callsubr
          endchar
        </CharString>
        <CharString name="dvK_SHA">
          685 841 182 callsubr
          -33 -28 24 25 -25 vhcurveto
          60 -44 -47 46 -50 hhcurveto
          -34 -27 -15 -14 -20 hvcurveto
          1 36 1 31 1 28 rrcurveto
          170 -25 callsubr
          -647 -104 callsubr
          22 25 29 42 hhcurveto
          26 16 -15 -19 16 hvcurveto
          62 -87 130 -149 96 -110 -50 callsubr
        </CharString>
        <CharString name="dvK_SS">
          -109 570 417 rmoveto
          -33 -28 -72 -58 -80 hhcurveto
          -27 -33 4 11 -24 -78 callsubr
          -38 53 76 -26 69 hhcurveto
          75 62 34 52 53 hvcurveto
          -322 202 rmoveto
          -36 -69 -53 -21 -15 vhcurveto
          -29 18 -13 37 28 vvcurveto
          40 32 33 42 33 25 -17 -35 vhcurveto
          279 16 128 callgsubr
          -132 -97 callgsubr
          endchar
        </CharString>
        <CharString name="dvK_SSA">
          127 752 635 rmoveto
          -368 -97 callgsubr
          76 -144 hlineto
          -33 -31 -58 -28 -53 hhcurveto
          -27 -33 4 11 -24 -78 callsubr
          -38 53 76 -26 69 hhcurveto
          31 31 8 13 29 hvcurveto
          -216 vlineto
          3 callsubr
          -573 36 rmoveto
          33 25 -17 -35 -36 -69 -53 -21 -15 hvcurveto
          -29 18 -13 37 28 vvcurveto
          40 32 33 42 vhcurveto
          endchar
        </CharString>
        <CharString name="dvK_SS_MA">
          440 845 7 callsubr
          -626 -120 51 callsubr
          846 224 228 callgsubr
          -30 -22 -6 -15 -12 hvcurveto
          -7 -26 -24 -3 -23 hhcurveto
          -43 -37 10 13 -28 -78 callsubr
          -49 68 79 -35 75 hhcurveto
          22 20 3 6 21 hvcurveto
          -41 37 51 -35 26 hhcurveto
          -58 callgsubr
        </CharString>
        <CharString name="dvK_SS_M_YA">
          775 1181 -107 callsubr
          -489 hmoveto
          229 17 callsubr
          -118 hlineto
          -473 62 51 callsubr
          1181 224 rmoveto
          -1028 hlineto
          115 callsubr
          -117 hlineto
          -34 -30 -70 -54 -77 hhcurveto
          -27 -33 4 11 -24 -78 callsubr
          -38 53 76 -26 69 hhcurveto
          29 26 5 9 25 hvcurveto
          -50 38 66 -51 32 120 callgsubr
          167 vlineto
          -70 56 92 -70 67 -100 callsubr
        </CharString>
        <CharString name="dvK_SS_VA">
          449 219 411 51 callsubr
          856 224 rmoveto
          111 callgsubr
          -61 -67 -42 -76 -20 hvcurveto
          -21 -33 -41 -17 -44 hhcurveto
          -27 -33 4 11 -24 -78 callsubr
          -38 53 76 -26 69 hhcurveto
          27 26 4 9 24 hvcurveto
          -93 37 98 -76 74 hhcurveto
          -73 callsubr
        </CharString>
        <CharString name="dvK_SS_YA">
          474 880 -107 callsubr
          -661 -120 51 callsubr
          880 224 rmoveto
          73 callsubr
          -13 -7 -5 -6 -2 -13 rrcurveto
          -13 -32 -36 -7 -41 hhcurveto
          -31 -30 6 14 -31 -78 callsubr
          -48 70 79 -29 74 hhcurveto
          31 31 5 11 29 hvcurveto
          -71 56 93 -70 67 -100 callsubr
        </CharString>
        <CharString name="dvK_S_DDA">
          881 841 531 rmoveto
          438 -76 -117 hlineto
          -81 -45 -29 -65 -5 hvcurveto
          -30 -35 -33 -12 -40 -45 callsubr
          -130 -5 -31 callsubr
          691 -186 138 callgsubr
          -1598 hlineto
          72 -104 rlineto
          347 -64 callsubr
          18 35 5 28 42 hvcurveto
          -55 38 58 -43 50 -41 callgsubr
        </CharString>
        <CharString name="dvK_S_P_LA">
          1429 1834 17 callgsubr
          -81 -60 -49 -72 -19 hvcurveto
          -40 -35 -32 -22 -34 8 callsubr
          666 vlineto
          -993 hmoveto
          198 -147 hlineto
          -5 0 -5 1 -5 vhcurveto
          -36 -39 -35 -14 -43 -45 callsubr
          -130 -5 -31 callsubr
          1343 104 rmoveto
          -2146 hlineto
          72 -104 rlineto
          347 -64 callsubr
          22 47 7 48 55 hvcurveto
          -55 50 70 -42 46 hhcurveto
          11 27 1 24 38 hvcurveto
          41 -92 90 -81 65 -56 64 46 rcurveline
          -95 callgsubr
        </CharString>
        <CharString name="dvK_S_P_RA">
          910 1316 29 callgsubr
          -476 hmoveto
          193 -147 hlineto
          -6 1 -6 1 -7 vhcurveto
          -33 -37 -34 -13 -42 -45 callsubr
          -130 -5 -31 callsubr
          825 104 rmoveto
          -1627 -97 callgsubr
          346 21 callsubr
          22 46 7 45 53 hvcurveto
          34 -37 42 -29 35 -7 2 callsubr
        </CharString>
        <CharString name="dvK_S_TA">
          940 1350 241 callgsubr
          -65 -46 -18 -35 -26 hvcurveto
          -43 -42 -37 -15 -46 71 callgsubr
          509 vlineto
          -639 -185 -31 callsubr
          854 104 rmoveto
          -1656 -97 callgsubr
          346 -64 callsubr
          12 19 2 9 23 hvcurveto
          22 -85 59 -99 61 -73 68 45 rcurveline
          -66 callsubr
        </CharString>
        <CharString name="dvK_S_TTA">
          871 841 531 rmoveto
          416 -89 -74 hlineto
          -64 -61 -27 -56 -29 hvcurveto
          -29 -35 -32 -11 -39 -45 callsubr
          -130 -5 -31 callsubr
          676 -209 94 callgsubr
          -1588 hlineto
          72 -104 rlineto
          347 21 callsubr
          10 15 2 6 19 hvcurveto
          -114 35 122 -105 108 hhcurveto
          33 callsubr
        </CharString>
        <CharString name="dvK_TA">
          320 945 635 rmoveto
          -1037 89 callsubr
          259 vlineto
          38 35 41 32 58 hhcurveto
          49 39 -51 -43 -50 -42 -30 -43 -26 -18 4 12 -27 hvcurveto
          32 -126 rlineto
          -10 26 33 -5 25 hhcurveto
          93 53 70 82 113 -131 161 -89 -31 -38 -8 -22 -39 hvcurveto
          145 465 vlineto
          endchar
        </CharString>
        <CharString name="dvK_THA">
          627 1252 635 -56 callsubr
          -57 -91 -49 -68 -36 vhcurveto
          74 -50 -64 43 -53 hhcurveto
          -84 callsubr
          150 -25 callsubr
          -627 -103 callgsubr
          40 29 47 hhcurveto
          33 18 -10 -26 17 hvcurveto
          -1 -3 0 -4 -4 59 callsubr
          endchar
        </CharString>
        <CharString name="dvK_TTA">
          468 854 531 rmoveto
          -89 -74 vlineto
          -46 -43 -14 -28 -32 hvcurveto
          39 -40 -46 26 -38 hhcurveto
          -84 callsubr
          527 -209 94 callgsubr
          -1185 -103 callgsubr
          40 29 47 hhcurveto
          19 14 -3 -8 11 hvcurveto
          -4 -16 -3 -18 -20 vvcurveto
          227 callsubr
          vhcurveto
          -8 callgsubr
        </CharString>
        <CharString name="dvK_T_RA">
          516 921 379 rmoveto
          52 -53 -62 32 -64 hhcurveto
          -33 -42 -9 -25 -43 hvcurveto
          22 -30 -32 14 -27 hhcurveto
          -84 callsubr
          464 hlineto
          215 callgsubr
          -1233 -103 callgsubr
          40 29 47 hhcurveto
          38 18 -21 -32 27 hvcurveto
          45 callgsubr
          572 168 vlineto
          endchar
        </CharString>
        <CharString name="dvK_T_VA">
          896 1275 83 callsubr
          -40 -43 -18 -34 -30 hvcurveto
          -213 hlineto
          -50 -39 -11 -21 -27 hvcurveto
          40 -40 -47 27 -39 hhcurveto
          -84 callsubr
          842 165 callgsubr
          281 309 rmoveto
          -1614 -103 callgsubr
          40 29 47 hhcurveto
          20 15 -4 -9 13 hvcurveto
          -3 -14 -2 -15 -17 31 callgsubr
          129 hlineto
          -122 5 129 -116 91 hhcurveto
          -73 callsubr
        </CharString>
        <CharString name="dvK_T_YA">
          918 1324 -107 callsubr
          -538 -101 rmoveto
          -53 -40 -12 -24 -28 hvcurveto
          42 -41 -49 29 -40 hhcurveto
          -84 callsubr
          607 176 callgsubr
          -16 -13 -90 -47 vhcurveto
          25 -26 -36 23 -44 hhcurveto
          650 205 rmoveto
          -1635 -103 callgsubr
          40 29 47 hhcurveto
          25 17 -6 -14 13 hvcurveto
          -2 -12 -1 -13 -14 31 callgsubr
          84 hlineto
          17 14 -2 -4 13 hvcurveto
          -84 30 139 -130 91 -100 callsubr
        </CharString>
        <CharString name="dvK_VA">
          560 939 83 callsubr
          -46 -48 -23 -44 -30 hvcurveto
          30 -36 -39 20 -33 hhcurveto
          -84 callsubr
          506 165 callgsubr
          281 309 rmoveto
          -1278 -103 callgsubr
          40 29 47 hhcurveto
          19 14 -3 -8 11 hvcurveto
          -4 0 -5 -4 vvcurveto
          36 callsubr
        </CharString>
        <CharString name="dvK_V_YA">
          933 1339 -107 callsubr
          -393 -148 rmoveto
          47 -37 -49 54 -80 hhcurveto
          -50 -52 -26 -45 -32 hvcurveto
          31 -37 -40 21 -34 hhcurveto
          -84 callsubr
          622 -7 callgsubr
          -7 1 -7 2 -7 vhcurveto
          -71 -48 -62 -59 -56 hhcurveto
          -44 -29 28 44 72 46 42 52 28 33 -19 -23 23 hvcurveto
          646 309 rmoveto
          -1650 -103 callgsubr
          40 29 47 hhcurveto
          19 14 -3 -8 12 hvcurveto
          -1 -7 0 -6 -7 vvcurveto
          159 callsubr
          85 70 77 49 35 vhcurveto
          -58 56 75 -50 57 -100 callsubr
        </CharString>
        <CharString name="dvK_YA">
          576 981 46 callgsubr
          -22 -14 -14 -78 -41 vhcurveto
          45 -42 -51 31 -42 hhcurveto
          -84 callsubr
          743 104 rmoveto
          -1292 -103 callgsubr
          40 29 47 hhcurveto
          16 12 -2 -6 11 hvcurveto
          -79 1 162 -164 103 -100 callsubr
        </CharString>
        <CharString name="dvKx">
          -40 703 349 rmoveto
          65 -46 -69 51 -53 hhcurveto
          -84 callsubr
          200 -25 callsubr
          -677 -103 callgsubr
          40 29 47 hhcurveto
          38 19 -14 -35 19 hvcurveto
          -522 -353 -75 callsubr
          endchar
        </CharString>
        <CharString name="dvKxA">
          184 468 9 callgsubr
          -256 -94 -75 callsubr
          endchar
        </CharString>
        <CharString name="dvKx_BA">
          552 38 -70 -75 callsubr
          637 341 rmoveto
          -88 callsubr
          -43 -49 -20 -37 -34 hvcurveto
          30 -35 -39 19 -32 hhcurveto
          -84 callsubr
          497 hlineto
          66 callsubr
          -1268 -103 callgsubr
          40 29 47 hhcurveto
          13 10 -2 -3 10 hvcurveto
          -2 -10 -1 -10 -10 96 callgsubr
        </CharString>
</ttFont>
